font_0.ufo
<glyph name="space" format="1">
  <advance width="207"/>
  <unicode hex="0020"/>
  <outline>
    <contour>
      <point x="118" y="671" type="move" name="top"/>
    </contour>
    <contour>
      <point x="111" y="-92" type="move" name="bottom"/>
    </contour>
  </outline>
</glyph>
<glyph name="quotedbl" format="1">
  <advance width="329"/>
  <unicode hex="0022"/>
  <outline>
    <contour>
      <point x="118" y="515" type="line"/>
      <point x="121" y="703" type="line"/>
      <point x="91" y="703" type="line"/>
      <point x="94" y="515" type="line"/>
    </contour>
    <contour>
      <point x="235" y="515" type="line"/>
      <point x="238" y="703" type="line"/>
      <point x="208" y="703" type="line"/>
      <point x="211" y="515" type="line"/>
    </contour>
  </outline>
</glyph>
<glyph name="ampersand" format="1">
  <advance width="439"/>
  <unicode hex="0026"/>
  <outline>
    <contour>
      <point x="417" y="4" type="line"/>
      <point x="349" y="119"/>
      <point x="284" y="234"/>
      <point x="215" y="349" type="curve"/>
      <point x="174" y="424"/>
      <point x="128" y="490"/>
      <point x="128" y="577" type="curve"/>
      <point x="128" y="643"/>
      <point x="145" y="704"/>
      <point x="196" y="704" type="curve"/>
      <point x="249" y="704"/>
      <point x="267" y="645"/>
      <point x="267" y="579" type="curve"/>
      <point x="267" y="499"/>
      <point x="228" y="444"/>
      <point x="168" y="389" type="curve"/>
      <point x="103" y="327"/>
      <point x="63" y="265"/>
      <point x="63" y="177" type="curve"/>
      <point x="63" y="79"/>
      <point x="103" y="-5"/>
      <point x="190" y="-5" type="curve"/>
      <point x="339" y="-5"/>
      <point x="365" y="155"/>
      <point x="394" y="318" type="curve"/>
      <point x="373" y="323"/>
      <point x="394" y="318"/>
      <point x="373" y="323" type="curve"/>
      <point x="346" y="171"/>
      <point x="318" y="18"/>
      <point x="191" y="18" type="curve"/>
      <point x="119" y="18"/>
      <point x="88" y="92"/>
      <point x="88" y="177" type="curve"/>
      <point x="88" y="257"/>
      <point x="126" y="314"/>
      <point x="184" y="369" type="curve"/>
      <point x="248" y="430"/>
      <point x="292" y="493"/>
      <point x="292" y="580" type="curve"/>
      <point x="292" y="659"/>
      <point x="265" y="727"/>
      <point x="197" y="727" type="curve"/>
      <point x="127" y="727"/>
      <point x="103" y="657"/>
      <point x="103" y="577" type="curve"/>
      <point x="103" y="485"/>
      <point x="150" y="415"/>
      <point x="197" y="336" type="curve"/>
      <point x="264" y="221"/>
      <point x="328" y="106"/>
      <point x="397" y="-8" type="curve"/>
    </contour>
  </outline>
</glyph>
<glyph name="hyphen" format="1">
  <advance width="346"/>
  <unicode hex="002D"/>
  <outline>
    <contour>
      <point x="86" y="260" type="curve"/>
      <point x="145" y="260"/>
      <point x="204" y="260"/>
      <point x="261" y="260" type="curve"/>
      <point x="261" y="284"/>
      <point x="261" y="260"/>
      <point x="261" y="284" type="curve"/>
      <point x="204" y="284"/>
      <point x="145" y="284"/>
      <point x="86" y="284" type="curve"/>
      <point x="86" y="260"/>
      <point x="86" y="284"/>
    </contour>
  </outline>
</glyph>
<glyph name="six" format="1">
  <advance width="399"/>
  <unicode hex="0036"/>
  <outline>
    <contour>
      <point x="82" y="230" type="curve"/>
      <point x="86" y="295"/>
      <point x="125" y="386"/>
      <point x="204" y="386" type="curve"/>
      <point x="288" y="386"/>
      <point x="310" y="303"/>
      <point x="310" y="202" type="curve"/>
      <point x="310" y="116"/>
      <point x="288" y="18"/>
      <point x="207" y="18" type="curve"/>
      <point x="108" y="18"/>
      <point x="86" y="122"/>
      <point x="86" y="242" type="curve"/>
      <point x="86" y="452"/>
      <point x="162" y="632"/>
      <point x="340" y="714" type="curve"/>
      <point x="330" y="734"/>
      <point x="340" y="714"/>
      <point x="330" y="734" type="curve"/>
      <point x="146" y="652"/>
      <point x="61" y="469"/>
      <point x="61" y="241" type="curve"/>
      <point x="61" y="107"/>
      <point x="92" y="-5"/>
      <point x="206" y="-5" type="curve"/>
      <point x="304" y="-5"/>
      <point x="335" y="90"/>
      <point x="335" y="203" type="curve"/>
      <point x="335" y="316"/>
      <point x="303" y="409"/>
      <point x="206" y="409" type="curve"/>
      <point x="117" y="409"/>
      <point x="74" y="326"/>
      <point x="63" y="241" type="curve"/>
      <point x="79" y="230"/>
      <point x="66" y="241"/>
    </contour>
  </outline>
</glyph>
<glyph name="greater" format="1">
  <advance width="469"/>
  <unicode hex="003E"/>
  <outline>
    <contour>
      <point x="63" y="24" type="curve"/>
      <point x="185" y="114"/>
      <point x="307" y="204"/>
      <point x="429" y="294" type="curve"/>
      <point x="429" y="318"/>
      <point x="429" y="294"/>
      <point x="429" y="318" type="curve"/>
      <point x="307" y="228"/>
      <point x="185" y="138"/>
      <point x="63" y="48" type="curve"/>
      <point x="63" y="24"/>
      <point x="63" y="48"/>
    </contour>
    <contour>
      <point x="57" y="558" type="curve"/>
      <point x="180" y="470"/>
      <point x="305" y="382"/>
      <point x="429" y="294" type="curve"/>
      <point x="429" y="318"/>
      <point x="429" y="294"/>
      <point x="429" y="318" type="curve"/>
      <point x="305" y="406"/>
      <point x="180" y="494"/>
      <point x="57" y="582" type="curve"/>
      <point x="57" y="558"/>
      <point x="57" y="582"/>
    </contour>
  </outline>
</glyph>
<glyph name="question" format="1">
  <advance width="369"/>
  <unicode hex="003F"/>
  <outline>
    <contour>
      <point x="162" y="334" type="curve"/>
      <point x="162" y="297"/>
      <point x="162" y="258"/>
      <point x="162" y="221" type="curve"/>
      <point x="186" y="221"/>
      <point x="162" y="221"/>
      <point x="186" y="221" type="curve"/>
      <point x="186" y="258"/>
      <point x="186" y="297"/>
      <point x="186" y="334" type="curve"/>
      <point x="162" y="334"/>
      <point x="186" y="334"/>
    </contour>
    <contour>
      <point x="82" y="620" type="line"/>
      <point x="97" y="656"/>
      <point x="125" y="687"/>
      <point x="173" y="687" type="curve"/>
      <point x="253" y="687"/>
      <point x="279" y="608"/>
      <point x="279" y="519" type="curve"/>
      <point x="279" y="423"/>
      <point x="252" y="334"/>
      <point x="168" y="334" type="curve"/>
      <point x="168" y="309"/>
      <point x="168" y="336"/>
      <point x="168" y="311" type="curve"/>
      <point x="266" y="311"/>
      <point x="305" y="408"/>
      <point x="305" y="519" type="curve"/>
      <point x="305" y="620"/>
      <point x="266" y="710"/>
      <point x="175" y="710" type="curve"/>
      <point x="111" y="710"/>
      <point x="83" y="674"/>
      <point x="64" y="631" type="curve"/>
    </contour>
    <contour>
      <point x="192" y="12" type="curve"/>
      <point x="192" y="23"/>
      <point x="184" y="30"/>
      <point x="173" y="30" type="curve"/>
      <point x="162" y="30"/>
      <point x="156" y="22"/>
      <point x="156" y="12" type="curve"/>
      <point x="192" y="12"/>
      <point x="156" y="12"/>
      <point x="192" y="12" type="curve"/>
      <point x="192" y="1"/>
      <point x="184" y="-5"/>
      <point x="173" y="-5" type="curve"/>
      <point x="162" y="-5"/>
      <point x="156" y="1"/>
      <point x="156" y="12" type="curve"/>
      <point x="192" y="12"/>
      <point x="156" y="12"/>
    </contour>
  </outline>
</glyph>
<glyph name="B" format="1">
  <advance width="457"/>
  <unicode hex="0042"/>
  <outline>
    <contour>
      <point x="143" y="722" type="curve"/>
      <point x="101" y="722"/>
      <point x="82" y="722"/>
      <point x="40" y="722" type="curve"/>
      <point x="40" y="700"/>
      <point x="40" y="722"/>
      <point x="40" y="700" type="curve"/>
      <point x="166" y="700"/>
      <point x="17" y="700"/>
      <point x="143" y="700" type="curve"/>
      <point x="143" y="722"/>
      <point x="143" y="700"/>
    </contour>
    <contour>
      <point x="142" y="22" type="curve"/>
      <point x="16" y="22"/>
      <point x="165" y="22"/>
      <point x="39" y="22" type="curve"/>
      <point x="39" y="0"/>
      <point x="39" y="22"/>
      <point x="39" y="0" type="curve"/>
      <point x="81" y="0"/>
      <point x="100" y="0"/>
      <point x="142" y="0" type="curve"/>
      <point x="142" y="22"/>
      <point x="142" y="0"/>
    </contour>
    <contour>
      <point x="136" y="700" type="curve"/>
      <point x="172" y="700"/>
      <point x="191" y="700"/>
      <point x="227" y="700" type="curve"/>
      <point x="307" y="700"/>
      <point x="343" y="640"/>
      <point x="343" y="555" type="curve"/>
      <point x="343" y="478"/>
      <point x="314" y="421"/>
      <point x="244" y="421" type="curve"/>
      <point x="201" y="421"/>
      <point x="179" y="421"/>
      <point x="136" y="421" type="curve"/>
      <point x="136" y="415"/>
      <point x="136" y="405"/>
      <point x="136" y="399" type="curve"/>
      <point x="173" y="399"/>
      <point x="198" y="399"/>
      <point x="235" y="399" type="curve"/>
      <point x="326" y="399"/>
      <point x="367" y="462"/>
      <point x="367" y="555" type="curve"/>
      <point x="367" y="654"/>
      <point x="320" y="722"/>
      <point x="227" y="722" type="curve"/>
      <point x="191" y="722"/>
      <point x="172" y="722"/>
      <point x="136" y="722" type="curve"/>
      <point x="136" y="716"/>
      <point x="136" y="706"/>
    </contour>
    <contour>
      <point x="157" y="0" type="curve"/>
      <point x="157" y="241"/>
      <point x="157" y="481"/>
      <point x="157" y="722" type="curve"/>
      <point x="131" y="722"/>
      <point x="157" y="722"/>
      <point x="131" y="722" type="curve"/>
      <point x="131" y="481"/>
      <point x="132" y="241"/>
      <point x="131" y="0" type="curve"/>
      <point x="157" y="0"/>
      <point x="131" y="0"/>
    </contour>
    <contour>
      <point x="136" y="399" type="curve"/>
      <point x="179" y="399"/>
      <point x="201" y="399"/>
      <point x="244" y="399" type="curve"/>
      <point x="340" y="399"/>
      <point x="371" y="312"/>
      <point x="371" y="204" type="curve"/>
      <point x="371" y="98"/>
      <point x="326" y="22"/>
      <point x="228" y="22" type="curve"/>
      <point x="191" y="22"/>
      <point x="173" y="22"/>
      <point x="136" y="22" type="curve"/>
      <point x="136" y="16"/>
      <point x="136" y="6"/>
      <point x="136" y="0" type="curve"/>
      <point x="173" y="0"/>
      <point x="191" y="0"/>
      <point x="228" y="0" type="curve"/>
      <point x="340" y="0"/>
      <point x="395" y="84"/>
      <point x="395" y="204" type="curve"/>
      <point x="395" y="328"/>
      <point x="351" y="421"/>
      <point x="236" y="421" type="curve"/>
      <point x="199" y="421"/>
      <point x="173" y="421"/>
      <point x="136" y="421" type="curve"/>
      <point x="136" y="415"/>
      <point x="136" y="405"/>
    </contour>
  </outline>
</glyph>
<glyph name="C" format="1">
  <advance width="462"/>
  <unicode hex="0043"/>
  <outline>
    <contour>
      <point x="264" y="825" type="move" name="top"/>
    </contour>
    <contour>
      <point x="253" y="-7" type="move" name="bottom"/>
    </contour>
    <contour>
      <point x="382" y="655" type="curve"/>
      <point x="382" y="535"/>
      <point x="382" y="655"/>
      <point x="382" y="535" type="curve"/>
      <point x="404" y="535"/>
      <point x="382" y="535"/>
      <point x="404" y="535" type="curve"/>
      <point x="404" y="655"/>
      <point x="404" y="535"/>
      <point x="404" y="655" type="curve"/>
      <point x="382" y="655"/>
      <point x="404" y="655"/>
    </contour>
    <contour>
      <point x="404" y="655" type="curve"/>
      <point x="367" y="694"/>
      <point x="322" y="727"/>
      <point x="265" y="727" type="curve"/>
      <point x="92" y="727"/>
      <point x="67" y="553"/>
      <point x="67" y="344" type="curve"/>
      <point x="67" y="154"/>
      <point x="93" y="-5"/>
      <point x="252" y="-5" type="curve"/>
      <point x="329" y="-5"/>
      <point x="372" y="35"/>
      <point x="416" y="96" type="curve"/>
      <point x="400" y="113"/>
      <point x="415" y="96"/>
      <point x="399" y="113" type="curve"/>
      <point x="360" y="59"/>
      <point x="322" y="21"/>
      <point x="253" y="21" type="curve"/>
      <point x="109" y="21"/>
      <point x="91" y="170"/>
      <point x="91" y="345" type="curve"/>
      <point x="91" y="537"/>
      <point x="111" y="703"/>
      <point x="264" y="703" type="curve"/>
      <point x="316" y="703"/>
      <point x="358" y="673"/>
      <point x="391" y="638" type="curve"/>
      <point x="404" y="655"/>
      <point x="391" y="638"/>
    </contour>
  </outline>
</glyph>
<glyph name="M" format="1">
  <advance width="673"/>
  <unicode hex="004D"/>
  <outline>
    <contour>
      <point x="545" y="0" type="curve"/>
      <point x="587" y="0"/>
      <point x="607" y="0"/>
      <point x="649" y="0" type="curve"/>
      <point x="649" y="22"/>
      <point x="649" y="0"/>
      <point x="649" y="22" type="curve"/>
      <point x="522" y="22"/>
      <point x="672" y="22"/>
      <point x="545" y="22" type="curve"/>
      <point x="545" y="0"/>
      <point x="545" y="22"/>
    </contour>
    <contour>
      <point x="545" y="22" type="curve"/>
      <point x="418" y="22"/>
      <point x="568" y="22"/>
      <point x="441" y="22" type="curve"/>
      <point x="441" y="0"/>
      <point x="441" y="22"/>
      <point x="441" y="0" type="curve"/>
      <point x="483" y="0"/>
      <point x="502" y="0"/>
      <point x="545" y="0" type="curve"/>
      <point x="545" y="22"/>
      <point x="545" y="0"/>
    </contour>
    <contour>
      <point x="129" y="22" type="curve"/>
      <point x="3" y="22"/>
      <point x="152" y="22"/>
      <point x="26" y="22" type="curve"/>
      <point x="26" y="0"/>
      <point x="26" y="22"/>
      <point x="26" y="0" type="curve"/>
      <point x="68" y="0"/>
      <point x="87" y="0"/>
      <point x="129" y="0" type="curve"/>
      <point x="129" y="22"/>
      <point x="129" y="0"/>
    </contour>
    <contour>
      <point x="166" y="722" type="curve"/>
      <point x="122" y="722"/>
      <point x="103" y="722"/>
      <point x="61" y="722" type="curve"/>
      <point x="61" y="700"/>
      <point x="61" y="722"/>
      <point x="61" y="700" type="curve"/>
      <point x="189" y="700"/>
      <point x="38" y="700"/>
      <point x="166" y="700" type="curve"/>
      <point x="166" y="722"/>
      <point x="166" y="700"/>
    </contour>
    <contour>
      <point x="508" y="700" type="curve"/>
      <point x="635" y="700"/>
      <point x="485" y="700"/>
      <point x="612" y="700" type="curve"/>
      <point x="612" y="722"/>
      <point x="612" y="700"/>
      <point x="612" y="722" type="curve"/>
      <point x="569" y="722"/>
      <point x="550" y="722"/>
      <point x="508" y="722" type="curve"/>
      <point x="508" y="700"/>
      <point x="508" y="722"/>
    </contour>
    <contour>
      <point x="129" y="0" type="curve"/>
      <point x="172" y="0"/>
      <point x="106" y="0"/>
      <point x="233" y="0" type="curve"/>
      <point x="233" y="22"/>
      <point x="233" y="0"/>
      <point x="233" y="22" type="curve"/>
      <point x="106" y="22"/>
      <point x="256" y="22"/>
      <point x="129" y="22" type="curve"/>
      <point x="129" y="0"/>
      <point x="129" y="22"/>
    </contour>
    <contour>
      <point x="556" y="0" type="curve"/>
      <point x="543" y="241"/>
      <point x="531" y="481"/>
      <point x="518" y="722" type="curve"/>
      <point x="496" y="722"/>
      <point x="518" y="722"/>
      <point x="496" y="722" type="curve"/>
      <point x="508" y="481"/>
      <point x="520" y="241"/>
      <point x="532" y="0" type="curve"/>
      <point x="556" y="0"/>
      <point x="532" y="0"/>
    </contour>
    <contour>
      <point x="141" y="0" type="curve"/>
      <point x="153" y="241"/>
      <point x="164" y="481"/>
      <point x="175" y="722" type="curve"/>
      <point x="153" y="722"/>
      <point x="175" y="722"/>
      <point x="153" y="722" type="curve"/>
      <point x="141" y="481"/>
      <point x="129" y="241"/>
      <point x="116" y="0" type="curve"/>
      <point x="141" y="0"/>
      <point x="116" y="0"/>
    </contour>
    <contour>
      <point x="346" y="0" type="curve"/>
      <point x="289" y="241"/>
      <point x="232" y="481"/>
      <point x="176" y="722" type="curve"/>
      <point x="153" y="722"/>
      <point x="177" y="722"/>
      <point x="153" y="722" type="curve"/>
      <point x="210" y="481"/>
      <point x="266" y="241"/>
      <point x="322" y="0" type="curve"/>
      <point x="346" y="0"/>
      <point x="322" y="0"/>
    </contour>
    <contour>
      <point x="352" y="0" type="curve"/>
      <point x="407" y="241"/>
      <point x="462" y="481"/>
      <point x="517" y="722" type="curve"/>
      <point x="495" y="722"/>
      <point x="518" y="722"/>
      <point x="496" y="722" type="curve"/>
      <point x="440" y="481"/>
      <point x="384" y="241"/>
      <point x="328" y="0" type="curve"/>
      <point x="353" y="0"/>
      <point x="327" y="0"/>
    </contour>
  </outline>
</glyph>
<glyph name="P" format="1">
  <advance width="430"/>
  <unicode hex="0050"/>
  <outline>
    <contour>
      <point x="144" y="722" type="curve"/>
      <point x="102" y="722"/>
      <point x="83" y="722"/>
      <point x="41" y="722" type="curve"/>
      <point x="41" y="700"/>
      <point x="41" y="722"/>
      <point x="41" y="700" type="curve"/>
      <point x="167" y="700"/>
      <point x="18" y="700"/>
      <point x="144" y="700" type="curve"/>
      <point x="144" y="722"/>
      <point x="144" y="700"/>
    </contour>
    <contour>
      <point x="144" y="22" type="curve"/>
      <point x="18" y="22"/>
      <point x="167" y="22"/>
      <point x="41" y="22" type="curve"/>
      <point x="41" y="0"/>
      <point x="41" y="22"/>
      <point x="41" y="0" type="curve"/>
      <point x="83" y="0"/>
      <point x="102" y="0"/>
      <point x="144" y="0" type="curve"/>
      <point x="144" y="22"/>
      <point x="144" y="0"/>
    </contour>
    <contour>
      <point x="144" y="0" type="curve"/>
      <point x="187" y="0"/>
      <point x="121" y="0"/>
      <point x="248" y="0" type="curve"/>
      <point x="248" y="22"/>
      <point x="248" y="0"/>
      <point x="248" y="22" type="curve"/>
      <point x="121" y="22"/>
      <point x="271" y="22"/>
      <point x="144" y="22" type="curve"/>
      <point x="144" y="0"/>
      <point x="144" y="22"/>
    </contour>
    <contour>
      <point x="141" y="325" type="curve"/>
      <point x="167" y="300"/>
      <point x="199" y="280"/>
      <point x="237" y="280" type="curve"/>
      <point x="337" y="282"/>
      <point x="374" y="372"/>
      <point x="374" y="494" type="curve"/>
      <point x="374" y="616"/>
      <point x="331" y="722"/>
      <point x="224" y="722" type="curve"/>
      <point x="198" y="722"/>
      <point x="172" y="722"/>
      <point x="146" y="722" type="curve"/>
      <point x="146" y="700"/>
      <point x="146" y="722"/>
      <point x="146" y="700" type="curve"/>
      <point x="171" y="700"/>
      <point x="196" y="700"/>
      <point x="221" y="700" type="curve"/>
      <point x="316" y="700"/>
      <point x="350" y="603"/>
      <point x="350" y="493" type="curve"/>
      <point x="350" y="392"/>
      <point x="323" y="303"/>
      <point x="238" y="303" type="curve"/>
      <point x="200" y="303"/>
      <point x="177" y="320"/>
      <point x="149" y="346" type="curve"/>
      <point x="141" y="326"/>
      <point x="149" y="345"/>
    </contour>
    <contour>
      <point x="155" y="0" type="curve"/>
      <point x="155" y="241"/>
      <point x="155" y="481"/>
      <point x="155" y="722" type="curve"/>
      <point x="131" y="722"/>
      <point x="155" y="722"/>
      <point x="131" y="722" type="curve"/>
      <point x="131" y="481"/>
      <point x="131" y="241"/>
      <point x="131" y="0" type="curve"/>
      <point x="155" y="0"/>
      <point x="131" y="0"/>
    </contour>
  </outline>
</glyph>
<glyph name="S" format="1">
  <advance width="402"/>
  <unicode hex="0053"/>
  <outline>
    <contour>
      <point x="204" y="825" type="move" name="top"/>
    </contour>
    <contour>
      <point x="186" y="-92" type="move" name="bottom"/>
    </contour>
    <contour>
      <point x="287" y="663" type="curve"/>
      <point x="287" y="543"/>
      <point x="287" y="675"/>
      <point x="287" y="555" type="curve"/>
      <point x="309" y="555"/>
      <point x="287" y="555"/>
      <point x="309" y="555" type="curve"/>
      <point x="309" y="675"/>
      <point x="309" y="543"/>
      <point x="309" y="663" type="curve"/>
      <point x="287" y="663"/>
      <point x="309" y="663"/>
    </contour>
    <contour>
      <point x="91" y="58" type="curve"/>
      <point x="91" y="178"/>
      <point x="91" y="47"/>
      <point x="91" y="167" type="curve"/>
      <point x="69" y="167"/>
      <point x="91" y="167"/>
      <point x="69" y="167" type="curve"/>
      <point x="69" y="47"/>
      <point x="69" y="178"/>
      <point x="69" y="58" type="curve"/>
      <point x="91" y="58"/>
      <point x="69" y="58"/>
    </contour>
    <contour>
      <point x="69" y="58" type="curve"/>
      <point x="93" y="26"/>
      <point x="133" y="-5"/>
      <point x="186" y="-5" type="curve"/>
      <point x="281" y="-5"/>
      <point x="331" y="67"/>
      <point x="331" y="169" type="curve"/>
      <point x="331" y="268"/>
      <point x="288" y="327"/>
      <point x="211" y="389" type="curve"/>
      <point x="146" y="439"/>
      <point x="107" y="484"/>
      <point x="107" y="563" type="curve"/>
      <point x="107" y="642"/>
      <point x="132" y="704"/>
      <point x="199" y="704" type="curve"/>
      <point x="241" y="704"/>
      <point x="284" y="672"/>
      <point x="297" y="645" type="curve"/>
      <point x="301" y="650"/>
      <point x="306" y="659"/>
      <point x="309" y="663" type="curve"/>
      <point x="283" y="700"/>
      <point x="250" y="726"/>
      <point x="200" y="726" type="curve"/>
      <point x="116" y="726"/>
      <point x="81" y="656"/>
      <point x="81" y="562" type="curve"/>
      <point x="81" y="474"/>
      <point x="124" y="425"/>
      <point x="194" y="370" type="curve"/>
      <point x="266" y="315"/>
      <point x="307" y="260"/>
      <point x="307" y="169" type="curve"/>
      <point x="307" y="87"/>
      <point x="259" y="17"/>
      <point x="188" y="17" type="curve"/>
      <point x="139" y="17"/>
      <point x="104" y="49"/>
      <point x="82" y="78" type="curve"/>
      <point x="79" y="72"/>
      <point x="73" y="64"/>
    </contour>
  </outline>
</glyph>
<glyph name="bracketleft" format="1">
  <advance width="219"/>
  <unicode hex="005B"/>
  <outline>
    <contour>
      <point x="180" y="771" type="curve"/>
      <point x="150" y="771"/>
      <point x="119" y="771"/>
      <point x="88" y="771" type="curve"/>
      <point x="86" y="771"/>
      <point x="82" y="771"/>
      <point x="80" y="771" type="curve"/>
      <point x="80" y="769"/>
      <point x="80" y="767"/>
      <point x="80" y="765" type="curve"/>
      <point x="80" y="470"/>
      <point x="80" y="175"/>
      <point x="80" y="-120" type="curve"/>
      <point x="80" y="-121"/>
      <point x="80" y="-123"/>
      <point x="80" y="-124" type="curve"/>
      <point x="83" y="-124"/>
      <point x="86" y="-124"/>
      <point x="87" y="-124" type="curve"/>
      <point x="118" y="-124"/>
      <point x="149" y="-124"/>
      <point x="180" y="-124" type="curve"/>
      <point x="180" y="-100"/>
      <point x="180" y="-124"/>
      <point x="180" y="-100" type="curve"/>
      <point x="149" y="-100"/>
      <point x="118" y="-100"/>
      <point x="87" y="-100" type="curve"/>
      <point x="104" y="-100"/>
      <point x="87" y="-100"/>
      <point x="104" y="-100" type="curve"/>
      <point x="104" y="-120"/>
      <point x="104" y="-100"/>
      <point x="104" y="-120" type="curve"/>
      <point x="104" y="175"/>
      <point x="104" y="470"/>
      <point x="104" y="765" type="curve"/>
      <point x="104" y="747"/>
      <point x="104" y="765"/>
      <point x="104" y="747" type="curve"/>
      <point x="88" y="747"/>
      <point x="104" y="747"/>
      <point x="88" y="747" type="curve"/>
      <point x="119" y="747"/>
      <point x="150" y="747"/>
      <point x="180" y="747" type="curve"/>
      <point x="180" y="771"/>
      <point x="180" y="747"/>
    </contour>
  </outline>
</glyph>
<glyph name="underscore" format="1">
  <advance width="411"/>
  <unicode hex="005F"/>
  <outline>
    <contour>
      <point x="-1" y="-210" type="curve"/>
      <point x="137" y="-210"/>
      <point x="274" y="-210"/>
      <point x="411" y="-210" type="curve"/>
      <point x="411" y="-188"/>
      <point x="411" y="-210"/>
      <point x="411" y="-188" type="curve"/>
      <point x="274" y="-188"/>
      <point x="137" y="-188"/>
      <point x="-1" y="-188" type="curve"/>
      <point x="-1" y="-210"/>
      <point x="-1" y="-188"/>
    </contour>
  </outline>
</glyph>
<glyph name="grave" format="1">
  <advance width="323"/>
  <unicode hex="0060"/>
  <outline>
    <contour>
      <point x="121" y="590" type="move" name="_top"/>
    </contour>
    <contour>
      <point x="134" y="590" type="line"/>
      <point x="86" y="756" type="line"/>
      <point x="57" y="756" type="line"/>
      <point x="111" y="590" type="line"/>
    </contour>
  </outline>
</glyph>
<glyph name="b" format="1">
  <advance width="440"/>
  <unicode hex="0062"/>
  <outline>
    <contour>
      <point x="110" y="800" type="curve"/>
      <point x="73" y="800"/>
      <point x="44" y="800"/>
      <point x="7" y="800" type="curve"/>
      <point x="7" y="778"/>
      <point x="7" y="800"/>
      <point x="7" y="778" type="curve"/>
      <point x="121" y="778"/>
      <point x="-3" y="778"/>
      <point x="110" y="778" type="curve"/>
      <point x="110" y="800"/>
      <point x="110" y="778"/>
    </contour>
    <contour>
      <point x="116" y="405" type="curve"/>
      <point x="124" y="449"/>
      <point x="168" y="516"/>
      <point x="231" y="516" type="curve"/>
      <point x="331" y="516"/>
      <point x="353" y="396"/>
      <point x="353" y="270" type="curve"/>
      <point x="353" y="149"/>
      <point x="323" y="17"/>
      <point x="231" y="17" type="curve"/>
      <point x="178" y="17"/>
      <point x="133" y="74"/>
      <point x="116" y="140" type="curve"/>
      <point x="99" y="126"/>
      <point x="120" y="134"/>
      <point x="103" y="120" type="curve"/>
      <point x="122" y="53"/>
      <point x="167" y="-5"/>
      <point x="231" y="-5" type="curve"/>
      <point x="350" y="-5"/>
      <point x="377" y="126"/>
      <point x="377" y="271" type="curve"/>
      <point x="377" y="409"/>
      <point x="353" y="538"/>
      <point x="231" y="538" type="curve"/>
      <point x="158" y="538"/>
      <point x="112" y="478"/>
      <point x="104" y="430" type="curve"/>
      <point x="116" y="413"/>
      <point x="104" y="422"/>
    </contour>
    <contour>
      <point x="120" y="0" type="curve"/>
      <point x="120" y="267"/>
      <point x="120" y="533"/>
      <point x="120" y="800" type="curve"/>
      <point x="96" y="800"/>
      <point x="120" y="800"/>
      <point x="96" y="800" type="curve"/>
      <point x="96" y="533"/>
      <point x="96" y="267"/>
      <point x="96" y="0" type="curve"/>
      <point x="120" y="0"/>
      <point x="96" y="0"/>
    </contour>
    <contour>
      <point x="110" y="22" type="curve"/>
      <point x="-3" y="22"/>
      <point x="121" y="22"/>
      <point x="7" y="22" type="curve"/>
      <point x="7" y="0"/>
      <point x="7" y="22"/>
      <point x="7" y="0" type="curve"/>
      <point x="44" y="0"/>
      <point x="73" y="0"/>
      <point x="110" y="0" type="curve"/>
      <point x="110" y="22"/>
      <point x="110" y="0"/>
    </contour>
  </outline>
</glyph>
<glyph name="t" format="1">
  <advance width="276"/>
  <unicode hex="0074"/>
  <outline>
    <contour>
      <point x="175" y="-92" type="move" name="bottom"/>
    </contour>
    <contour>
      <point x="20" y="511" type="curve"/>
      <point x="256" y="511" type="line"/>
      <point x="256" y="533"/>
      <point x="256" y="511"/>
      <point x="256" y="533" type="curve"/>
      <point x="20" y="533" type="line"/>
      <point x="20" y="511"/>
      <point x="20" y="533"/>
    </contour>
    <contour>
      <point x="239" y="46" type="curve"/>
      <point x="222" y="30"/>
      <point x="206" y="19"/>
      <point x="183" y="19" type="curve"/>
      <point x="131" y="19"/>
      <point x="125" y="75"/>
      <point x="125" y="145" type="curve"/>
      <point x="125" y="682" type="line"/>
      <point x="128" y="684"/>
      <point x="97" y="655"/>
      <point x="101" y="657" type="curve"/>
      <point x="101" y="143" type="line"/>
      <point x="101" y="58"/>
      <point x="111" y="-5"/>
      <point x="181" y="-5" type="curve"/>
      <point x="209" y="-5"/>
      <point x="229" y="4"/>
      <point x="251" y="23" type="curve"/>
      <point x="239" y="46"/>
      <point x="251" y="23"/>
    </contour>
  </outline>
</glyph>
<glyph name="w" format="1">
  <advance width="652"/>
  <unicode hex="0077"/>
  <outline>
    <contour>
      <point x="547" y="511" type="curve"/>
      <point x="661" y="511"/>
      <point x="536" y="511"/>
      <point x="650" y="511" type="curve"/>
      <point x="650" y="533"/>
      <point x="650" y="511"/>
      <point x="650" y="533" type="curve"/>
      <point x="613" y="533"/>
      <point x="584" y="533"/>
      <point x="547" y="533" type="curve"/>
      <point x="547" y="511"/>
      <point x="547" y="533"/>
    </contour>
    <contour>
      <point x="547" y="533" type="curve"/>
      <point x="509" y="533"/>
      <point x="504" y="533"/>
      <point x="466" y="533" type="curve"/>
      <point x="466" y="511"/>
      <point x="466" y="533"/>
      <point x="466" y="511" type="curve"/>
      <point x="578" y="511"/>
      <point x="435" y="511"/>
      <point x="547" y="511" type="curve"/>
      <point x="547" y="533"/>
      <point x="547" y="511"/>
    </contour>
    <contour>
      <point x="104" y="533" type="curve"/>
      <point x="67" y="533"/>
      <point x="39" y="533"/>
      <point x="1" y="533" type="curve"/>
      <point x="1" y="511"/>
      <point x="1" y="533"/>
      <point x="1" y="511" type="curve"/>
      <point x="115" y="511"/>
      <point x="-9" y="511"/>
      <point x="104" y="511" type="curve"/>
      <point x="104" y="533"/>
      <point x="104" y="511"/>
    </contour>
    <contour>
      <point x="104" y="511" type="curve"/>
      <point x="217" y="511"/>
      <point x="84" y="511"/>
      <point x="196" y="511" type="curve"/>
      <point x="196" y="533"/>
      <point x="196" y="511"/>
      <point x="196" y="533" type="curve"/>
      <point x="159" y="533"/>
      <point x="142" y="533"/>
      <point x="104" y="533" type="curve"/>
      <point x="104" y="511"/>
      <point x="104" y="533"/>
    </contour>
    <contour>
      <point x="218" y="0" type="curve"/>
      <point x="259" y="178"/>
      <point x="300" y="355"/>
      <point x="341" y="533" type="curve"/>
      <point x="314" y="533"/>
      <point x="341" y="533"/>
      <point x="314" y="533" type="curve"/>
      <point x="275" y="355"/>
      <point x="234" y="178"/>
      <point x="195" y="0" type="curve"/>
      <point x="218" y="0"/>
      <point x="195" y="0"/>
    </contour>
    <contour>
      <point x="541" y="533" type="curve"/>
      <point x="505" y="355"/>
      <point x="467" y="178"/>
      <point x="430" y="0" type="curve"/>
      <point x="453" y="0"/>
      <point x="430" y="0"/>
      <point x="453" y="0" type="curve"/>
      <point x="492" y="178"/>
      <point x="530" y="355"/>
      <point x="569" y="533" type="curve"/>
      <point x="541" y="533"/>
      <point x="569" y="533"/>
    </contour>
    <contour>
      <point x="319" y="533" type="curve"/>
      <point x="356" y="355"/>
      <point x="392" y="178"/>
      <point x="429" y="0" type="curve"/>
      <point x="452" y="0"/>
      <point x="429" y="0"/>
      <point x="452" y="0" type="curve"/>
      <point x="416" y="178"/>
      <point x="380" y="355"/>
      <point x="344" y="533" type="curve"/>
      <point x="319" y="533"/>
      <point x="344" y="533"/>
    </contour>
    <contour>
      <point x="84" y="533" type="curve"/>
      <point x="121" y="355"/>
      <point x="158" y="178"/>
      <point x="194" y="0" type="curve"/>
      <point x="217" y="0"/>
      <point x="194" y="0"/>
      <point x="217" y="0" type="curve"/>
      <point x="181" y="178"/>
      <point x="146" y="355"/>
      <point x="110" y="533" type="curve"/>
      <point x="84" y="533"/>
      <point x="110" y="533"/>
    </contour>
  </outline>
</glyph>
<glyph name="x" format="1">
  <advance width="467"/>
  <unicode hex="0078"/>
  <outline>
    <contour>
      <point x="108" y="22" type="curve"/>
      <point x="-5" y="22"/>
      <point x="119" y="22"/>
      <point x="5" y="22" type="curve"/>
      <point x="5" y="0"/>
      <point x="5" y="22"/>
      <point x="5" y="0" type="curve"/>
      <point x="43" y="0"/>
      <point x="71" y="0"/>
      <point x="108" y="0" type="curve"/>
      <point x="108" y="22"/>
      <point x="108" y="0"/>
    </contour>
    <contour>
      <point x="357" y="22" type="curve"/>
      <point x="257" y="22"/>
      <point x="377" y="22"/>
      <point x="277" y="22" type="curve"/>
      <point x="277" y="0"/>
      <point x="277" y="22"/>
      <point x="277" y="0" type="curve"/>
      <point x="310" y="0"/>
      <point x="325" y="0"/>
      <point x="357" y="0" type="curve"/>
      <point x="357" y="22"/>
      <point x="357" y="0"/>
    </contour>
    <contour>
      <point x="357" y="0" type="curve"/>
      <point x="395" y="0"/>
      <point x="423" y="0"/>
      <point x="461" y="0" type="curve"/>
      <point x="461" y="22"/>
      <point x="461" y="0"/>
      <point x="461" y="22" type="curve"/>
      <point x="347" y="22"/>
      <point x="471" y="22"/>
      <point x="357" y="22" type="curve"/>
      <point x="357" y="0"/>
      <point x="357" y="22"/>
    </contour>
    <contour>
      <point x="108" y="0" type="curve"/>
      <point x="141" y="0"/>
      <point x="89" y="0"/>
      <point x="189" y="0" type="curve"/>
      <point x="189" y="22"/>
      <point x="189" y="0"/>
      <point x="189" y="22" type="curve"/>
      <point x="89" y="22"/>
      <point x="208" y="22"/>
      <point x="108" y="22" type="curve"/>
      <point x="108" y="0"/>
      <point x="108" y="22"/>
    </contour>
    <contour>
      <point x="347" y="511" type="curve"/>
      <point x="462" y="511"/>
      <point x="337" y="511"/>
      <point x="452" y="511" type="curve"/>
      <point x="452" y="533"/>
      <point x="452" y="511"/>
      <point x="452" y="533" type="curve"/>
      <point x="413" y="533"/>
      <point x="384" y="533"/>
      <point x="347" y="533" type="curve"/>
      <point x="347" y="511"/>
      <point x="347" y="533"/>
    </contour>
    <contour>
      <point x="121" y="533" type="curve"/>
      <point x="83" y="533"/>
      <point x="55" y="533"/>
      <point x="17" y="533" type="curve"/>
      <point x="17" y="511"/>
      <point x="17" y="533"/>
      <point x="17" y="511" type="curve"/>
      <point x="131" y="511"/>
      <point x="7" y="511"/>
      <point x="121" y="511" type="curve"/>
      <point x="121" y="533"/>
      <point x="121" y="511"/>
    </contour>
    <contour>
      <point x="121" y="511" type="curve"/>
      <point x="218" y="511"/>
      <point x="92" y="511"/>
      <point x="189" y="511" type="curve"/>
      <point x="189" y="533"/>
      <point x="189" y="511"/>
      <point x="189" y="533" type="curve"/>
      <point x="157" y="533"/>
      <point x="154" y="533"/>
      <point x="121" y="533" type="curve"/>
      <point x="121" y="511"/>
      <point x="121" y="533"/>
    </contour>
    <contour>
      <point x="347" y="533" type="curve"/>
      <point x="314" y="533"/>
      <point x="311" y="533"/>
      <point x="278" y="533" type="curve"/>
      <point x="278" y="511"/>
      <point x="278" y="533"/>
      <point x="278" y="511" type="curve"/>
      <point x="376" y="511"/>
      <point x="249" y="511"/>
      <point x="347" y="511" type="curve"/>
      <point x="347" y="533"/>
      <point x="347" y="511"/>
    </contour>
    <contour>
      <point x="380" y="0" type="curve"/>
      <point x="296" y="178"/>
      <point x="212" y="355"/>
      <point x="128" y="533" type="curve"/>
      <point x="101" y="533"/>
      <point x="128" y="533"/>
      <point x="101" y="533" type="curve"/>
      <point x="185" y="355"/>
      <point x="268" y="178"/>
      <point x="351" y="0" type="curve"/>
      <point x="380" y="0"/>
      <point x="351" y="0"/>
    </contour>
    <contour>
      <point x="342" y="533" type="curve"/>
      <point x="256" y="355"/>
      <point x="171" y="178"/>
      <point x="87" y="0" type="curve"/>
      <point x="116" y="0"/>
      <point x="87" y="0"/>
      <point x="116" y="0" type="curve"/>
      <point x="201" y="178"/>
      <point x="284" y="355"/>
      <point x="368" y="533" type="curve"/>
      <point x="342" y="533"/>
      <point x="368" y="533"/>
    </contour>
  </outline>
</glyph>
<glyph name="y" format="1">
  <advance width="480"/>
  <unicode hex="0079"/>
  <outline>
    <contour>
      <point x="265" y="672" type="move" name="top"/>
    </contour>
    <contour>
      <point x="167" y="-278" type="curve"/>
      <point x="52" y="-278"/>
      <point x="177" y="-278"/>
      <point x="63" y="-278" type="curve"/>
      <point x="63" y="-300"/>
      <point x="63" y="-278"/>
      <point x="63" y="-300" type="curve"/>
      <point x="100" y="-300"/>
      <point x="129" y="-300"/>
      <point x="167" y="-300" type="curve"/>
      <point x="167" y="-278"/>
      <point x="167" y="-300"/>
    </contour>
    <contour>
      <point x="108" y="533" type="curve"/>
      <point x="71" y="533"/>
      <point x="42" y="533"/>
      <point x="5" y="533" type="curve"/>
      <point x="5" y="511"/>
      <point x="5" y="533"/>
      <point x="5" y="511" type="curve"/>
      <point x="119" y="511"/>
      <point x="-5" y="511"/>
      <point x="108" y="511" type="curve"/>
      <point x="108" y="533"/>
      <point x="108" y="511"/>
    </contour>
    <contour>
      <point x="108" y="511" type="curve"/>
      <point x="211" y="511"/>
      <point x="98" y="511"/>
      <point x="200" y="511" type="curve"/>
      <point x="200" y="533"/>
      <point x="200" y="511"/>
      <point x="200" y="533" type="curve"/>
      <point x="166" y="533"/>
      <point x="142" y="533"/>
      <point x="108" y="533" type="curve"/>
      <point x="108" y="511"/>
      <point x="108" y="533"/>
    </contour>
    <contour>
      <point x="373" y="533" type="curve"/>
      <point x="343" y="533"/>
      <point x="322" y="533"/>
      <point x="292" y="533" type="curve"/>
      <point x="292" y="511"/>
      <point x="292" y="533"/>
      <point x="292" y="511" type="curve"/>
      <point x="383" y="511"/>
      <point x="282" y="511"/>
      <point x="373" y="511" type="curve"/>
      <point x="373" y="533"/>
      <point x="373" y="511"/>
    </contour>
    <contour>
      <point x="373" y="511" type="curve"/>
      <point x="484" y="511"/>
      <point x="363" y="511"/>
      <point x="474" y="511" type="curve"/>
      <point x="474" y="533"/>
      <point x="474" y="511"/>
      <point x="474" y="533" type="curve"/>
      <point x="438" y="533"/>
      <point x="410" y="533"/>
      <point x="373" y="533" type="curve"/>
      <point x="373" y="511"/>
      <point x="373" y="533"/>
    </contour>
    <contour>
      <point x="253" y="7" type="curve"/>
      <point x="269" y="-20"/>
      <point x="99" y="559"/>
      <point x="115" y="533" type="curve"/>
      <point x="87" y="533"/>
      <point x="115" y="533"/>
      <point x="87" y="533" type="curve"/>
      <point x="70" y="559"/>
      <point x="246" y="-28"/>
      <point x="230" y="-2" type="curve"/>
      <point x="253" y="-2"/>
      <point x="230" y="7"/>
    </contour>
    <contour>
      <point x="172" y="-300" type="curve"/>
      <point x="145" y="-342"/>
      <point x="421" y="575"/>
      <point x="394" y="533" type="curve"/>
      <point x="367" y="533"/>
      <point x="394" y="533"/>
      <point x="367" y="533" type="curve"/>
      <point x="394" y="575"/>
      <point x="117" y="-342"/>
      <point x="144" y="-300" type="curve"/>
      <point x="172" y="-300"/>
      <point x="144" y="-300"/>
    </contour>
  </outline>
</glyph>
<glyph name="copyright" format="1">
  <advance width="518"/>
  <unicode hex="00A9"/>
  <outline>
    <contour>
      <point x="90" y="319" type="curve"/>
      <point x="90" y="477"/>
      <point x="127" y="625"/>
      <point x="262" y="625" type="curve"/>
      <point x="394" y="625"/>
      <point x="430" y="476"/>
      <point x="430" y="318" type="curve"/>
      <point x="430" y="163"/>
      <point x="396" y="17"/>
      <point x="265" y="17" type="curve"/>
      <point x="133" y="17"/>
      <point x="90" y="161"/>
      <point x="90" y="319" type="curve"/>
      <point x="65" y="319"/>
      <point x="90" y="319"/>
      <point x="65" y="319" type="curve"/>
      <point x="65" y="150"/>
      <point x="118" y="-5"/>
      <point x="264" y="-5" type="curve"/>
      <point x="409" y="-5"/>
      <point x="454" y="150"/>
      <point x="454" y="319" type="curve"/>
      <point x="454" y="489"/>
      <point x="407" y="646"/>
      <point x="262" y="646" type="curve"/>
      <point x="115" y="646"/>
      <point x="65" y="490"/>
      <point x="65" y="319" type="curve"/>
      <point x="90" y="319"/>
      <point x="65" y="319"/>
    </contour>
    <contour>
      <point x="315" y="452" type="curve"/>
      <point x="315" y="429"/>
      <point x="315" y="405"/>
      <point x="315" y="381" type="curve"/>
      <point x="338" y="381"/>
      <point x="315" y="381"/>
      <point x="338" y="381" type="curve"/>
      <point x="338" y="409"/>
      <point x="338" y="436"/>
      <point x="338" y="464" type="curve"/>
      <point x="315" y="452"/>
      <point x="338" y="464"/>
    </contour>
    <contour>
      <point x="337" y="464" type="curve"/>
      <point x="316" y="486"/>
      <point x="296" y="496"/>
      <point x="265" y="496" type="curve"/>
      <point x="184" y="496"/>
      <point x="161" y="414"/>
      <point x="161" y="319" type="curve"/>
      <point x="161" y="225"/>
      <point x="179" y="146"/>
      <point x="257" y="146" type="curve"/>
      <point x="295" y="146"/>
      <point x="321" y="161"/>
      <point x="344" y="193" type="curve"/>
      <point x="328" y="207"/>
      <point x="344" y="193"/>
      <point x="328" y="207" type="curve"/>
      <point x="311" y="183"/>
      <point x="290" y="168"/>
      <point x="258" y="168" type="curve"/>
      <point x="193" y="168"/>
      <point x="186" y="241"/>
      <point x="186" y="320" type="curve"/>
      <point x="186" y="401"/>
      <point x="196" y="474"/>
      <point x="264" y="474" type="curve"/>
      <point x="288" y="474"/>
      <point x="301" y="466"/>
      <point x="315" y="452" type="curve"/>
      <point x="337" y="464"/>
      <point x="315" y="452"/>
    </contour>
  </outline>
</glyph>
<glyph name="plusminus" format="1">
  <advance width="606"/>
  <unicode hex="00B1"/>
  <outline>
    <contour>
      <point x="72" y="17" type="line"/>
      <point x="533" y="17" type="line"/>
      <point x="533" y="41" type="line"/>
      <point x="72" y="41" type="line"/>
    </contour>
    <contour>
      <point x="72" y="297" type="curve"/>
      <point x="533" y="297" type="line"/>
      <point x="533" y="321"/>
      <point x="533" y="297"/>
      <point x="533" y="321" type="curve"/>
      <point x="72" y="321" type="line"/>
      <point x="72" y="297"/>
      <point x="72" y="321"/>
    </contour>
    <contour>
      <point x="316" y="18" type="curve"/>
      <point x="316" y="588" type="line"/>
      <point x="292" y="588"/>
      <point x="316" y="588"/>
      <point x="292" y="588" type="curve"/>
      <point x="292" y="18" type="line"/>
      <point x="316" y="18"/>
      <point x="292" y="18"/>
    </contour>
  </outline>
</glyph>
<glyph name="periodcentered" format="1">
  <advance width="205"/>
  <unicode hex="00B7"/>
  <outline>
    <contour>
      <point x="120" y="440" type="curve"/>
      <point x="120" y="451"/>
      <point x="113" y="457"/>
      <point x="102" y="457" type="curve"/>
      <point x="91" y="457"/>
      <point x="85" y="450"/>
      <point x="85" y="440" type="curve"/>
      <point x="124" y="440"/>
      <point x="82" y="440"/>
      <point x="120" y="440" type="curve"/>
      <point x="120" y="429"/>
      <point x="113" y="423"/>
      <point x="102" y="423" type="curve"/>
      <point x="91" y="423"/>
      <point x="85" y="429"/>
      <point x="85" y="440" type="curve"/>
      <point x="124" y="440"/>
      <point x="82" y="440"/>
    </contour>
  </outline>
</glyph>
<glyph name="onesuperior" format="1">
  <advance width="292"/>
  <unicode hex="00B9"/>
  <outline>
    <contour>
      <point x="175" y="679" type="move" name="_top"/>
    </contour>
    <contour>
      <point x="177" y="282" type="move" name="_bottom"/>
    </contour>
    <contour>
      <point x="162" y="276" type="curve"/>
      <point x="194" y="276"/>
      <point x="192" y="276"/>
      <point x="223" y="276" type="curve"/>
      <point x="223" y="298"/>
      <point x="223" y="276"/>
      <point x="223" y="298" type="curve"/>
      <point x="200" y="298"/>
      <point x="210" y="298"/>
      <point x="186" y="298" type="curve"/>
      <point x="162" y="276"/>
      <point x="186" y="298"/>
    </contour>
    <contour>
      <point x="186" y="298" type="curve"/>
      <point x="155" y="298"/>
      <point x="156" y="298"/>
      <point x="124" y="298" type="curve"/>
      <point x="124" y="276"/>
      <point x="124" y="298"/>
      <point x="124" y="276" type="curve"/>
      <point x="148" y="276"/>
      <point x="138" y="276"/>
      <point x="162" y="276" type="curve"/>
      <point x="186" y="298"/>
      <point x="162" y="276"/>
    </contour>
    <contour>
      <point x="99" y="554" type="line"/>
      <point x="184" y="673" type="line"/>
      <point x="162" y="682" type="line"/>
      <point x="79" y="568" type="line"/>
    </contour>
    <contour>
      <point x="186" y="298" type="curve"/>
      <point x="186" y="682" type="line"/>
      <point x="162" y="682" type="line"/>
      <point x="162" y="276" type="line"/>
      <point x="186" y="298"/>
      <point x="162" y="276"/>
    </contour>
  </outline>
</glyph>
<glyph name="questiondown" format="1">
  <advance width="369"/>
  <unicode hex="00BF"/>
  <outline>
    <contour>
      <point x="207" y="374" type="curve"/>
      <point x="207" y="411"/>
      <point x="207" y="450"/>
      <point x="207" y="487" type="curve"/>
      <point x="183" y="487"/>
      <point x="207" y="487"/>
      <point x="183" y="487" type="curve"/>
      <point x="183" y="450"/>
      <point x="183" y="411"/>
      <point x="183" y="374" type="curve"/>
      <point x="207" y="374"/>
      <point x="183" y="374"/>
    </contour>
    <contour>
      <point x="287" y="88" type="line"/>
      <point x="272" y="52"/>
      <point x="245" y="21"/>
      <point x="197" y="21" type="curve"/>
      <point x="116" y="21"/>
      <point x="90" y="100"/>
      <point x="90" y="189" type="curve"/>
      <point x="90" y="286"/>
      <point x="117" y="374"/>
      <point x="201" y="374" type="curve"/>
      <point x="201" y="399"/>
      <point x="201" y="372"/>
      <point x="201" y="397" type="curve"/>
      <point x="103" y="397"/>
      <point x="65" y="300"/>
      <point x="65" y="189" type="curve"/>
      <point x="65" y="88"/>
      <point x="103" y="-2"/>
      <point x="195" y="-2" type="curve"/>
      <point x="258" y="-2"/>
      <point x="287" y="34"/>
      <point x="306" y="77" type="curve"/>
    </contour>
    <contour>
      <point x="178" y="696" type="curve"/>
      <point x="178" y="685"/>
      <point x="185" y="678"/>
      <point x="196" y="678" type="curve"/>
      <point x="207" y="678"/>
      <point x="214" y="686"/>
      <point x="214" y="696" type="curve"/>
      <point x="178" y="696"/>
      <point x="214" y="696"/>
      <point x="178" y="696" type="curve"/>
      <point x="178" y="707"/>
      <point x="185" y="713"/>
      <point x="196" y="713" type="curve"/>
      <point x="207" y="713"/>
      <point x="214" y="707"/>
      <point x="214" y="696" type="curve"/>
      <point x="178" y="696"/>
      <point x="214" y="696"/>
    </contour>
  </outline>
</glyph>
<glyph name="Agrave" format="1">
  <advance width="531"/>
  <unicode hex="00C0"/>
  <outline>
    <contour>
      <point x="82" y="22" type="curve"/>
      <point x="-46" y="22"/>
      <point x="105" y="22"/>
      <point x="-23" y="22" type="curve"/>
      <point x="-23" y="0"/>
      <point x="-23" y="22"/>
      <point x="-23" y="0" type="curve"/>
      <point x="20" y="0"/>
      <point x="39" y="0"/>
      <point x="82" y="0" type="curve"/>
      <point x="82" y="22"/>
      <point x="82" y="0"/>
    </contour>
    <contour>
      <point x="82" y="0" type="curve"/>
      <point x="127" y="0"/>
      <point x="59" y="0"/>
      <point x="192" y="0" type="curve"/>
      <point x="192" y="22"/>
      <point x="192" y="0"/>
      <point x="192" y="22" type="curve"/>
      <point x="59" y="22"/>
      <point x="215" y="22"/>
      <point x="82" y="22" type="curve"/>
      <point x="82" y="0"/>
      <point x="82" y="22"/>
    </contour>
    <contour>
      <point x="412" y="0" type="curve"/>
      <point x="455" y="0"/>
      <point x="474" y="0"/>
      <point x="517" y="0" type="curve"/>
      <point x="517" y="22"/>
      <point x="517" y="0"/>
      <point x="517" y="22" type="curve"/>
      <point x="389" y="22"/>
      <point x="540" y="22"/>
      <point x="412" y="22" type="curve"/>
      <point x="412" y="0"/>
      <point x="412" y="22"/>
    </contour>
    <contour>
      <point x="412" y="22" type="curve"/>
      <point x="278" y="22"/>
      <point x="435" y="22"/>
      <point x="301" y="22" type="curve"/>
      <point x="301" y="0"/>
      <point x="301" y="22"/>
      <point x="301" y="0" type="curve"/>
      <point x="345" y="0"/>
      <point x="367" y="0"/>
      <point x="412" y="0" type="curve"/>
      <point x="412" y="22"/>
      <point x="412" y="0"/>
    </contour>
    <contour>
      <point x="355" y="277" type="curve"/>
      <point x="286" y="277"/>
      <point x="218" y="277"/>
      <point x="148" y="277" type="curve"/>
      <point x="138" y="254"/>
      <point x="148" y="277"/>
      <point x="138" y="254" type="curve"/>
      <point x="214" y="254"/>
      <point x="288" y="254"/>
      <point x="363" y="254" type="curve"/>
      <point x="355" y="277"/>
      <point x="363" y="254"/>
    </contour>
    <contour>
      <point x="431" y="0" type="curve"/>
      <point x="376" y="241"/>
      <point x="322" y="481"/>
      <point x="268" y="722" type="curve"/>
      <point x="246" y="722"/>
      <point x="268" y="722"/>
      <point x="246" y="722" type="curve"/>
      <point x="299" y="481"/>
      <point x="352" y="241"/>
      <point x="406" y="0" type="curve"/>
      <point x="431" y="0"/>
      <point x="406" y="0"/>
    </contour>
    <contour>
      <point x="88" y="0" type="curve"/>
      <point x="148" y="241"/>
      <point x="207" y="481"/>
      <point x="266" y="722" type="curve"/>
      <point x="244" y="722"/>
      <point x="266" y="722"/>
      <point x="244" y="722" type="curve"/>
      <point x="184" y="481"/>
      <point x="123" y="241"/>
      <point x="61" y="0" type="curve"/>
      <point x="88" y="0"/>
      <point x="61" y="0"/>
    </contour>
    <contour>
      <point x="269" y="825" type="line"/>
      <point x="222" y="991" type="line"/>
      <point x="192" y="991" type="line"/>
      <point x="246" y="825" type="line"/>
    </contour>
  </outline>
</glyph>
<glyph name="Ccedilla" format="1">
  <advance width="462"/>
  <unicode hex="00C7"/>
  <outline>
    <contour>
      <point x="382" y="655" type="curve"/>
      <point x="382" y="535"/>
      <point x="382" y="655"/>
      <point x="382" y="535" type="curve"/>
      <point x="404" y="535"/>
      <point x="382" y="535"/>
      <point x="404" y="535" type="curve"/>
      <point x="404" y="655"/>
      <point x="404" y="535"/>
      <point x="404" y="655" type="curve"/>
      <point x="382" y="655"/>
      <point x="404" y="655"/>
    </contour>
    <contour>
      <point x="404" y="655" type="curve"/>
      <point x="367" y="694"/>
      <point x="322" y="727"/>
      <point x="265" y="727" type="curve"/>
      <point x="92" y="727"/>
      <point x="67" y="553"/>
      <point x="67" y="344" type="curve"/>
      <point x="67" y="154"/>
      <point x="93" y="-5"/>
      <point x="252" y="-5" type="curve"/>
      <point x="329" y="-5"/>
      <point x="372" y="35"/>
      <point x="416" y="96" type="curve"/>
      <point x="400" y="113"/>
      <point x="415" y="96"/>
      <point x="399" y="113" type="curve"/>
      <point x="360" y="59"/>
      <point x="322" y="21"/>
      <point x="253" y="21" type="curve"/>
      <point x="109" y="21"/>
      <point x="91" y="170"/>
      <point x="91" y="345" type="curve"/>
      <point x="91" y="537"/>
      <point x="111" y="703"/>
      <point x="264" y="703" type="curve"/>
      <point x="316" y="703"/>
      <point x="358" y="673"/>
      <point x="391" y="638" type="curve"/>
      <point x="404" y="655"/>
      <point x="391" y="638"/>
    </contour>
    <contour>
      <point x="235" y="8" type="curve"/>
      <point x="225" y="-19"/>
      <point x="217" y="-46"/>
      <point x="208" y="-72" type="curve"/>
      <point x="225" y="-90"/>
      <point x="208" y="-72"/>
      <point x="225" y="-90" type="curve"/>
      <point x="234" y="-62"/>
      <point x="244" y="-34"/>
      <point x="253" y="-7" type="curve"/>
      <point x="235" y="8"/>
      <point x="253" y="-7"/>
    </contour>
    <contour>
      <point x="225" y="-90" type="curve"/>
      <point x="232" y="-81"/>
      <point x="238" y="-77"/>
      <point x="249" y="-77" type="curve"/>
      <point x="274" y="-77"/>
      <point x="276" y="-104"/>
      <point x="276" y="-134" type="curve"/>
      <point x="276" y="-164"/>
      <point x="267" y="-189"/>
      <point x="241" y="-189" type="curve"/>
      <point x="225" y="-189"/>
      <point x="213" y="-185"/>
      <point x="202" y="-172" type="curve"/>
      <point x="191" y="-189"/>
      <point x="202" y="-172"/>
      <point x="191" y="-189" type="curve"/>
      <point x="206" y="-204"/>
      <point x="220" y="-211"/>
      <point x="240" y="-211" type="curve"/>
      <point x="281" y="-211"/>
      <point x="301" y="-177"/>
      <point x="301" y="-134" type="curve"/>
      <point x="301" y="-91"/>
      <point x="288" y="-55"/>
      <point x="251" y="-55" type="curve"/>
      <point x="234" y="-55"/>
      <point x="222" y="-61"/>
      <point x="208" y="-72" type="curve"/>
      <point x="225" y="-90"/>
      <point x="208" y="-72"/>
    </contour>
  </outline>
</glyph>
<glyph name="Ograve" format="1">
  <advance width="506"/>
  <unicode hex="00D2"/>
  <outline>
    <contour>
      <point x="92" y="360" type="curve"/>
      <point x="92" y="538"/>
      <point x="103" y="704"/>
      <point x="251" y="704" type="curve"/>
      <point x="399" y="704"/>
      <point x="415" y="540"/>
      <point x="415" y="363" type="curve"/>
      <point x="415" y="188"/>
      <point x="403" y="18"/>
      <point x="254" y="18" type="curve"/>
      <point x="105" y="18"/>
      <point x="92" y="182"/>
      <point x="92" y="360" type="curve"/>
      <point x="67" y="360"/>
      <point x="92" y="360"/>
      <point x="67" y="360" type="curve"/>
      <point x="67" y="167"/>
      <point x="91" y="-5"/>
      <point x="253" y="-5" type="curve"/>
      <point x="415" y="-5"/>
      <point x="439" y="169"/>
      <point x="439" y="363" type="curve"/>
      <point x="439" y="555"/>
      <point x="416" y="727"/>
      <point x="254" y="727" type="curve"/>
      <point x="90" y="727"/>
      <point x="67" y="553"/>
      <point x="67" y="360" type="curve"/>
      <point x="92" y="360"/>
      <point x="67" y="360"/>
    </contour>
    <contour>
      <point x="266" y="825" type="line"/>
      <point x="218" y="991" type="line"/>
      <point x="189" y="991" type="line"/>
      <point x="243" y="825" type="line"/>
    </contour>
  </outline>
</glyph>
<glyph name="Udieresis" format="1">
  <advance width="559"/>
  <unicode hex="00DC"/>
  <outline>
    <contour>
      <point x="431" y="700" type="curve"/>
      <point x="544" y="700"/>
      <point x="420" y="700"/>
      <point x="534" y="700" type="curve"/>
      <point x="534" y="722"/>
      <point x="534" y="700"/>
      <point x="534" y="722" type="curve"/>
      <point x="496" y="722"/>
      <point x="468" y="722"/>
      <point x="431" y="722" type="curve"/>
      <point x="431" y="700"/>
      <point x="431" y="722"/>
    </contour>
    <contour>
      <point x="431" y="722" type="curve"/>
      <point x="393" y="722"/>
      <point x="365" y="722"/>
      <point x="327" y="722" type="curve"/>
      <point x="327" y="700"/>
      <point x="327" y="722"/>
      <point x="327" y="700" type="curve"/>
      <point x="441" y="700"/>
      <point x="317" y="700"/>
      <point x="431" y="700" type="curve"/>
      <point x="431" y="722"/>
      <point x="431" y="700"/>
    </contour>
    <contour>
      <point x="129" y="722" type="curve"/>
      <point x="92" y="722"/>
      <point x="63" y="722"/>
      <point x="26" y="722" type="curve"/>
      <point x="26" y="700"/>
      <point x="26" y="722"/>
      <point x="26" y="700" type="curve"/>
      <point x="140" y="700"/>
      <point x="16" y="700"/>
      <point x="129" y="700" type="curve"/>
      <point x="129" y="722"/>
      <point x="129" y="700"/>
    </contour>
    <contour>
      <point x="129" y="700" type="curve"/>
      <point x="243" y="700"/>
      <point x="119" y="700"/>
      <point x="233" y="700" type="curve"/>
      <point x="233" y="722"/>
      <point x="233" y="700"/>
      <point x="233" y="722" type="curve"/>
      <point x="195" y="722"/>
      <point x="167" y="722"/>
      <point x="129" y="722" type="curve"/>
      <point x="129" y="700"/>
      <point x="129" y="722"/>
    </contour>
    <contour>
      <point x="115" y="721" type="curve"/>
      <point x="115" y="576"/>
      <point x="115" y="416"/>
      <point x="115" y="271" type="curve"/>
      <point x="115" y="112"/>
      <point x="143" y="-5"/>
      <point x="280" y="-5" type="curve"/>
      <point x="413" y="-5"/>
      <point x="443" y="109"/>
      <point x="443" y="263" type="curve"/>
      <point x="443" y="411"/>
      <point x="443" y="574"/>
      <point x="443" y="721" type="curve"/>
      <point x="419" y="721"/>
      <point x="444" y="721"/>
      <point x="420" y="721" type="curve"/>
      <point x="420" y="572"/>
      <point x="420" y="408"/>
      <point x="420" y="259" type="curve"/>
      <point x="420" y="122"/>
      <point x="393" y="19"/>
      <point x="282" y="19" type="curve"/>
      <point x="159" y="19"/>
      <point x="138" y="130"/>
      <point x="138" y="275" type="curve"/>
      <point x="138" y="420"/>
      <point x="138" y="578"/>
      <point x="138" y="721" type="curve"/>
      <point x="115" y="721"/>
      <point x="139" y="721"/>
    </contour>
    <contour>
      <point x="262" y="838" type="curve"/>
      <point x="262" y="849"/>
      <point x="255" y="855"/>
      <point x="244" y="855" type="curve"/>
      <point x="233" y="855"/>
      <point x="227" y="848"/>
      <point x="227" y="838" type="curve"/>
      <point x="266" y="838"/>
      <point x="224" y="838"/>
      <point x="262" y="838" type="curve"/>
      <point x="262" y="827"/>
      <point x="255" y="822"/>
      <point x="244" y="822" type="curve"/>
      <point x="233" y="822"/>
      <point x="227" y="827"/>
      <point x="227" y="838" type="curve"/>
      <point x="266" y="838"/>
      <point x="224" y="838"/>
    </contour>
    <contour>
      <point x="334" y="838" type="curve"/>
      <point x="334" y="849"/>
      <point x="327" y="855"/>
      <point x="317" y="855" type="curve"/>
      <point x="306" y="855"/>
      <point x="300" y="848"/>
      <point x="300" y="838" type="curve"/>
      <point x="338" y="838"/>
      <point x="296" y="838"/>
      <point x="334" y="838" type="curve"/>
      <point x="334" y="827"/>
      <point x="327" y="822"/>
      <point x="317" y="822" type="curve"/>
      <point x="306" y="822"/>
      <point x="300" y="827"/>
      <point x="300" y="838" type="curve"/>
      <point x="338" y="838"/>
      <point x="296" y="838"/>
    </contour>
  </outline>
</glyph>
<glyph name="Thorn" format="1">
  <advance width="417"/>
  <unicode hex="00DE"/>
  <outline>
    <contour>
      <point x="134" y="722" type="curve"/>
      <point x="103" y="722"/>
      <point x="72" y="722"/>
      <point x="41" y="722" type="curve"/>
      <point x="41" y="700"/>
      <point x="41" y="722"/>
      <point x="41" y="700" type="curve"/>
      <point x="134" y="700"/>
      <point x="41" y="700"/>
      <point x="134" y="700" type="curve"/>
      <point x="134" y="722"/>
      <point x="134" y="700"/>
    </contour>
    <contour>
      <point x="134" y="22" type="curve"/>
      <point x="41" y="22"/>
      <point x="134" y="22"/>
      <point x="41" y="22" type="curve"/>
      <point x="41" y="0"/>
      <point x="41" y="22"/>
      <point x="41" y="0" type="curve"/>
      <point x="72" y="0"/>
      <point x="103" y="0"/>
      <point x="134" y="0" type="curve"/>
      <point x="134" y="22"/>
      <point x="134" y="0"/>
    </contour>
    <contour>
      <point x="134" y="0" type="curve"/>
      <point x="165" y="0"/>
      <point x="134" y="0"/>
      <point x="228" y="0" type="curve"/>
      <point x="228" y="22"/>
      <point x="228" y="0"/>
      <point x="228" y="22" type="curve"/>
      <point x="134" y="22"/>
      <point x="228" y="22"/>
      <point x="134" y="22" type="curve"/>
      <point x="134" y="0"/>
      <point x="134" y="22"/>
    </contour>
    <contour>
      <point x="131" y="220" type="curve"/>
      <point x="157" y="195"/>
      <point x="189" y="175"/>
      <point x="227" y="175" type="curve"/>
      <point x="327" y="177"/>
      <point x="364" y="267"/>
      <point x="364" y="389" type="curve"/>
      <point x="364" y="511"/>
      <point x="321" y="617"/>
      <point x="214" y="617" type="curve"/>
      <point x="188" y="617"/>
      <point x="162" y="617"/>
      <point x="136" y="617" type="curve"/>
      <point x="136" y="595"/>
      <point x="136" y="617"/>
      <point x="136" y="595" type="curve"/>
      <point x="161" y="595"/>
      <point x="186" y="595"/>
      <point x="211" y="595" type="curve"/>
      <point x="306" y="595"/>
      <point x="340" y="498"/>
      <point x="340" y="388" type="curve"/>
      <point x="340" y="287"/>
      <point x="313" y="198"/>
      <point x="228" y="198" type="curve"/>
      <point x="190" y="198"/>
      <point x="167" y="215"/>
      <point x="139" y="241" type="curve"/>
      <point x="131" y="221"/>
      <point x="139" y="240"/>
    </contour>
    <contour>
      <point x="145" y="0" type="curve"/>
      <point x="145" y="241"/>
      <point x="145" y="481"/>
      <point x="145" y="722" type="curve"/>
      <point x="121" y="722"/>
      <point x="145" y="722"/>
      <point x="121" y="722" type="curve"/>
      <point x="121" y="481"/>
      <point x="121" y="241"/>
      <point x="121" y="0" type="curve"/>
      <point x="145" y="0"/>
      <point x="121" y="0"/>
    </contour>
    <contour>
      <point x="134" y="700" type="curve"/>
      <point x="165" y="700"/>
      <point x="134" y="700"/>
      <point x="228" y="700" type="curve"/>
      <point x="228" y="722"/>
      <point x="228" y="700"/>
      <point x="228" y="722" type="curve"/>
      <point x="134" y="722"/>
      <point x="228" y="722"/>
      <point x="134" y="722" type="curve"/>
      <point x="134" y="700"/>
      <point x="134" y="722"/>
    </contour>
  </outline>
</glyph>
<glyph name="germandbls" format="1">
  <advance width="403"/>
  <unicode hex="00DF"/>
  <outline>
    <contour>
      <point x="110" y="22" type="curve"/>
      <point x="-3" y="22"/>
      <point x="121" y="22"/>
      <point x="7" y="22" type="curve"/>
      <point x="7" y="0"/>
      <point x="7" y="22"/>
      <point x="7" y="0" type="curve"/>
      <point x="44" y="0"/>
      <point x="73" y="0"/>
      <point x="110" y="0" type="curve"/>
      <point x="110" y="22"/>
      <point x="110" y="0"/>
    </contour>
    <contour>
      <point x="110" y="0" type="curve"/>
      <point x="148" y="0"/>
      <point x="153" y="0"/>
      <point x="191" y="0" type="curve"/>
      <point x="191" y="22"/>
      <point x="191" y="0"/>
      <point x="191" y="22" type="curve"/>
      <point x="79" y="22"/>
      <point x="222" y="22"/>
      <point x="110" y="22" type="curve"/>
      <point x="110" y="0"/>
      <point x="110" y="22"/>
    </contour>
    <contour>
      <point x="121" y="0" type="curve"/>
      <point x="121" y="207"/>
      <point x="121" y="412"/>
      <point x="121" y="619" type="curve"/>
      <point x="97" y="619"/>
      <point x="121" y="619"/>
      <point x="97" y="619" type="curve"/>
      <point x="97" y="412"/>
      <point x="97" y="207"/>
      <point x="97" y="0" type="curve"/>
      <point x="121" y="0"/>
      <point x="97" y="0"/>
    </contour>
    <contour>
      <point x="121" y="619" type="curve"/>
      <point x="121" y="706"/>
      <point x="141" y="783"/>
      <point x="211" y="783" type="curve"/>
      <point x="281" y="783"/>
      <point x="309" y="712"/>
      <point x="309" y="627" type="curve"/>
      <point x="309" y="541"/>
      <point x="273" y="471"/>
      <point x="203" y="471" type="curve"/>
      <point x="203" y="453"/>
      <point x="203" y="471"/>
      <point x="203" y="453" type="curve"/>
      <point x="291" y="453"/>
      <point x="332" y="531"/>
      <point x="332" y="628" type="curve"/>
      <point x="332" y="726"/>
      <point x="300" y="805"/>
      <point x="213" y="805" type="curve"/>
      <point x="125" y="805"/>
      <point x="97" y="720"/>
      <point x="97" y="619" type="curve"/>
      <point x="121" y="619"/>
      <point x="97" y="619"/>
    </contour>
    <contour>
      <point x="262" y="87" type="curve"/>
      <point x="334" y="114"/>
      <point x="352" y="182"/>
      <point x="352" y="273" type="curve"/>
      <point x="352" y="381"/>
      <point x="309" y="471"/>
      <point x="203" y="471" type="curve"/>
      <point x="203" y="453"/>
      <point x="203" y="471"/>
      <point x="203" y="453" type="curve"/>
      <point x="283" y="453"/>
      <point x="329" y="371"/>
      <point x="329" y="272" type="curve"/>
      <point x="329" y="195"/>
      <point x="312" y="134"/>
      <point x="255" y="108" type="curve"/>
      <point x="262" y="87"/>
      <point x="255" y="108"/>
    </contour>
  </outline>
</glyph>
<glyph name="ccedilla" format="1">
  <advance width="371"/>
  <unicode hex="00E7"/>
  <outline>
    <contour>
      <point x="289" y="473" type="curve"/>
      <point x="289" y="353"/>
      <point x="289" y="485"/>
      <point x="289" y="365" type="curve"/>
      <point x="311" y="365"/>
      <point x="289" y="365"/>
      <point x="311" y="365" type="curve"/>
      <point x="311" y="485"/>
      <point x="311" y="353"/>
      <point x="311" y="473" type="curve"/>
      <point x="289" y="473"/>
      <point x="311" y="473"/>
    </contour>
    <contour>
      <point x="311" y="473" type="curve"/>
      <point x="287" y="506"/>
      <point x="252" y="538"/>
      <point x="211" y="538" type="curve"/>
      <point x="85" y="538"/>
      <point x="64" y="418"/>
      <point x="64" y="267" type="curve"/>
      <point x="64" y="116"/>
      <point x="83" y="-5"/>
      <point x="209" y="-5" type="curve"/>
      <point x="258" y="-5"/>
      <point x="296" y="37"/>
      <point x="318" y="89" type="curve"/>
      <point x="299" y="99"/>
      <point x="318" y="89"/>
      <point x="299" y="99" type="curve"/>
      <point x="285" y="65"/>
      <point x="252" y="17"/>
      <point x="210" y="17" type="curve"/>
      <point x="100" y="17"/>
      <point x="88" y="133"/>
      <point x="88" y="267" type="curve"/>
      <point x="88" y="401"/>
      <point x="105" y="516"/>
      <point x="210" y="516" type="curve"/>
      <point x="245" y="516"/>
      <point x="276" y="486"/>
      <point x="297" y="458" type="curve"/>
      <point x="311" y="473"/>
      <point x="297" y="458"/>
    </contour>
    <contour>
      <point x="189" y="10" type="curve"/>
      <point x="179" y="-17"/>
      <point x="171" y="-44"/>
      <point x="162" y="-70" type="curve"/>
      <point x="180" y="-88"/>
      <point x="162" y="-70"/>
      <point x="180" y="-88" type="curve"/>
      <point x="188" y="-60"/>
      <point x="199" y="-32"/>
      <point x="207" y="-5" type="curve"/>
      <point x="189" y="10"/>
      <point x="207" y="-5"/>
    </contour>
    <contour>
      <point x="180" y="-88" type="curve"/>
      <point x="187" y="-80"/>
      <point x="192" y="-75"/>
      <point x="203" y="-75" type="curve"/>
      <point x="228" y="-75"/>
      <point x="230" y="-103"/>
      <point x="230" y="-132" type="curve"/>
      <point x="230" y="-163"/>
      <point x="221" y="-187"/>
      <point x="195" y="-187" type="curve"/>
      <point x="179" y="-187"/>
      <point x="167" y="-183"/>
      <point x="156" y="-170" type="curve"/>
      <point x="146" y="-187"/>
      <point x="156" y="-170"/>
      <point x="146" y="-187" type="curve"/>
      <point x="160" y="-202"/>
      <point x="174" y="-209"/>
      <point x="194" y="-209" type="curve"/>
      <point x="235" y="-209"/>
      <point x="255" y="-175"/>
      <point x="255" y="-132" type="curve"/>
      <point x="255" y="-90"/>
      <point x="242" y="-53"/>
      <point x="205" y="-53" type="curve"/>
      <point x="188" y="-53"/>
      <point x="176" y="-59"/>
      <point x="162" y="-70" type="curve"/>
      <point x="180" y="-88"/>
      <point x="162" y="-70"/>
    </contour>
  </outline>
</glyph>
<glyph name="ecircumflex" format="1">
  <advance width="386"/>
  <unicode hex="00EA"/>
  <outline>
    <contour>
      <point x="79" y="273" type="curve"/>
      <point x="158" y="273"/>
      <point x="237" y="273"/>
      <point x="315" y="273" type="curve"/>
      <point x="321" y="273"/>
      <point x="315" y="273"/>
      <point x="321" y="273" type="curve"/>
      <point x="321" y="276"/>
      <point x="321" y="273"/>
      <point x="321" y="276" type="curve"/>
      <point x="321" y="285"/>
      <point x="321" y="294"/>
      <point x="321" y="303" type="curve"/>
      <point x="321" y="431"/>
      <point x="304" y="538"/>
      <point x="198" y="538" type="curve"/>
      <point x="81" y="538"/>
      <point x="66" y="421"/>
      <point x="66" y="281" type="curve"/>
      <point x="66" y="127"/>
      <point x="82" y="-5"/>
      <point x="207" y="-5" type="curve"/>
      <point x="260" y="-5"/>
      <point x="293" y="27"/>
      <point x="321" y="76" type="curve"/>
      <point x="303" y="90"/>
      <point x="321" y="76"/>
      <point x="303" y="90" type="curve"/>
      <point x="280" y="50"/>
      <point x="248" y="17"/>
      <point x="207" y="17" type="curve"/>
      <point x="101" y="17"/>
      <point x="92" y="140"/>
      <point x="92" y="281" type="curve"/>
      <point x="92" y="406"/>
      <point x="100" y="516"/>
      <point x="196" y="516" type="curve"/>
      <point x="288" y="516"/>
      <point x="298" y="418"/>
      <point x="298" y="305" type="curve"/>
      <point x="298" y="295"/>
      <point x="298" y="286"/>
      <point x="298" y="276" type="curve"/>
      <point x="301" y="279"/>
      <point x="305" y="282"/>
      <point x="307" y="285" type="curve"/>
      <point x="309" y="289"/>
      <point x="312" y="291"/>
      <point x="315" y="295" type="curve"/>
      <point x="237" y="295"/>
      <point x="158" y="295"/>
      <point x="79" y="295" type="curve"/>
      <point x="79" y="273"/>
      <point x="79" y="295"/>
    </contour>
    <contour>
      <point x="151" y="671" type="line"/>
      <point x="205" y="837" type="line"/>
      <point x="176" y="837" type="line"/>
      <point x="128" y="671" type="line"/>
    </contour>
    <contour>
      <point x="263" y="671" type="line"/>
      <point x="215" y="837" type="line"/>
      <point x="186" y="837" type="line"/>
      <point x="240" y="671" type="line"/>
    </contour>
  </outline>
</glyph>
<glyph name="idieresis" format="1">
  <advance width="244"/>
  <unicode hex="00EF"/>
  <outline>
    <contour>
      <point x="137" y="22" type="curve"/>
      <point x="23" y="22"/>
      <point x="148" y="22"/>
      <point x="34" y="22" type="curve"/>
      <point x="34" y="0"/>
      <point x="34" y="22"/>
      <point x="34" y="0" type="curve"/>
      <point x="71" y="0"/>
      <point x="100" y="0"/>
      <point x="137" y="0" type="curve"/>
      <point x="137" y="22"/>
      <point x="137" y="0"/>
    </contour>
    <contour>
      <point x="137" y="0" type="curve"/>
      <point x="172" y="0"/>
      <point x="199" y="0"/>
      <point x="235" y="0" type="curve"/>
      <point x="235" y="22"/>
      <point x="235" y="0"/>
      <point x="235" y="22" type="curve"/>
      <point x="127" y="22"/>
      <point x="245" y="22"/>
      <point x="137" y="22" type="curve"/>
      <point x="137" y="0"/>
      <point x="137" y="22"/>
    </contour>
    <contour>
      <point x="137" y="533" type="curve"/>
      <point x="100" y="533"/>
      <point x="71" y="533"/>
      <point x="34" y="533" type="curve"/>
      <point x="34" y="511"/>
      <point x="34" y="533"/>
      <point x="34" y="511" type="curve"/>
      <point x="148" y="511"/>
      <point x="23" y="511"/>
      <point x="137" y="511" type="curve"/>
      <point x="137" y="533"/>
      <point x="137" y="511"/>
    </contour>
    <contour>
      <point x="150" y="0" type="curve"/>
      <point x="150" y="178"/>
      <point x="150" y="355"/>
      <point x="150" y="533" type="curve"/>
      <point x="124" y="533"/>
      <point x="150" y="533"/>
      <point x="124" y="533" type="curve"/>
      <point x="124" y="355"/>
      <point x="124" y="178"/>
      <point x="124" y="0" type="curve"/>
      <point x="150" y="0"/>
      <point x="124" y="0"/>
    </contour>
    <contour>
      <point x="116" y="684" type="curve"/>
      <point x="116" y="695"/>
      <point x="109" y="701"/>
      <point x="98" y="701" type="curve"/>
      <point x="87" y="701"/>
      <point x="81" y="694"/>
      <point x="81" y="684" type="curve"/>
      <point x="119" y="684"/>
      <point x="78" y="684"/>
      <point x="116" y="684" type="curve"/>
      <point x="116" y="673"/>
      <point x="109" y="668"/>
      <point x="98" y="668" type="curve"/>
      <point x="87" y="668"/>
      <point x="81" y="673"/>
      <point x="81" y="684" type="curve"/>
      <point x="119" y="684"/>
      <point x="78" y="684"/>
    </contour>
    <contour>
      <point x="188" y="684" type="curve"/>
      <point x="188" y="695"/>
      <point x="181" y="701"/>
      <point x="170" y="701" type="curve"/>
      <point x="159" y="701"/>
      <point x="154" y="694"/>
      <point x="154" y="684" type="curve"/>
      <point x="192" y="684"/>
      <point x="150" y="684"/>
      <point x="188" y="684" type="curve"/>
      <point x="188" y="673"/>
      <point x="181" y="668"/>
      <point x="170" y="668" type="curve"/>
      <point x="159" y="668"/>
      <point x="154" y="673"/>
      <point x="154" y="684" type="curve"/>
      <point x="192" y="684"/>
      <point x="150" y="684"/>
    </contour>
  </outline>
</glyph>
<glyph name="eth" format="1">
  <advance width="394"/>
  <unicode hex="00F0"/>
  <outline>
    <contour>
      <point x="71" y="554" type="curve"/>
      <point x="127" y="611"/>
      <point x="183" y="668"/>
      <point x="240" y="724" type="curve"/>
      <point x="257" y="707"/>
      <point x="240" y="724"/>
      <point x="257" y="707" type="curve"/>
      <point x="200" y="651"/>
      <point x="144" y="594"/>
      <point x="87" y="538" type="curve"/>
      <point x="71" y="554"/>
      <point x="87" y="538"/>
    </contour>
    <contour>
      <point x="308" y="226" type="curve"/>
      <point x="293" y="289"/>
      <point x="265" y="379"/>
      <point x="185" y="379" type="curve"/>
      <point x="100" y="379"/>
      <point x="80" y="295"/>
      <point x="80" y="195" type="curve"/>
      <point x="80" y="98"/>
      <point x="101" y="11"/>
      <point x="181" y="11" type="curve"/>
      <point x="281" y="11"/>
      <point x="303" y="117"/>
      <point x="303" y="235" type="curve"/>
      <point x="303" y="445"/>
      <point x="243" y="609"/>
      <point x="55" y="707" type="curve"/>
      <point x="65" y="730"/>
      <point x="55" y="707"/>
      <point x="65" y="730" type="curve"/>
      <point x="262" y="628"/>
      <point x="328" y="462"/>
      <point x="328" y="234" type="curve"/>
      <point x="328" y="100"/>
      <point x="299" y="-12"/>
      <point x="182" y="-12" type="curve"/>
      <point x="84" y="-12"/>
      <point x="54" y="83"/>
      <point x="54" y="196" type="curve"/>
      <point x="54" y="309"/>
      <point x="84" y="402"/>
      <point x="183" y="402" type="curve"/>
      <point x="271" y="402"/>
      <point x="299" y="327"/>
      <point x="323" y="235" type="curve"/>
      <point x="308" y="226"/>
      <point x="323" y="235"/>
    </contour>
  </outline>
</glyph>
<glyph name="ntilde" format="1">
  <advance width="467"/>
  <unicode hex="00F1"/>
  <outline>
    <contour>
      <point x="143" y="338" type="curve"/>
      <point x="145" y="433"/>
      <point x="200" y="516"/>
      <point x="263" y="516" type="curve"/>
      <point x="338" y="516"/>
      <point x="349" y="435"/>
      <point x="349" y="341" type="curve"/>
      <point x="349" y="228"/>
      <point x="349" y="114"/>
      <point x="349" y="0" type="curve"/>
      <point x="373" y="0"/>
      <point x="349" y="0"/>
      <point x="373" y="0" type="curve"/>
      <point x="373" y="115"/>
      <point x="373" y="229"/>
      <point x="373" y="344" type="curve"/>
      <point x="373" y="449"/>
      <point x="357" y="538"/>
      <point x="267" y="538" type="curve"/>
      <point x="189" y="538"/>
      <point x="131" y="459"/>
      <point x="131" y="356" type="curve"/>
      <point x="144" y="343"/>
      <point x="129" y="351"/>
    </contour>
    <contour>
      <point x="360" y="0" type="curve"/>
      <point x="397" y="0"/>
      <point x="426" y="0"/>
      <point x="463" y="0" type="curve"/>
      <point x="463" y="22"/>
      <point x="463" y="0"/>
      <point x="463" y="22" type="curve"/>
      <point x="350" y="22"/>
      <point x="474" y="22"/>
      <point x="360" y="22" type="curve"/>
      <point x="360" y="0"/>
      <point x="360" y="22"/>
    </contour>
    <contour>
      <point x="137" y="22" type="curve"/>
      <point x="23" y="22"/>
      <point x="148" y="22"/>
      <point x="34" y="22" type="curve"/>
      <point x="34" y="0"/>
      <point x="34" y="22"/>
      <point x="34" y="0" type="curve"/>
      <point x="71" y="0"/>
      <point x="100" y="0"/>
      <point x="137" y="0" type="curve"/>
      <point x="137" y="22"/>
      <point x="137" y="0"/>
    </contour>
    <contour>
      <point x="137" y="0" type="curve"/>
      <point x="168" y="0"/>
      <point x="119" y="0"/>
      <point x="215" y="0" type="curve"/>
      <point x="215" y="22"/>
      <point x="215" y="0"/>
      <point x="215" y="22" type="curve"/>
      <point x="119" y="22"/>
      <point x="233" y="22"/>
      <point x="137" y="22" type="curve"/>
      <point x="137" y="0"/>
      <point x="137" y="22"/>
    </contour>
    <contour>
      <point x="149" y="0" type="curve"/>
      <point x="149" y="178"/>
      <point x="149" y="355"/>
      <point x="149" y="533" type="curve"/>
      <point x="125" y="533"/>
      <point x="149" y="533"/>
      <point x="125" y="533" type="curve"/>
      <point x="125" y="355"/>
      <point x="125" y="178"/>
      <point x="125" y="0" type="curve"/>
      <point x="149" y="0"/>
      <point x="125" y="0"/>
    </contour>
    <contour>
      <point x="137" y="533" type="curve"/>
      <point x="100" y="533"/>
      <point x="71" y="533"/>
      <point x="34" y="533" type="curve"/>
      <point x="34" y="511"/>
      <point x="34" y="533"/>
      <point x="34" y="511" type="curve"/>
      <point x="148" y="511"/>
      <point x="23" y="511"/>
      <point x="137" y="511" type="curve"/>
      <point x="137" y="533"/>
      <point x="137" y="511"/>
    </contour>
    <contour>
      <point x="364" y="795" type="curve"/>
      <point x="356" y="747"/>
      <point x="354" y="692"/>
      <point x="324" y="692" type="curve"/>
      <point x="297" y="692"/>
      <point x="287" y="715"/>
      <point x="274" y="741" type="curve"/>
      <point x="258" y="771"/>
      <point x="246" y="796"/>
      <point x="214" y="796" type="curve"/>
      <point x="159" y="796"/>
      <point x="156" y="739"/>
      <point x="149" y="677" type="curve"/>
      <point x="169" y="671"/>
      <point x="149" y="677"/>
      <point x="169" y="671" type="curve"/>
      <point x="175" y="723"/>
      <point x="175" y="774"/>
      <point x="214" y="774" type="curve"/>
      <point x="239" y="774"/>
      <point x="245" y="751"/>
      <point x="256" y="727" type="curve"/>
      <point x="273" y="696"/>
      <point x="288" y="671"/>
      <point x="322" y="671" type="curve"/>
      <point x="377" y="671"/>
      <point x="376" y="732"/>
      <point x="385" y="791" type="curve"/>
      <point x="364" y="795"/>
      <point x="385" y="791"/>
    </contour>
  </outline>
</glyph>
<glyph name="udieresis" format="1">
  <advance width="435"/>
  <unicode hex="00FC"/>
  <outline>
    <contour>
      <point x="330" y="533" type="curve"/>
      <point x="292" y="533"/>
      <point x="264" y="533"/>
      <point x="226" y="533" type="curve"/>
      <point x="226" y="511"/>
      <point x="226" y="533"/>
      <point x="226" y="511" type="curve"/>
      <point x="340" y="511"/>
      <point x="216" y="511"/>
      <point x="330" y="511" type="curve"/>
      <point x="330" y="533"/>
      <point x="330" y="511"/>
    </contour>
    <contour>
      <point x="109" y="533" type="curve"/>
      <point x="72" y="533"/>
      <point x="44" y="533"/>
      <point x="6" y="533" type="curve"/>
      <point x="6" y="511"/>
      <point x="6" y="533"/>
      <point x="6" y="511" type="curve"/>
      <point x="120" y="511"/>
      <point x="-4" y="511"/>
      <point x="109" y="511" type="curve"/>
      <point x="109" y="533"/>
      <point x="109" y="511"/>
    </contour>
    <contour>
      <point x="330" y="0" type="curve"/>
      <point x="366" y="0"/>
      <point x="391" y="0"/>
      <point x="427" y="0" type="curve"/>
      <point x="427" y="22"/>
      <point x="427" y="0"/>
      <point x="427" y="22" type="curve"/>
      <point x="320" y="22"/>
      <point x="438" y="22"/>
      <point x="330" y="22" type="curve"/>
      <point x="330" y="0"/>
      <point x="330" y="22"/>
    </contour>
    <contour>
      <point x="342" y="0" type="curve"/>
      <point x="342" y="178"/>
      <point x="342" y="355"/>
      <point x="342" y="533" type="curve"/>
      <point x="318" y="533"/>
      <point x="342" y="533"/>
      <point x="318" y="533" type="curve"/>
      <point x="318" y="355"/>
      <point x="318" y="178"/>
      <point x="318" y="0" type="curve"/>
      <point x="342" y="0"/>
      <point x="318" y="0"/>
    </contour>
    <contour>
      <point x="321" y="172" type="curve"/>
      <point x="308" y="98"/>
      <point x="268" y="17"/>
      <point x="216" y="17" type="curve"/>
      <point x="137" y="17"/>
      <point x="121" y="95"/>
      <point x="121" y="187" type="curve"/>
      <point x="121" y="302"/>
      <point x="121" y="418"/>
      <point x="121" y="533" type="curve"/>
      <point x="97" y="533"/>
      <point x="121" y="533"/>
      <point x="97" y="533" type="curve"/>
      <point x="97" y="417"/>
      <point x="97" y="301"/>
      <point x="97" y="185" type="curve"/>
      <point x="97" y="80"/>
      <point x="120" y="-5"/>
      <point x="217" y="-5" type="curve"/>
      <point x="288" y="-5"/>
      <point x="321" y="78"/>
      <point x="337" y="163" type="curve"/>
      <point x="321" y="174"/>
      <point x="337" y="162"/>
    </contour>
    <contour>
      <point x="187" y="684" type="curve"/>
      <point x="187" y="695"/>
      <point x="180" y="701"/>
      <point x="169" y="701" type="curve"/>
      <point x="158" y="701"/>
      <point x="152" y="694"/>
      <point x="152" y="684" type="curve"/>
      <point x="190" y="684"/>
      <point x="149" y="684"/>
      <point x="187" y="684" type="curve"/>
      <point x="187" y="673"/>
      <point x="180" y="668"/>
      <point x="169" y="668" type="curve"/>
      <point x="158" y="668"/>
      <point x="152" y="673"/>
      <point x="152" y="684" type="curve"/>
      <point x="190" y="684"/>
      <point x="149" y="684"/>
    </contour>
    <contour>
      <point x="259" y="684" type="curve"/>
      <point x="259" y="695"/>
      <point x="252" y="701"/>
      <point x="241" y="701" type="curve"/>
      <point x="230" y="701"/>
      <point x="225" y="694"/>
      <point x="225" y="684" type="curve"/>
      <point x="263" y="684"/>
      <point x="221" y="684"/>
      <point x="259" y="684" type="curve"/>
      <point x="259" y="673"/>
      <point x="252" y="668"/>
      <point x="241" y="668" type="curve"/>
      <point x="230" y="668"/>
      <point x="225" y="673"/>
      <point x="225" y="684" type="curve"/>
      <point x="263" y="684"/>
      <point x="221" y="684"/>
    </contour>
  </outline>
</glyph>
<glyph name="Aogonek" format="1">
  <advance width="531"/>
  <unicode hex="0104"/>
  <outline>
    <contour>
      <point x="82" y="22" type="curve"/>
      <point x="-46" y="22"/>
      <point x="105" y="22"/>
      <point x="-23" y="22" type="curve"/>
      <point x="-23" y="0"/>
      <point x="-23" y="22"/>
      <point x="-23" y="0" type="curve"/>
      <point x="20" y="0"/>
      <point x="39" y="0"/>
      <point x="82" y="0" type="curve"/>
      <point x="82" y="22"/>
      <point x="82" y="0"/>
    </contour>
    <contour>
      <point x="82" y="0" type="curve"/>
      <point x="127" y="0"/>
      <point x="59" y="0"/>
      <point x="192" y="0" type="curve"/>
      <point x="192" y="22"/>
      <point x="192" y="0"/>
      <point x="192" y="22" type="curve"/>
      <point x="59" y="22"/>
      <point x="215" y="22"/>
      <point x="82" y="22" type="curve"/>
      <point x="82" y="0"/>
      <point x="82" y="22"/>
    </contour>
    <contour>
      <point x="412" y="0" type="curve"/>
      <point x="455" y="0"/>
      <point x="474" y="0"/>
      <point x="517" y="0" type="curve"/>
      <point x="517" y="22"/>
      <point x="517" y="0"/>
      <point x="517" y="22" type="curve"/>
      <point x="389" y="22"/>
      <point x="540" y="22"/>
      <point x="412" y="22" type="curve"/>
      <point x="412" y="0"/>
      <point x="412" y="22"/>
    </contour>
    <contour>
      <point x="412" y="22" type="curve"/>
      <point x="278" y="22"/>
      <point x="435" y="22"/>
      <point x="301" y="22" type="curve"/>
      <point x="301" y="0"/>
      <point x="301" y="22"/>
      <point x="301" y="0" type="curve"/>
      <point x="345" y="0"/>
      <point x="367" y="0"/>
      <point x="412" y="0" type="curve"/>
      <point x="412" y="22"/>
      <point x="412" y="0"/>
    </contour>
    <contour>
      <point x="355" y="277" type="curve"/>
      <point x="286" y="277"/>
      <point x="218" y="277"/>
      <point x="148" y="277" type="curve"/>
      <point x="138" y="254"/>
      <point x="148" y="277"/>
      <point x="138" y="254" type="curve"/>
      <point x="214" y="254"/>
      <point x="288" y="254"/>
      <point x="363" y="254" type="curve"/>
      <point x="355" y="277"/>
      <point x="363" y="254"/>
    </contour>
    <contour>
      <point x="431" y="0" type="curve"/>
      <point x="376" y="241"/>
      <point x="322" y="481"/>
      <point x="268" y="722" type="curve"/>
      <point x="246" y="722"/>
      <point x="268" y="722"/>
      <point x="246" y="722" type="curve"/>
      <point x="299" y="481"/>
      <point x="352" y="241"/>
      <point x="406" y="0" type="curve"/>
      <point x="431" y="0"/>
      <point x="406" y="0"/>
    </contour>
    <contour>
      <point x="88" y="0" type="curve"/>
      <point x="148" y="241"/>
      <point x="207" y="481"/>
      <point x="266" y="722" type="curve"/>
      <point x="244" y="722"/>
      <point x="266" y="722"/>
      <point x="244" y="722" type="curve"/>
      <point x="184" y="481"/>
      <point x="123" y="241"/>
      <point x="61" y="0" type="curve"/>
      <point x="88" y="0"/>
      <point x="61" y="0"/>
    </contour>
    <contour>
      <point x="422" y="15" type="curve"/>
      <point x="377" y="-10"/>
      <point x="352" y="-49"/>
      <point x="352" y="-99" type="curve"/>
      <point x="352" y="-149"/>
      <point x="371" y="-194"/>
      <point x="415" y="-194" type="curve"/>
      <point x="438" y="-194"/>
      <point x="454" y="-178"/>
      <point x="469" y="-161" type="curve"/>
      <point x="465" y="-158"/>
      <point x="459" y="-152"/>
      <point x="454" y="-149" type="curve"/>
      <point x="443" y="-161"/>
      <point x="433" y="-172"/>
      <point x="417" y="-172" type="curve"/>
      <point x="385" y="-172"/>
      <point x="375" y="-136"/>
      <point x="375" y="-99" type="curve"/>
      <point x="375" y="-57"/>
      <point x="394" y="-23"/>
      <point x="431" y="0" type="curve"/>
      <point x="428" y="4"/>
      <point x="424" y="12"/>
    </contour>
  </outline>
</glyph>
<glyph name="cacute" format="1">
  <advance width="371"/>
  <unicode hex="0107"/>
  <outline>
    <contour>
      <point x="289" y="473" type="curve"/>
      <point x="289" y="353"/>
      <point x="289" y="485"/>
      <point x="289" y="365" type="curve"/>
      <point x="311" y="365"/>
      <point x="289" y="365"/>
      <point x="311" y="365" type="curve"/>
      <point x="311" y="485"/>
      <point x="311" y="353"/>
      <point x="311" y="473" type="curve"/>
      <point x="289" y="473"/>
      <point x="311" y="473"/>
    </contour>
    <contour>
      <point x="311" y="473" type="curve"/>
      <point x="287" y="506"/>
      <point x="252" y="538"/>
      <point x="211" y="538" type="curve"/>
      <point x="85" y="538"/>
      <point x="64" y="418"/>
      <point x="64" y="267" type="curve"/>
      <point x="64" y="116"/>
      <point x="83" y="-5"/>
      <point x="209" y="-5" type="curve"/>
      <point x="258" y="-5"/>
      <point x="296" y="37"/>
      <point x="318" y="89" type="curve"/>
      <point x="299" y="99"/>
      <point x="318" y="89"/>
      <point x="299" y="99" type="curve"/>
      <point x="285" y="65"/>
      <point x="252" y="17"/>
      <point x="210" y="17" type="curve"/>
      <point x="100" y="17"/>
      <point x="88" y="133"/>
      <point x="88" y="267" type="curve"/>
      <point x="88" y="401"/>
      <point x="105" y="516"/>
      <point x="210" y="516" type="curve"/>
      <point x="245" y="516"/>
      <point x="276" y="486"/>
      <point x="297" y="458" type="curve"/>
      <point x="311" y="473"/>
      <point x="297" y="458"/>
    </contour>
    <contour>
      <point x="219" y="671" type="line"/>
      <point x="273" y="837" type="line"/>
      <point x="243" y="837" type="line"/>
      <point x="196" y="671" type="line"/>
    </contour>
  </outline>
</glyph>
<glyph name="dcaron" format="1">
  <advance width="453"/>
  <unicode hex="010F"/>
  <outline>
    <contour>
      <point x="328" y="800" type="curve"/>
      <point x="286" y="800"/>
      <point x="267" y="800"/>
      <point x="225" y="800" type="curve"/>
      <point x="225" y="778"/>
      <point x="225" y="800"/>
      <point x="225" y="778" type="curve"/>
      <point x="351" y="778"/>
      <point x="202" y="778"/>
      <point x="328" y="778" type="curve"/>
      <point x="328" y="800"/>
      <point x="328" y="778"/>
    </contour>
    <contour>
      <point x="329" y="0" type="curve"/>
      <point x="371" y="0"/>
      <point x="390" y="0"/>
      <point x="432" y="0" type="curve"/>
      <point x="432" y="22"/>
      <point x="432" y="0"/>
      <point x="432" y="22" type="curve"/>
      <point x="306" y="22"/>
      <point x="455" y="22"/>
      <point x="329" y="22" type="curve"/>
      <point x="329" y="0"/>
      <point x="329" y="22"/>
    </contour>
    <contour>
      <point x="336" y="437" type="curve"/>
      <point x="324" y="493"/>
      <point x="274" y="538"/>
      <point x="212" y="538" type="curve"/>
      <point x="91" y="538"/>
      <point x="61" y="405"/>
      <point x="61" y="264" type="curve"/>
      <point x="61" y="125"/>
      <point x="94" y="-5"/>
      <point x="213" y="-5" type="curve"/>
      <point x="281" y="-5"/>
      <point x="320" y="54"/>
      <point x="336" y="131" type="curve"/>
      <point x="321" y="146"/>
      <point x="336" y="131"/>
      <point x="321" y="146" type="curve"/>
      <point x="305" y="74"/>
      <point x="267" y="17"/>
      <point x="212" y="17" type="curve"/>
      <point x="111" y="17"/>
      <point x="84" y="139"/>
      <point x="84" y="265" type="curve"/>
      <point x="84" y="392"/>
      <point x="110" y="516"/>
      <point x="213" y="516" type="curve"/>
      <point x="261" y="516"/>
      <point x="308" y="475"/>
      <point x="321" y="421" type="curve"/>
      <point x="336" y="437"/>
      <point x="321" y="421"/>
    </contour>
    <contour>
      <point x="341" y="0" type="curve"/>
      <point x="341" y="267"/>
      <point x="341" y="533"/>
      <point x="341" y="800" type="curve"/>
      <point x="316" y="800"/>
      <point x="341" y="800"/>
      <point x="316" y="800" type="curve"/>
      <point x="316" y="533"/>
      <point x="316" y="267"/>
      <point x="316" y="0" type="curve"/>
      <point x="341" y="0"/>
      <point x="316" y="0"/>
    </contour>
    <contour>
      <point x="439" y="677" type="line"/>
      <point x="461" y="701"/>
      <point x="479" y="727"/>
      <point x="479" y="772" type="curve"/>
      <point x="479" y="792"/>
      <point x="476" y="809"/>
      <point x="458" y="809" type="curve"/>
      <point x="445" y="809"/>
      <point x="438" y="803"/>
      <point x="438" y="791" type="curve"/>
      <point x="438" y="781"/>
      <point x="442" y="775"/>
      <point x="453" y="770" type="curve"/>
      <point x="453" y="750"/>
      <point x="444" y="716"/>
      <point x="422" y="694" type="curve"/>
    </contour>
  </outline>
</glyph>
<glyph name="Emacron" format="1">
  <advance width="450"/>
  <unicode hex="0112"/>
  <outline>
    <contour>
      <point x="402" y="11" type="curve"/>
      <point x="402" y="131"/>
      <point x="402" y="-1"/>
      <point x="402" y="120" type="curve"/>
      <point x="379" y="120"/>
      <point x="402" y="120"/>
      <point x="379" y="120" type="curve"/>
      <point x="379" y="-1"/>
      <point x="379" y="131"/>
      <point x="379" y="11" type="curve"/>
      <point x="402" y="11"/>
      <point x="379" y="11"/>
    </contour>
    <contour>
      <point x="359" y="711" type="curve"/>
      <point x="359" y="591"/>
      <point x="359" y="723"/>
      <point x="359" y="603" type="curve"/>
      <point x="381" y="603"/>
      <point x="359" y="603"/>
      <point x="381" y="603" type="curve"/>
      <point x="381" y="723"/>
      <point x="381" y="591"/>
      <point x="381" y="711" type="curve"/>
      <point x="359" y="711"/>
      <point x="381" y="711"/>
    </contour>
    <contour>
      <point x="143" y="22" type="curve"/>
      <point x="17" y="22"/>
      <point x="166" y="22"/>
      <point x="40" y="22" type="curve"/>
      <point x="40" y="0"/>
      <point x="40" y="22"/>
      <point x="40" y="0" type="curve"/>
      <point x="82" y="0"/>
      <point x="101" y="0"/>
      <point x="143" y="0" type="curve"/>
      <point x="143" y="22"/>
      <point x="143" y="0"/>
    </contour>
    <contour>
      <point x="143" y="722" type="curve"/>
      <point x="101" y="722"/>
      <point x="82" y="722"/>
      <point x="40" y="722" type="curve"/>
      <point x="40" y="700"/>
      <point x="40" y="722"/>
      <point x="40" y="700" type="curve"/>
      <point x="166" y="700"/>
      <point x="17" y="700"/>
      <point x="143" y="700" type="curve"/>
      <point x="143" y="722"/>
      <point x="143" y="700"/>
    </contour>
    <contour>
      <point x="145" y="363" type="curve"/>
      <point x="211" y="363"/>
      <point x="277" y="363"/>
      <point x="343" y="363" type="curve"/>
      <point x="343" y="385"/>
      <point x="343" y="363"/>
      <point x="343" y="385" type="curve"/>
      <point x="277" y="385"/>
      <point x="211" y="385"/>
      <point x="145" y="385" type="curve"/>
      <point x="145" y="363"/>
      <point x="145" y="385"/>
    </contour>
    <contour>
      <point x="137" y="700" type="curve"/>
      <point x="218" y="700"/>
      <point x="299" y="700"/>
      <point x="381" y="700" type="curve"/>
      <point x="381" y="722"/>
      <point x="381" y="700"/>
      <point x="381" y="722" type="curve"/>
      <point x="299" y="722"/>
      <point x="218" y="722"/>
      <point x="137" y="722" type="curve"/>
      <point x="137" y="700"/>
      <point x="137" y="722"/>
    </contour>
    <contour>
      <point x="155" y="0" type="curve"/>
      <point x="155" y="722" type="line"/>
      <point x="131" y="722"/>
      <point x="155" y="722"/>
      <point x="131" y="722" type="curve"/>
      <point x="131" y="481"/>
      <point x="131" y="241"/>
      <point x="131" y="0" type="curve"/>
      <point x="155" y="0"/>
      <point x="131" y="0"/>
    </contour>
    <contour>
      <point x="137" y="0" type="curve"/>
      <point x="225" y="0"/>
      <point x="313" y="0"/>
      <point x="402" y="0" type="curve"/>
      <point x="402" y="22"/>
      <point x="402" y="0"/>
      <point x="402" y="22" type="curve"/>
      <point x="313" y="22"/>
      <point x="225" y="22"/>
      <point x="137" y="22" type="curve"/>
      <point x="137" y="0"/>
      <point x="137" y="22"/>
    </contour>
    <contour>
      <point x="290" y="846" type="curve"/>
      <point x="246" y="846"/>
      <point x="200" y="846"/>
      <point x="155" y="846" type="curve"/>
      <point x="155" y="825"/>
      <point x="155" y="846"/>
      <point x="155" y="825" type="curve"/>
      <point x="200" y="825"/>
      <point x="246" y="825"/>
      <point x="290" y="825" type="curve"/>
      <point x="290" y="846"/>
      <point x="290" y="825"/>
    </contour>
  </outline>
</glyph>
<glyph name="gcommaaccent" format="1">
  <advance width="365"/>
  <unicode hex="0123"/>
  <outline>
    <contour>
      <point x="253" y="500" type="curve"/>
      <point x="344" y="582" type="line"/>
      <point x="328" y="604"/>
      <point x="346" y="579"/>
      <point x="330" y="600" type="curve"/>
      <point x="240" y="517" type="line"/>
      <point x="253" y="500"/>
      <point x="240" y="517"/>
    </contour>
    <contour>
      <point x="94" y="358" type="curve"/>
      <point x="94" y="438"/>
      <point x="118" y="517"/>
      <point x="188" y="517" type="curve"/>
      <point x="259" y="517"/>
      <point x="280" y="443"/>
      <point x="280" y="361" type="curve"/>
      <point x="280" y="285"/>
      <point x="257" y="210"/>
      <point x="188" y="210" type="curve"/>
      <point x="120" y="210"/>
      <point x="94" y="281"/>
      <point x="94" y="358" type="curve"/>
      <point x="71" y="357"/>
      <point x="94" y="358"/>
      <point x="71" y="357" type="curve"/>
      <point x="71" y="267"/>
      <point x="105" y="189"/>
      <point x="186" y="189" type="curve"/>
      <point x="268" y="189"/>
      <point x="304" y="269"/>
      <point x="304" y="362" type="curve"/>
      <point x="304" y="455"/>
      <point x="271" y="538"/>
      <point x="188" y="538" type="curve"/>
      <point x="103" y="538"/>
      <point x="71" y="453"/>
      <point x="71" y="357" type="curve"/>
      <point x="94" y="358"/>
      <point x="71" y="357"/>
    </contour>
    <contour>
      <point x="119" y="228" type="curve"/>
      <point x="86" y="195"/>
      <point x="73" y="157"/>
      <point x="73" y="109" type="curve"/>
      <point x="73" y="43"/>
      <point x="117" y="-4"/>
      <point x="183" y="-13" type="curve"/>
      <point x="259" y="-23"/>
      <point x="314" y="-70"/>
      <point x="314" y="-144" type="curve"/>
      <point x="314" y="-222"/>
      <point x="264" y="-283"/>
      <point x="186" y="-283" type="curve"/>
      <point x="110" y="-283"/>
      <point x="68" y="-215"/>
      <point x="68" y="-134" type="curve"/>
      <point x="68" y="-74"/>
      <point x="83" y="-22"/>
      <point x="133" y="11" type="curve"/>
      <point x="122" y="27"/>
      <point x="133" y="11"/>
      <point x="122" y="27" type="curve"/>
      <point x="65" y="-12"/>
      <point x="44" y="-67"/>
      <point x="44" y="-135" type="curve"/>
      <point x="44" y="-228"/>
      <point x="95" y="-304"/>
      <point x="185" y="-304" type="curve"/>
      <point x="276" y="-304"/>
      <point x="337" y="-235"/>
      <point x="336" y="-142" type="curve"/>
      <point x="336" y="-59"/>
      <point x="274" y="-4"/>
      <point x="188" y="8" type="curve"/>
      <point x="132" y="14"/>
      <point x="97" y="56"/>
      <point x="97" y="112" type="curve"/>
      <point x="97" y="153"/>
      <point x="103" y="186"/>
      <point x="133" y="214" type="curve"/>
      <point x="119" y="228"/>
      <point x="133" y="214"/>
    </contour>
    <contour>
      <point x="221" y="804" type="line"/>
      <point x="198" y="781"/>
      <point x="181" y="755"/>
      <point x="181" y="709" type="curve"/>
      <point x="181" y="689"/>
      <point x="183" y="672"/>
      <point x="201" y="672" type="curve"/>
      <point x="214" y="672"/>
      <point x="221" y="678"/>
      <point x="221" y="690" type="curve"/>
      <point x="221" y="700"/>
      <point x="217" y="706"/>
      <point x="206" y="711" type="curve"/>
      <point x="206" y="732"/>
      <point x="216" y="765"/>
      <point x="237" y="788" type="curve"/>
    </contour>
  </outline>
</glyph>
<glyph name="lacute" format="1">
  <advance width="244"/>
  <unicode hex="013A"/>
  <outline>
    <contour>
      <point x="123" y="22" type="curve"/>
      <point x="8" y="22"/>
      <point x="123" y="22"/>
      <point x="8" y="22" type="curve"/>
      <point x="8" y="0"/>
      <point x="8" y="22"/>
      <point x="8" y="0" type="curve"/>
      <point x="47" y="0"/>
      <point x="84" y="0"/>
      <point x="123" y="0" type="curve"/>
      <point x="123" y="22"/>
      <point x="123" y="0"/>
    </contour>
    <contour>
      <point x="124" y="800" type="curve"/>
      <point x="85" y="800"/>
      <point x="47" y="800"/>
      <point x="9" y="800" type="curve"/>
      <point x="9" y="778"/>
      <point x="9" y="800"/>
      <point x="9" y="778" type="curve"/>
      <point x="124" y="778"/>
      <point x="9" y="778"/>
      <point x="124" y="778" type="curve"/>
      <point x="124" y="800"/>
      <point x="124" y="778"/>
    </contour>
    <contour>
      <point x="123" y="0" type="curve"/>
      <point x="162" y="0"/>
      <point x="199" y="0"/>
      <point x="238" y="0" type="curve"/>
      <point x="238" y="22"/>
      <point x="238" y="0"/>
      <point x="238" y="22" type="curve"/>
      <point x="123" y="22"/>
      <point x="238" y="22"/>
      <point x="123" y="22" type="curve"/>
      <point x="123" y="0"/>
      <point x="123" y="22"/>
    </contour>
    <contour>
      <point x="134" y="0" type="curve"/>
      <point x="134" y="267"/>
      <point x="134" y="533"/>
      <point x="134" y="800" type="curve"/>
      <point x="110" y="800"/>
      <point x="134" y="800"/>
      <point x="110" y="800" type="curve"/>
      <point x="110" y="533"/>
      <point x="110" y="267"/>
      <point x="110" y="0" type="curve"/>
      <point x="134" y="0"/>
      <point x="110" y="0"/>
    </contour>
    <contour>
      <point x="132" y="884" type="line"/>
      <point x="186" y="1050" type="line"/>
      <point x="157" y="1050" type="line"/>
      <point x="109" y="884" type="line"/>
    </contour>
  </outline>
</glyph>
<glyph name="Lcaron" format="1">
  <advance width="439"/>
  <unicode hex="013D"/>
  <outline>
    <contour>
      <point x="397" y="11" type="curve"/>
      <point x="397" y="131"/>
      <point x="397" y="-1"/>
      <point x="397" y="120" type="curve"/>
      <point x="375" y="120"/>
      <point x="397" y="120"/>
      <point x="375" y="120" type="curve"/>
      <point x="375" y="-1"/>
      <point x="375" y="131"/>
      <point x="375" y="11" type="curve"/>
      <point x="397" y="11"/>
      <point x="375" y="11"/>
    </contour>
    <contour>
      <point x="142" y="22" type="curve"/>
      <point x="16" y="22"/>
      <point x="165" y="22"/>
      <point x="39" y="22" type="curve"/>
      <point x="39" y="0"/>
      <point x="39" y="22"/>
      <point x="39" y="0" type="curve"/>
      <point x="81" y="0"/>
      <point x="100" y="0"/>
      <point x="142" y="0" type="curve"/>
      <point x="142" y="22"/>
      <point x="142" y="0"/>
    </contour>
    <contour>
      <point x="142" y="722" type="curve"/>
      <point x="100" y="722"/>
      <point x="81" y="722"/>
      <point x="39" y="722" type="curve"/>
      <point x="39" y="700"/>
      <point x="39" y="722"/>
      <point x="39" y="700" type="curve"/>
      <point x="165" y="700"/>
      <point x="16" y="700"/>
      <point x="142" y="700" type="curve"/>
      <point x="142" y="722"/>
      <point x="142" y="700"/>
    </contour>
    <contour>
      <point x="142" y="700" type="curve"/>
      <point x="269" y="700"/>
      <point x="119" y="700"/>
      <point x="246" y="700" type="curve"/>
      <point x="246" y="722"/>
      <point x="246" y="700"/>
      <point x="246" y="722" type="curve"/>
      <point x="203" y="722"/>
      <point x="184" y="722"/>
      <point x="142" y="722" type="curve"/>
      <point x="142" y="700"/>
      <point x="142" y="722"/>
    </contour>
    <contour>
      <point x="155" y="0" type="curve"/>
      <point x="155" y="241"/>
      <point x="155" y="481"/>
      <point x="155" y="722" type="curve"/>
      <point x="131" y="722"/>
      <point x="155" y="722"/>
      <point x="131" y="722" type="curve"/>
      <point x="131" y="481"/>
      <point x="131" y="241"/>
      <point x="131" y="0" type="curve"/>
      <point x="155" y="0"/>
      <point x="131" y="0"/>
    </contour>
    <contour>
      <point x="142" y="0" type="curve"/>
      <point x="228" y="0"/>
      <point x="312" y="0"/>
      <point x="397" y="0" type="curve"/>
      <point x="397" y="22"/>
      <point x="397" y="0"/>
      <point x="397" y="22" type="curve"/>
      <point x="312" y="22"/>
      <point x="228" y="22"/>
      <point x="142" y="22" type="curve"/>
      <point x="142" y="0"/>
      <point x="142" y="22"/>
    </contour>
    <contour>
      <point x="369" y="594" type="line"/>
      <point x="392" y="618"/>
      <point x="409" y="644"/>
      <point x="409" y="690" type="curve"/>
      <point x="409" y="710"/>
      <point x="406" y="726"/>
      <point x="388" y="726" type="curve"/>
      <point x="375" y="726"/>
      <point x="368" y="720"/>
      <point x="368" y="708" type="curve"/>
      <point x="368" y="698"/>
      <point x="372" y="692"/>
      <point x="383" y="687" type="curve"/>
      <point x="383" y="667"/>
      <point x="374" y="633"/>
      <point x="353" y="611" type="curve"/>
    </contour>
  </outline>
</glyph>
<glyph name="nacute" format="1">
  <advance width="467"/>
  <unicode hex="0144"/>
  <outline>
    <contour>
      <point x="143" y="338" type="curve"/>
      <point x="145" y="433"/>
      <point x="200" y="516"/>
      <point x="263" y="516" type="curve"/>
      <point x="338" y="516"/>
      <point x="349" y="435"/>
      <point x="349" y="341" type="curve"/>
      <point x="349" y="228"/>
      <point x="349" y="114"/>
      <point x="349" y="0" type="curve"/>
      <point x="373" y="0"/>
      <point x="349" y="0"/>
      <point x="373" y="0" type="curve"/>
      <point x="373" y="115"/>
      <point x="373" y="229"/>
      <point x="373" y="344" type="curve"/>
      <point x="373" y="449"/>
      <point x="357" y="538"/>
      <point x="267" y="538" type="curve"/>
      <point x="189" y="538"/>
      <point x="131" y="459"/>
      <point x="131" y="356" type="curve"/>
      <point x="144" y="343"/>
      <point x="129" y="351"/>
    </contour>
    <contour>
      <point x="360" y="0" type="curve"/>
      <point x="397" y="0"/>
      <point x="426" y="0"/>
      <point x="463" y="0" type="curve"/>
      <point x="463" y="22"/>
      <point x="463" y="0"/>
      <point x="463" y="22" type="curve"/>
      <point x="350" y="22"/>
      <point x="474" y="22"/>
      <point x="360" y="22" type="curve"/>
      <point x="360" y="0"/>
      <point x="360" y="22"/>
    </contour>
    <contour>
      <point x="137" y="22" type="curve"/>
      <point x="23" y="22"/>
      <point x="148" y="22"/>
      <point x="34" y="22" type="curve"/>
      <point x="34" y="0"/>
      <point x="34" y="22"/>
      <point x="34" y="0" type="curve"/>
      <point x="71" y="0"/>
      <point x="100" y="0"/>
      <point x="137" y="0" type="curve"/>
      <point x="137" y="22"/>
      <point x="137" y="0"/>
    </contour>
    <contour>
      <point x="137" y="0" type="curve"/>
      <point x="168" y="0"/>
      <point x="119" y="0"/>
      <point x="215" y="0" type="curve"/>
      <point x="215" y="22"/>
      <point x="215" y="0"/>
      <point x="215" y="22" type="curve"/>
      <point x="119" y="22"/>
      <point x="233" y="22"/>
      <point x="137" y="22" type="curve"/>
      <point x="137" y="0"/>
      <point x="137" y="22"/>
    </contour>
    <contour>
      <point x="149" y="0" type="curve"/>
      <point x="149" y="178"/>
      <point x="149" y="355"/>
      <point x="149" y="533" type="curve"/>
      <point x="125" y="533"/>
      <point x="149" y="533"/>
      <point x="125" y="533" type="curve"/>
      <point x="125" y="355"/>
      <point x="125" y="178"/>
      <point x="125" y="0" type="curve"/>
      <point x="149" y="0"/>
      <point x="125" y="0"/>
    </contour>
    <contour>
      <point x="137" y="533" type="curve"/>
      <point x="100" y="533"/>
      <point x="71" y="533"/>
      <point x="34" y="533" type="curve"/>
      <point x="34" y="511"/>
      <point x="34" y="533"/>
      <point x="34" y="511" type="curve"/>
      <point x="148" y="511"/>
      <point x="23" y="511"/>
      <point x="137" y="511" type="curve"/>
      <point x="137" y="533"/>
      <point x="137" y="511"/>
    </contour>
    <contour>
      <point x="275" y="671" type="line"/>
      <point x="329" y="837" type="line"/>
      <point x="300" y="837" type="line"/>
      <point x="252" y="671" type="line"/>
    </contour>
  </outline>
</glyph>
<glyph name="omacron" format="1">
  <advance width="411"/>
  <unicode hex="014D"/>
  <outline>
    <contour>
      <point x="88" y="268" type="curve"/>
      <point x="88" y="402"/>
      <point x="101" y="517"/>
      <point x="204" y="517" type="curve"/>
      <point x="312" y="517"/>
      <point x="324" y="400"/>
      <point x="324" y="266" type="curve"/>
      <point x="324" y="133"/>
      <point x="310" y="17"/>
      <point x="207" y="17" type="curve"/>
      <point x="94" y="17"/>
      <point x="88" y="135"/>
      <point x="88" y="268" type="curve"/>
      <point x="64" y="268"/>
      <point x="88" y="268"/>
      <point x="64" y="268" type="curve"/>
      <point x="64" y="121"/>
      <point x="81" y="-5"/>
      <point x="206" y="-5" type="curve"/>
      <point x="329" y="-5"/>
      <point x="348" y="119"/>
      <point x="348" y="266" type="curve"/>
      <point x="348" y="413"/>
      <point x="329" y="538"/>
      <point x="205" y="538" type="curve"/>
      <point x="83" y="538"/>
      <point x="64" y="413"/>
      <point x="64" y="268" type="curve"/>
      <point x="88" y="268"/>
      <point x="64" y="268"/>
    </contour>
    <contour>
      <point x="269" y="692" type="curve"/>
      <point x="225" y="692"/>
      <point x="179" y="692"/>
      <point x="134" y="692" type="curve"/>
      <point x="134" y="671"/>
      <point x="134" y="692"/>
      <point x="134" y="671" type="curve"/>
      <point x="179" y="671"/>
      <point x="225" y="671"/>
      <point x="269" y="671" type="curve"/>
      <point x="269" y="692"/>
      <point x="269" y="671"/>
    </contour>
  </outline>
</glyph>
<glyph name="scaron" format="1">
  <advance width="337"/>
  <unicode hex="0161"/>
  <outline>
    <contour>
      <point x="47" y="49" type="curve"/>
      <point x="83" y="17"/>
      <point x="124" y="-5"/>
      <point x="169" y="-5" type="curve"/>
      <point x="244" y="-5"/>
      <point x="275" y="56"/>
      <point x="275" y="130" type="curve"/>
      <point x="274" y="209"/>
      <point x="236" y="256"/>
      <point x="168" y="289" type="curve" smooth="yes"/>
      <point x="114" y="317"/>
      <point x="92" y="358"/>
      <point x="92" y="422" type="curve"/>
      <point x="92" y="471"/>
      <point x="112" y="516"/>
      <point x="159" y="516" type="curve"/>
      <point x="194" y="516"/>
      <point x="216" y="501"/>
      <point x="242" y="473" type="curve"/>
      <point x="245" y="479"/>
      <point x="250" y="487"/>
      <point x="253" y="492" type="curve"/>
      <point x="224" y="522"/>
      <point x="199" y="538"/>
      <point x="160" y="538" type="curve"/>
      <point x="101" y="538"/>
      <point x="70" y="483"/>
      <point x="70" y="422" type="curve"/>
      <point x="70" y="350"/>
      <point x="97" y="300"/>
      <point x="161" y="268" type="curve" smooth="yes"/>
      <point x="218" y="239"/>
      <point x="252" y="200"/>
      <point x="251" y="130" type="curve"/>
      <point x="251" y="71"/>
      <point x="227" y="17"/>
      <point x="173" y="17" type="curve"/>
      <point x="130" y="17"/>
      <point x="93" y="38"/>
      <point x="59" y="67" type="curve"/>
      <point x="48" y="49"/>
      <point x="59" y="68"/>
    </contour>
    <contour>
      <point x="231" y="492" type="curve"/>
      <point x="231" y="372"/>
      <point x="231" y="504"/>
      <point x="231" y="384" type="curve"/>
      <point x="253" y="384"/>
      <point x="231" y="384"/>
      <point x="253" y="384" type="curve"/>
      <point x="253" y="504"/>
      <point x="253" y="372"/>
      <point x="253" y="492" type="curve"/>
      <point x="247" y="492"/>
      <point x="237" y="492"/>
    </contour>
    <contour>
      <point x="70" y="49" type="curve"/>
      <point x="70" y="169"/>
      <point x="70" y="37"/>
      <point x="70" y="157" type="curve"/>
      <point x="48" y="157"/>
      <point x="70" y="157"/>
      <point x="48" y="157" type="curve"/>
      <point x="48" y="37"/>
      <point x="48" y="169"/>
      <point x="48" y="49" type="curve"/>
      <point x="70" y="49"/>
      <point x="48" y="49"/>
    </contour>
    <contour>
      <point x="212" y="837" type="line"/>
      <point x="158" y="671" type="line"/>
      <point x="188" y="671" type="line"/>
      <point x="235" y="837" type="line"/>
    </contour>
    <contour>
      <point x="100" y="837" type="line"/>
      <point x="148" y="671" type="line"/>
      <point x="177" y="671" type="line"/>
      <point x="123" y="837" type="line"/>
    </contour>
  </outline>
</glyph>
<glyph name="Tcaron" format="1">
  <advance width="469"/>
  <unicode hex="0164"/>
  <outline>
    <contour>
      <point x="48" y="710" type="curve"/>
      <point x="48" y="590"/>
      <point x="48" y="723"/>
      <point x="48" y="603" type="curve"/>
      <point x="70" y="603"/>
      <point x="48" y="603"/>
      <point x="70" y="603" type="curve"/>
      <point x="70" y="723"/>
      <point x="70" y="590"/>
      <point x="70" y="710" type="curve"/>
      <point x="48" y="710"/>
      <point x="70" y="710"/>
    </contour>
    <contour>
      <point x="399" y="710" type="curve"/>
      <point x="399" y="590"/>
      <point x="399" y="723"/>
      <point x="399" y="603" type="curve"/>
      <point x="421" y="603"/>
      <point x="399" y="603"/>
      <point x="421" y="603" type="curve"/>
      <point x="421" y="723"/>
      <point x="421" y="590"/>
      <point x="421" y="710" type="curve"/>
      <point x="399" y="710"/>
      <point x="421" y="710"/>
    </contour>
    <contour>
      <point x="235" y="0" type="curve"/>
      <point x="273" y="0"/>
      <point x="300" y="0"/>
      <point x="338" y="0" type="curve"/>
      <point x="338" y="22"/>
      <point x="338" y="0"/>
      <point x="338" y="22" type="curve"/>
      <point x="224" y="22"/>
      <point x="348" y="22"/>
      <point x="235" y="22" type="curve"/>
      <point x="235" y="0"/>
      <point x="235" y="22"/>
    </contour>
    <contour>
      <point x="235" y="22" type="curve"/>
      <point x="120" y="22"/>
      <point x="245" y="22"/>
      <point x="130" y="22" type="curve"/>
      <point x="130" y="0"/>
      <point x="130" y="22"/>
      <point x="130" y="0" type="curve"/>
      <point x="169" y="0"/>
      <point x="196" y="0"/>
      <point x="235" y="0" type="curve"/>
      <point x="235" y="22"/>
      <point x="235" y="0"/>
    </contour>
    <contour>
      <point x="246" y="0" type="curve"/>
      <point x="246" y="237"/>
      <point x="246" y="473"/>
      <point x="246" y="710" type="curve"/>
      <point x="222" y="710"/>
      <point x="246" y="710"/>
      <point x="222" y="710" type="curve"/>
      <point x="222" y="473"/>
      <point x="222" y="237"/>
      <point x="222" y="0" type="curve"/>
      <point x="246" y="0"/>
      <point x="222" y="0"/>
    </contour>
    <contour>
      <point x="48" y="698" type="curve"/>
      <point x="172" y="698"/>
      <point x="297" y="698"/>
      <point x="421" y="698" type="curve"/>
      <point x="421" y="722"/>
      <point x="421" y="698"/>
      <point x="421" y="722" type="curve"/>
      <point x="297" y="722"/>
      <point x="172" y="722"/>
      <point x="48" y="722" type="curve"/>
      <point x="48" y="698"/>
      <point x="48" y="722"/>
    </contour>
    <contour>
      <point x="280" y="991" type="line"/>
      <point x="226" y="825" type="line"/>
      <point x="255" y="825" type="line"/>
      <point x="303" y="991" type="line"/>
    </contour>
    <contour>
      <point x="168" y="991" type="line"/>
      <point x="215" y="825" type="line"/>
      <point x="245" y="825" type="line"/>
      <point x="191" y="991" type="line"/>
    </contour>
  </outline>
</glyph>
<glyph name="uring" format="1">
  <advance width="435"/>
  <unicode hex="016F"/>
  <outline>
    <contour>
      <point x="330" y="533" type="curve"/>
      <point x="292" y="533"/>
      <point x="264" y="533"/>
      <point x="226" y="533" type="curve"/>
      <point x="226" y="511"/>
      <point x="226" y="533"/>
      <point x="226" y="511" type="curve"/>
      <point x="340" y="511"/>
      <point x="216" y="511"/>
      <point x="330" y="511" type="curve"/>
      <point x="330" y="533"/>
      <point x="330" y="511"/>
    </contour>
    <contour>
      <point x="109" y="533" type="curve"/>
      <point x="72" y="533"/>
      <point x="44" y="533"/>
      <point x="6" y="533" type="curve"/>
      <point x="6" y="511"/>
      <point x="6" y="533"/>
      <point x="6" y="511" type="curve"/>
      <point x="120" y="511"/>
      <point x="-4" y="511"/>
      <point x="109" y="511" type="curve"/>
      <point x="109" y="533"/>
      <point x="109" y="511"/>
    </contour>
    <contour>
      <point x="330" y="0" type="curve"/>
      <point x="366" y="0"/>
      <point x="391" y="0"/>
      <point x="427" y="0" type="curve"/>
      <point x="427" y="22"/>
      <point x="427" y="0"/>
      <point x="427" y="22" type="curve"/>
      <point x="320" y="22"/>
      <point x="438" y="22"/>
      <point x="330" y="22" type="curve"/>
      <point x="330" y="0"/>
      <point x="330" y="22"/>
    </contour>
    <contour>
      <point x="342" y="0" type="curve"/>
      <point x="342" y="178"/>
      <point x="342" y="355"/>
      <point x="342" y="533" type="curve"/>
      <point x="318" y="533"/>
      <point x="342" y="533"/>
      <point x="318" y="533" type="curve"/>
      <point x="318" y="355"/>
      <point x="318" y="178"/>
      <point x="318" y="0" type="curve"/>
      <point x="342" y="0"/>
      <point x="318" y="0"/>
    </contour>
    <contour>
      <point x="321" y="172" type="curve"/>
      <point x="308" y="98"/>
      <point x="268" y="17"/>
      <point x="216" y="17" type="curve"/>
      <point x="137" y="17"/>
      <point x="121" y="95"/>
      <point x="121" y="187" type="curve"/>
      <point x="121" y="302"/>
      <point x="121" y="418"/>
      <point x="121" y="533" type="curve"/>
      <point x="97" y="533"/>
      <point x="121" y="533"/>
      <point x="97" y="533" type="curve"/>
      <point x="97" y="417"/>
      <point x="97" y="301"/>
      <point x="97" y="185" type="curve"/>
      <point x="97" y="80"/>
      <point x="120" y="-5"/>
      <point x="217" y="-5" type="curve"/>
      <point x="288" y="-5"/>
      <point x="321" y="78"/>
      <point x="337" y="163" type="curve"/>
      <point x="321" y="174"/>
      <point x="337" y="162"/>
    </contour>
    <contour>
      <point x="133" y="786" type="curve"/>
      <point x="133" y="723"/>
      <point x="151" y="670"/>
      <point x="206" y="670" type="curve"/>
      <point x="262" y="670"/>
      <point x="281" y="722"/>
      <point x="281" y="786" type="curve"/>
      <point x="281" y="850"/>
      <point x="261" y="903"/>
      <point x="204" y="903" type="curve"/>
      <point x="150" y="903"/>
      <point x="133" y="850"/>
      <point x="133" y="786" type="curve"/>
      <point x="156" y="786"/>
      <point x="133" y="786"/>
      <point x="156" y="786" type="curve"/>
      <point x="156" y="836"/>
      <point x="163" y="881"/>
      <point x="204" y="881" type="curve"/>
      <point x="247" y="881"/>
      <point x="257" y="837"/>
      <point x="257" y="786" type="curve"/>
      <point x="257" y="736"/>
      <point x="248" y="691"/>
      <point x="206" y="691" type="curve"/>
      <point x="164" y="691"/>
      <point x="156" y="736"/>
      <point x="156" y="786" type="curve"/>
      <point x="133" y="786"/>
      <point x="156" y="786"/>
    </contour>
  </outline>
</glyph>
<glyph name="uogonek" format="1">
  <advance width="435"/>
  <unicode hex="0173"/>
  <outline>
    <contour>
      <point x="330" y="533" type="curve"/>
      <point x="292" y="533"/>
      <point x="264" y="533"/>
      <point x="226" y="533" type="curve"/>
      <point x="226" y="511"/>
      <point x="226" y="533"/>
      <point x="226" y="511" type="curve"/>
      <point x="340" y="511"/>
      <point x="216" y="511"/>
      <point x="330" y="511" type="curve"/>
      <point x="330" y="533"/>
      <point x="330" y="511"/>
    </contour>
    <contour>
      <point x="109" y="533" type="curve"/>
      <point x="72" y="533"/>
      <point x="44" y="533"/>
      <point x="6" y="533" type="curve"/>
      <point x="6" y="511"/>
      <point x="6" y="533"/>
      <point x="6" y="511" type="curve"/>
      <point x="120" y="511"/>
      <point x="-4" y="511"/>
      <point x="109" y="511" type="curve"/>
      <point x="109" y="533"/>
      <point x="109" y="511"/>
    </contour>
    <contour>
      <point x="330" y="0" type="curve"/>
      <point x="366" y="0"/>
      <point x="391" y="0"/>
      <point x="427" y="0" type="curve"/>
      <point x="427" y="22"/>
      <point x="427" y="0"/>
      <point x="427" y="22" type="curve"/>
      <point x="320" y="22"/>
      <point x="438" y="22"/>
      <point x="330" y="22" type="curve"/>
      <point x="330" y="0"/>
      <point x="330" y="22"/>
    </contour>
    <contour>
      <point x="342" y="0" type="curve"/>
      <point x="342" y="178"/>
      <point x="342" y="355"/>
      <point x="342" y="533" type="curve"/>
      <point x="318" y="533"/>
      <point x="342" y="533"/>
      <point x="318" y="533" type="curve"/>
      <point x="318" y="355"/>
      <point x="318" y="178"/>
      <point x="318" y="0" type="curve"/>
      <point x="342" y="0"/>
      <point x="318" y="0"/>
    </contour>
    <contour>
      <point x="321" y="172" type="curve"/>
      <point x="308" y="98"/>
      <point x="268" y="17"/>
      <point x="216" y="17" type="curve"/>
      <point x="137" y="17"/>
      <point x="121" y="95"/>
      <point x="121" y="187" type="curve"/>
      <point x="121" y="302"/>
      <point x="121" y="418"/>
      <point x="121" y="533" type="curve"/>
      <point x="97" y="533"/>
      <point x="121" y="533"/>
      <point x="97" y="533" type="curve"/>
      <point x="97" y="417"/>
      <point x="97" y="301"/>
      <point x="97" y="185" type="curve"/>
      <point x="97" y="80"/>
      <point x="120" y="-5"/>
      <point x="217" y="-5" type="curve"/>
      <point x="288" y="-5"/>
      <point x="321" y="78"/>
      <point x="337" y="163" type="curve"/>
      <point x="321" y="174"/>
      <point x="337" y="162"/>
    </contour>
    <contour>
      <point x="333" y="15" type="curve"/>
      <point x="289" y="-10"/>
      <point x="263" y="-49"/>
      <point x="263" y="-99" type="curve"/>
      <point x="263" y="-149"/>
      <point x="283" y="-194"/>
      <point x="327" y="-194" type="curve"/>
      <point x="349" y="-194"/>
      <point x="365" y="-178"/>
      <point x="380" y="-161" type="curve"/>
      <point x="376" y="-158"/>
      <point x="370" y="-152"/>
      <point x="366" y="-149" type="curve"/>
      <point x="354" y="-161"/>
      <point x="344" y="-172"/>
      <point x="329" y="-172" type="curve"/>
      <point x="297" y="-172"/>
      <point x="287" y="-136"/>
      <point x="287" y="-99" type="curve"/>
      <point x="287" y="-57"/>
      <point x="306" y="-23"/>
      <point x="342" y="0" type="curve"/>
      <point x="340" y="4"/>
      <point x="335" y="12"/>
    </contour>
  </outline>
</glyph>
<glyph name="Ydieresis" format="1">
  <advance width="496"/>
  <unicode hex="0178"/>
  <outline>
    <contour>
      <point x="232" y="22" type="curve"/>
      <point x="118" y="22"/>
      <point x="242" y="22"/>
      <point x="128" y="22" type="curve"/>
      <point x="128" y="0"/>
      <point x="128" y="22"/>
      <point x="128" y="0" type="curve"/>
      <point x="166" y="0"/>
      <point x="194" y="0"/>
      <point x="232" y="0" type="curve"/>
      <point x="232" y="22"/>
      <point x="232" y="0"/>
    </contour>
    <contour>
      <point x="232" y="0" type="curve"/>
      <point x="269" y="0"/>
      <point x="298" y="0"/>
      <point x="335" y="0" type="curve"/>
      <point x="335" y="22"/>
      <point x="335" y="0"/>
      <point x="335" y="22" type="curve"/>
      <point x="221" y="22"/>
      <point x="346" y="22"/>
      <point x="232" y="22" type="curve"/>
      <point x="232" y="0"/>
      <point x="232" y="22"/>
    </contour>
    <contour>
      <point x="377" y="722" type="curve"/>
      <point x="339" y="722"/>
      <point x="311" y="722"/>
      <point x="273" y="722" type="curve"/>
      <point x="273" y="700"/>
      <point x="273" y="722"/>
      <point x="273" y="700" type="curve"/>
      <point x="387" y="700"/>
      <point x="263" y="700"/>
      <point x="377" y="700" type="curve"/>
      <point x="377" y="722"/>
      <point x="377" y="700"/>
    </contour>
    <contour>
      <point x="94" y="722" type="curve"/>
      <point x="57" y="722"/>
      <point x="29" y="722"/>
      <point x="-9" y="722" type="curve"/>
      <point x="-9" y="700"/>
      <point x="-9" y="722"/>
      <point x="-9" y="700" type="curve"/>
      <point x="105" y="700"/>
      <point x="-19" y="700"/>
      <point x="94" y="700" type="curve"/>
      <point x="94" y="722"/>
      <point x="94" y="700"/>
    </contour>
    <contour>
      <point x="94" y="700" type="curve"/>
      <point x="208" y="700"/>
      <point x="84" y="700"/>
      <point x="198" y="700" type="curve"/>
      <point x="198" y="722"/>
      <point x="198" y="700"/>
      <point x="198" y="722" type="curve"/>
      <point x="160" y="722"/>
      <point x="132" y="722"/>
      <point x="94" y="722" type="curve"/>
      <point x="94" y="700"/>
      <point x="94" y="722"/>
    </contour>
    <contour>
      <point x="377" y="700" type="curve"/>
      <point x="490" y="700"/>
      <point x="366" y="700"/>
      <point x="480" y="700" type="curve"/>
      <point x="480" y="722"/>
      <point x="480" y="700"/>
      <point x="480" y="722" type="curve"/>
      <point x="443" y="722"/>
      <point x="414" y="722"/>
      <point x="377" y="722" type="curve"/>
      <point x="377" y="700"/>
      <point x="377" y="722"/>
    </contour>
    <contour>
      <point x="77" y="722" type="curve"/>
      <point x="124" y="594"/>
      <point x="171" y="465"/>
      <point x="219" y="337" type="curve"/>
      <point x="245" y="337"/>
      <point x="219" y="336"/>
      <point x="245" y="336" type="curve"/>
      <point x="197" y="465"/>
      <point x="150" y="594"/>
      <point x="103" y="722" type="curve"/>
      <point x="77" y="722"/>
      <point x="103" y="722"/>
    </contour>
    <contour>
      <point x="368" y="722" type="curve"/>
      <point x="319" y="594"/>
      <point x="269" y="465"/>
      <point x="219" y="336" type="curve"/>
      <point x="245" y="336"/>
      <point x="219" y="337"/>
      <point x="245" y="337" type="curve"/>
      <point x="295" y="465"/>
      <point x="345" y="594"/>
      <point x="395" y="722" type="curve"/>
      <point x="368" y="722"/>
      <point x="395" y="722"/>
    </contour>
    <contour>
      <point x="245" y="0" type="curve"/>
      <point x="245" y="115"/>
      <point x="245" y="231"/>
      <point x="245" y="346" type="curve"/>
      <point x="219" y="346"/>
      <point x="245" y="346"/>
      <point x="219" y="346" type="curve"/>
      <point x="219" y="231"/>
      <point x="219" y="115"/>
      <point x="219" y="0" type="curve"/>
      <point x="245" y="0"/>
      <point x="219" y="0"/>
    </contour>
    <contour>
      <point x="215" y="838" type="curve"/>
      <point x="215" y="849"/>
      <point x="208" y="855"/>
      <point x="197" y="855" type="curve"/>
      <point x="186" y="855"/>
      <point x="180" y="848"/>
      <point x="180" y="838" type="curve"/>
      <point x="218" y="838"/>
      <point x="176" y="838"/>
      <point x="215" y="838" type="curve"/>
      <point x="215" y="827"/>
      <point x="208" y="822"/>
      <point x="197" y="822" type="curve"/>
      <point x="186" y="822"/>
      <point x="180" y="827"/>
      <point x="180" y="838" type="curve"/>
      <point x="218" y="838"/>
      <point x="176" y="838"/>
    </contour>
    <contour>
      <point x="287" y="838" type="curve"/>
      <point x="287" y="849"/>
      <point x="280" y="855"/>
      <point x="269" y="855" type="curve"/>
      <point x="258" y="855"/>
      <point x="252" y="848"/>
      <point x="252" y="838" type="curve"/>
      <point x="290" y="838"/>
      <point x="249" y="838"/>
      <point x="287" y="838" type="curve"/>
      <point x="287" y="827"/>
      <point x="280" y="822"/>
      <point x="269" y="822" type="curve"/>
      <point x="258" y="822"/>
      <point x="252" y="827"/>
      <point x="252" y="838" type="curve"/>
      <point x="290" y="838"/>
      <point x="249" y="838"/>
    </contour>
  </outline>
</glyph>
<glyph name="zdotaccent" format="1">
  <advance width="370"/>
  <unicode hex="017C"/>
  <outline>
    <contour>
      <point x="66" y="511" type="curve"/>
      <point x="143" y="511"/>
      <point x="211" y="511"/>
      <point x="287" y="511" type="curve"/>
      <point x="285" y="514"/>
      <point x="283" y="516"/>
      <point x="280" y="518" type="curve"/>
      <point x="278" y="519"/>
      <point x="278" y="522"/>
      <point x="276" y="523" type="curve"/>
      <point x="274" y="519"/>
      <point x="271" y="516"/>
      <point x="269" y="512" type="curve"/>
      <point x="53" y="22" type="line"/>
      <point x="53" y="10"/>
      <point x="53" y="22"/>
      <point x="53" y="10" type="curve"/>
      <point x="53" y="0"/>
      <point x="53" y="10"/>
      <point x="53" y="0" type="curve"/>
      <point x="60" y="0"/>
      <point x="53" y="0"/>
      <point x="60" y="0" type="curve"/>
      <point x="322" y="0"/>
      <point x="232" y="0"/>
      <point x="320" y="0" type="curve"/>
      <point x="320" y="22"/>
      <point x="320" y="0"/>
      <point x="320" y="22" type="curve"/>
      <point x="232" y="22"/>
      <point x="148" y="22"/>
      <point x="60" y="22" type="curve"/>
      <point x="62" y="20"/>
      <point x="65" y="18"/>
      <point x="67" y="16" type="curve"/>
      <point x="69" y="15"/>
      <point x="70" y="11"/>
      <point x="72" y="10" type="curve"/>
      <point x="75" y="14"/>
      <point x="75" y="17"/>
      <point x="77" y="21" type="curve"/>
      <point x="294" y="511" type="line"/>
      <point x="294" y="523"/>
      <point x="294" y="511"/>
      <point x="294" y="523" type="curve"/>
      <point x="294" y="533"/>
      <point x="294" y="523"/>
      <point x="294" y="533" type="curve"/>
      <point x="287" y="533"/>
      <point x="294" y="533"/>
      <point x="287" y="533" type="curve"/>
      <point x="211" y="533"/>
      <point x="143" y="533"/>
      <point x="66" y="533" type="curve"/>
      <point x="66" y="511"/>
      <point x="66" y="533"/>
    </contour>
    <contour>
      <point x="66" y="522" type="curve"/>
      <point x="66" y="402"/>
      <point x="66" y="534"/>
      <point x="66" y="414" type="curve"/>
      <point x="87" y="414"/>
      <point x="66" y="414"/>
      <point x="87" y="414" type="curve"/>
      <point x="87" y="534"/>
      <point x="87" y="402"/>
      <point x="87" y="522" type="curve"/>
      <point x="66" y="522"/>
      <point x="87" y="522"/>
    </contour>
    <contour>
      <point x="320" y="11" type="curve"/>
      <point x="320" y="131"/>
      <point x="320" y="-1"/>
      <point x="320" y="120" type="curve"/>
      <point x="298" y="120"/>
      <point x="320" y="120"/>
      <point x="298" y="120" type="curve"/>
      <point x="298" y="-1"/>
      <point x="298" y="131"/>
      <point x="298" y="11" type="curve"/>
      <point x="320" y="11"/>
      <point x="298" y="11"/>
    </contour>
    <contour>
      <point x="202" y="685" type="curve"/>
      <point x="202" y="696"/>
      <point x="195" y="702"/>
      <point x="184" y="702" type="curve"/>
      <point x="173" y="702"/>
      <point x="167" y="695"/>
      <point x="167" y="685" type="curve"/>
      <point x="205" y="685"/>
      <point x="163" y="685"/>
      <point x="202" y="685" type="curve"/>
      <point x="202" y="674"/>
      <point x="195" y="668"/>
      <point x="184" y="668" type="curve"/>
      <point x="173" y="668"/>
      <point x="167" y="674"/>
      <point x="167" y="685" type="curve"/>
      <point x="205" y="685"/>
      <point x="163" y="685"/>
    </contour>
  </outline>
</glyph>
<glyph name="pi" format="1">
  <advance width="499"/>
  <unicode hex="03C0"/>
  <outline>
    <contour>
      <point x="18" y="566" type="curve"/>
      <point x="478" y="566" type="line"/>
      <point x="478" y="590"/>
      <point x="478" y="566"/>
      <point x="478" y="590" type="curve"/>
      <point x="18" y="590" type="line"/>
      <point x="18" y="566"/>
      <point x="18" y="590"/>
    </contour>
    <contour>
      <point x="144" y="18" type="curve"/>
      <point x="144" y="588" type="line"/>
      <point x="120" y="588"/>
      <point x="144" y="588"/>
      <point x="120" y="588" type="curve"/>
      <point x="120" y="18" type="line"/>
      <point x="144" y="18"/>
      <point x="120" y="18"/>
    </contour>
    <contour>
      <point x="386" y="18" type="curve"/>
      <point x="386" y="588" type="line"/>
      <point x="362" y="588"/>
      <point x="386" y="588"/>
      <point x="362" y="588" type="curve"/>
      <point x="362" y="18" type="line"/>
      <point x="386" y="18"/>
      <point x="362" y="18"/>
    </contour>
  </outline>
</glyph>
<glyph name="dvA" format="1">
  <advance width="546"/>
  <unicode hex="0905"/>
  <outline>
    <contour>
      <point x="422" y="441" type="line"/>
      <point x="392" y="407"/>
      <point x="358" y="394"/>
      <point x="313" y="394" type="curve" smooth="yes"/>
      <point x="263" y="394"/>
      <point x="222" y="398"/>
      <point x="181" y="425" type="curve"/>
      <point x="173" y="410" type="line"/>
      <point x="216" y="380"/>
      <point x="259" y="375"/>
      <point x="312" y="374" type="curve" smooth="yes"/>
      <point x="365" y="374"/>
      <point x="407" y="390"/>
      <point x="438" y="432" type="curve"/>
    </contour>
    <component base="dvA_base"/>
    <component base="dvStem" xOffset="325"/>
  </outline>
</glyph>
<glyph name="dvvR" format="1">
  <advance width="603"/>
  <unicode hex="090B"/>
  <outline>
    <contour>
      <point x="516" y="574" type="line"/>
      <point x="516" y="495"/>
      <point x="492" y="420"/>
      <point x="405" y="420" type="curve"/>
      <point x="376" y="420"/>
      <point x="357" y="420"/>
      <point x="328" y="420" type="curve"/>
      <point x="328" y="414"/>
      <point x="328" y="404"/>
      <point x="328" y="398" type="curve"/>
      <point x="357" y="398"/>
      <point x="377" y="398"/>
      <point x="406" y="398" type="curve"/>
      <point x="505" y="398"/>
      <point x="541" y="483"/>
      <point x="541" y="574" type="curve"/>
    </contour>
    <contour>
      <point x="346" y="0" type="curve"/>
      <point x="346" y="242"/>
      <point x="346" y="482"/>
      <point x="346" y="724" type="curve"/>
      <point x="322" y="724"/>
      <point x="346" y="724"/>
      <point x="322" y="724" type="curve"/>
      <point x="322" y="482"/>
      <point x="322" y="242"/>
      <point x="322" y="0" type="curve"/>
      <point x="346" y="0"/>
      <point x="322" y="0"/>
    </contour>
    <component base="dvmE" xScale="0.939816076243" yScale="0.939816076243" xOffset="668" yOffset="-254"/>
    <component base="dvTopbar" xScale="0.949798336141" xOffset="-18"/>
    <component base="dvStroke_down" yScale="1.16182868064" xOffset="225" yOffset="233"/>
    <component base="dvmvR" xOffset="605" yOffset="218"/>
    <component base="dvRaker" xOffset="37" yOffset="44"/>
  </outline>
</glyph>
<glyph name="dvDA" format="1">
  <advance width="367"/>
  <unicode hex="0926"/>
  <outline>
    <contour>
      <point x="317" y="-10" type="move" name="blwm.virama"/>
    </contour>
    <contour>
      <point x="287" y="719" type="move" name="abvm.e"/>
    </contour>
    <contour>
      <point x="317" y="9" type="move" name="blwm.u"/>
    </contour>
    <component base="dvDA_base"/>
    <component base="dvTopbar" xScale="0.610135143652" xOffset="-20"/>
    <component base="dvStroke_down" xOffset="1"/>
  </outline>
</glyph>
<glyph name="dvPHA" format="1">
  <advance width="595"/>
  <unicode hex="092B"/>
  <outline>
    <contour>
      <point x="328" y="0" type="move" name="blwm.virama"/>
    </contour>
    <contour>
      <point x="328" y="720" type="move" name="abvm.e"/>
    </contour>
    <contour>
      <point x="328" y="0" type="move" name="blwm.u"/>
    </contour>
    <component base="dvTopbar" xOffset="-65"/>
    <component base="dvKA_right" xOffset="6" yOffset="-26"/>
    <component base="dvPA"/>
  </outline>
</glyph>
<glyph name="dvHA" format="1">
  <advance width="378"/>
  <unicode hex="0939"/>
  <outline>
    <contour>
      <point x="246" y="-120" type="move" name="blwm.virama"/>
    </contour>
    <contour>
      <point x="283" y="722" type="move" name="abvm.e"/>
    </contour>
    <contour>
      <point x="298" y="-202" type="move" name="blwm.u"/>
    </contour>
    <contour>
      <point x="152" y="299" type="curve"/>
      <point x="117" y="335"/>
      <point x="90" y="368"/>
      <point x="90" y="417" type="curve"/>
      <point x="90" y="463"/>
      <point x="117" y="500"/>
      <point x="160" y="500" type="curve"/>
      <point x="200" y="500"/>
      <point x="244" y="500"/>
      <point x="285" y="500" type="curve"/>
      <point x="258" y="523"/>
      <point x="287" y="498"/>
      <point x="260" y="521" type="curve"/>
      <point x="227" y="521"/>
      <point x="190" y="521"/>
      <point x="157" y="521" type="curve"/>
      <point x="99" y="521"/>
      <point x="66" y="477"/>
      <point x="66" y="417" type="curve"/>
      <point x="66" y="359"/>
      <point x="91" y="323"/>
      <point x="135" y="284" type="curve"/>
      <point x="153" y="301"/>
      <point x="133" y="283"/>
    </contour>
    <contour>
      <point x="260" y="710" type="curve"/>
      <point x="260" y="648"/>
      <point x="260" y="583"/>
      <point x="260" y="521" type="curve"/>
      <point x="288" y="498"/>
      <point x="258" y="523"/>
      <point x="285" y="500" type="curve"/>
      <point x="285" y="569"/>
      <point x="285" y="641"/>
      <point x="285" y="710" type="curve"/>
      <point x="258" y="710"/>
      <point x="288" y="710"/>
    </contour>
    <contour>
      <point x="338" y="184" type="line"/>
      <point x="338" y="267"/>
      <point x="294" y="332"/>
      <point x="217" y="332" type="curve"/>
      <point x="116" y="332"/>
      <point x="72" y="235"/>
      <point x="72" y="121" type="curve"/>
      <point x="72" y="8"/>
      <point x="127" y="-88"/>
      <point x="241" y="-88" type="curve"/>
      <point x="241" y="-64"/>
      <point x="241" y="-91"/>
      <point x="241" y="-67" type="curve"/>
      <point x="142" y="-67"/>
      <point x="96" y="20"/>
      <point x="96" y="121" type="curve"/>
      <point x="96" y="221"/>
      <point x="129" y="309"/>
      <point x="217" y="309" type="curve"/>
      <point x="281" y="309"/>
      <point x="315" y="251"/>
      <point x="315" y="180" type="curve"/>
    </contour>
    <component base="dvTopbar" xScale="0.596460629309" xOffset="-3"/>
  </outline>
</glyph>
<glyph name="dvmvRR" format="1">
  <advance width="0"/>
  <unicode hex="0944"/>
  <outline>
    <contour>
      <point x="-71" y="14" type="move" name="_blwm.u"/>
    </contour>
    <contour>
      <point x="-74" y="-180" type="line"/>
      <point x="-132" y="-180"/>
      <point x="-169" y="-138"/>
      <point x="-169" y="-80" type="curve"/>
      <point x="-169" y="-27"/>
      <point x="-133" y="11"/>
      <point x="-80" y="11" type="curve"/>
      <point x="-81" y="33" type="line"/>
      <point x="-147" y="33"/>
      <point x="-192" y="-15"/>
      <point x="-192" y="-80" type="curve"/>
      <point x="-192" y="-151"/>
      <point x="-145" y="-201"/>
      <point x="-74" y="-201" type="curve"/>
    </contour>
    <contour>
      <point x="-74" y="-187" type="line"/>
      <point x="-142" y="-187"/>
      <point x="-190" y="-233"/>
      <point x="-190" y="-300" type="curve"/>
      <point x="-190" y="-370"/>
      <point x="-143" y="-420"/>
      <point x="-73" y="-420" type="curve"/>
      <point x="-45" y="-420"/>
      <point x="-24" y="-409"/>
      <point x="-3" y="-389" type="curve"/>
      <point x="-15" y="-374" type="line"/>
      <point x="-32" y="-391"/>
      <point x="-50" y="-399"/>
      <point x="-73" y="-399" type="curve"/>
      <point x="-129" y="-399"/>
      <point x="-167" y="-357"/>
      <point x="-167" y="-300" type="curve"/>
      <point x="-167" y="-246"/>
      <point x="-129" y="-208"/>
      <point x="-74" y="-208" type="curve"/>
    </contour>
  </outline>
</glyph>
<glyph name="dvmE" format="1">
  <advance width="0"/>
  <unicode hex="0947"/>
  <outline>
    <contour>
      <point x="-70" y="741" type="move" name="_abvm.e"/>
    </contour>
    <contour>
      <point x="-308" y="936" type="line"/>
      <point x="-297" y="954"/>
      <point x="-270" y="971"/>
      <point x="-243" y="971" type="curve"/>
      <point x="-134" y="971"/>
      <point x="-108" y="855"/>
      <point x="-97" y="730" type="curve"/>
      <point x="-71" y="735" type="line"/>
      <point x="-83" y="871"/>
      <point x="-121" y="995"/>
      <point x="-241" y="995" type="curve"/>
      <point x="-277" y="995"/>
      <point x="-309" y="977"/>
      <point x="-327" y="950" type="curve"/>
    </contour>
  </outline>
</glyph>
<glyph name="dvmAI" format="1">
  <advance width="0"/>
  <unicode hex="0948"/>
  <outline>
    <contour>
      <point x="-51" y="717" type="move" name="_abvm.e"/>
    </contour>
    <contour>
      <point x="-281" y="803" type="line"/>
      <point x="-272" y="816"/>
      <point x="-251" y="827"/>
      <point x="-230" y="827" type="curve"/>
      <point x="-134" y="827"/>
      <point x="-94" y="752"/>
      <point x="-76" y="701" type="curve"/>
      <point x="-55" y="708" type="line"/>
      <point x="-80" y="782"/>
      <point x="-120" y="852"/>
      <point x="-228" y="852" type="curve"/>
      <point x="-257" y="852"/>
      <point x="-281" y="843"/>
      <point x="-297" y="822" type="curve"/>
    </contour>
    <contour>
      <point x="-304" y="957" type="line"/>
      <point x="-283" y="978"/>
      <point x="-263" y="995"/>
      <point x="-233" y="995" type="curve"/>
      <point x="-90" y="995"/>
      <point x="-75" y="722"/>
      <point x="-76" y="701" type="curve"/>
      <point x="-55" y="708" type="line"/>
      <point x="-58" y="770"/>
      <point x="-67" y="1017"/>
      <point x="-232" y="1017" type="curve"/>
      <point x="-267" y="1017"/>
      <point x="-298" y="1003"/>
      <point x="-318" y="976" type="curve"/>
    </contour>
  </outline>
</glyph>
<glyph name="dvKxA" format="1">
  <advance width="602"/>
  <unicode hex="0958"/>
  <outline>
    <contour>
      <point x="301" y="-26" type="move" name="blwm.virama"/>
    </contour>
    <contour>
      <point x="298" y="721" type="move" name="abvm.e"/>
    </contour>
    <contour>
      <point x="347" y="-137" type="move" name="blwm.u"/>
    </contour>
    <component base="dvKA"/>
    <component base="dvAnusvara" xOffset="284" yOffset="-903"/>
  </outline>
</glyph>
<glyph name="doubledanda" format="1">
  <advance width="269"/>
  <unicode hex="0965"/>
  <outline>
    <contour>
      <point x="221" y="722" type="curve"/>
      <point x="221" y="481"/>
      <point x="221" y="241"/>
      <point x="221" y="0" type="curve"/>
      <point x="247" y="0"/>
      <point x="221" y="0"/>
      <point x="247" y="0" type="curve"/>
      <point x="247" y="241"/>
      <point x="247" y="481"/>
      <point x="247" y="722" type="curve"/>
      <point x="221" y="722"/>
      <point x="247" y="722"/>
    </contour>
    <contour>
      <point x="107" y="722" type="curve"/>
      <point x="107" y="481"/>
      <point x="107" y="241"/>
      <point x="107" y="0" type="curve"/>
      <point x="131" y="0"/>
      <point x="107" y="0"/>
      <point x="131" y="0" type="curve"/>
      <point x="131" y="241"/>
      <point x="131" y="481"/>
      <point x="131" y="722" type="curve"/>
      <point x="107" y="722"/>
      <point x="131" y="722"/>
    </contour>
  </outline>
</glyph>
<glyph name="dvZero" format="1">
  <advance width="483"/>
  <unicode hex="0966"/>
  <outline>
    <contour>
      <point x="93" y="360" type="curve"/>
      <point x="93" y="542"/>
      <point x="96" y="704"/>
      <point x="240" y="704" type="curve"/>
      <point x="387" y="704"/>
      <point x="389" y="543"/>
      <point x="389" y="363" type="curve"/>
      <point x="389" y="183"/>
      <point x="382" y="18"/>
      <point x="243" y="18" type="curve"/>
      <point x="106" y="18"/>
      <point x="93" y="180"/>
      <point x="93" y="360" type="curve"/>
      <point x="70" y="360"/>
      <point x="91" y="360"/>
      <point x="68" y="360" type="curve"/>
      <point x="68" y="165"/>
      <point x="78" y="-5"/>
      <point x="242" y="-5" type="curve"/>
      <point x="406" y="-5"/>
      <point x="414" y="166"/>
      <point x="414" y="363" type="curve"/>
      <point x="414" y="558"/>
      <point x="405" y="727"/>
      <point x="243" y="727" type="curve"/>
      <point x="78" y="727"/>
      <point x="68" y="557"/>
      <point x="68" y="360" type="curve"/>
      <point x="91" y="360"/>
      <point x="70" y="360"/>
    </contour>
  </outline>
</glyph>
<glyph name="dvFive" format="1">
  <advance width="362"/>
  <unicode hex="096B"/>
  <outline>
    <contour>
      <point x="86" y="722" type="curve"/>
      <point x="86" y="619"/>
      <point x="86" y="518"/>
      <point x="86" y="407" type="curve"/>
      <point x="109" y="396"/>
      <point x="86" y="407"/>
      <point x="109" y="396" type="curve"/>
      <point x="109" y="498"/>
      <point x="109" y="599"/>
      <point x="109" y="700" type="curve"/>
      <point x="86" y="722"/>
      <point x="109" y="700"/>
    </contour>
    <contour>
      <point x="109" y="396" type="curve"/>
      <point x="121" y="408"/>
      <point x="149" y="423"/>
      <point x="171" y="423" type="curve"/>
      <point x="259" y="423"/>
      <point x="279" y="326"/>
      <point x="279" y="224" type="curve"/>
      <point x="279" y="120"/>
      <point x="252" y="17"/>
      <point x="165" y="17" type="curve"/>
      <point x="126" y="17"/>
      <point x="105" y="33"/>
      <point x="70" y="61" type="curve"/>
      <point x="56" y="44"/>
      <point x="70" y="61"/>
      <point x="56" y="44" type="curve"/>
      <point x="88" y="13"/>
      <point x="121" y="-5"/>
      <point x="164" y="-5" type="curve"/>
      <point x="268" y="-5"/>
      <point x="304" y="105"/>
      <point x="304" y="224" type="curve"/>
      <point x="304" y="339"/>
      <point x="274" y="446"/>
      <point x="173" y="446" type="curve"/>
      <point x="140" y="446"/>
      <point x="104" y="430"/>
      <point x="86" y="405" type="curve"/>
      <point x="109" y="396"/>
      <point x="86" y="405"/>
    </contour>
    <contour>
      <point x="287" y="722" type="curve"/>
      <point x="216" y="722"/>
      <point x="156" y="722"/>
      <point x="86" y="722" type="curve"/>
      <point x="109" y="700"/>
      <point x="86" y="722"/>
      <point x="109" y="700" type="curve"/>
      <point x="171" y="700"/>
      <point x="224" y="700"/>
      <point x="287" y="700" type="curve"/>
      <point x="287" y="722"/>
      <point x="287" y="700"/>
    </contour>
  </outline>
</glyph>
<glyph name="dvAbbreviationsign" format="1">
  <advance width="304"/>
  <unicode hex="0970"/>
  <outline>
    <contour>
      <point x="73" y="255" type="curve"/>
      <point x="73" y="353"/>
      <point x="78" y="441"/>
      <point x="160" y="441" type="curve"/>
      <point x="242" y="442"/>
      <point x="247" y="354"/>
      <point x="247" y="256" type="curve"/>
      <point x="247" y="157"/>
      <point x="244" y="68"/>
      <point x="162" y="68" type="curve"/>
      <point x="79" y="68"/>
      <point x="73" y="155"/>
      <point x="73" y="255" type="curve"/>
      <point x="64" y="255"/>
      <point x="59" y="255"/>
      <point x="50" y="255" type="curve"/>
      <point x="50" y="143"/>
      <point x="66" y="47"/>
      <point x="161" y="47" type="curve"/>
      <point x="256" y="47"/>
      <point x="271" y="144"/>
      <point x="271" y="257" type="curve"/>
      <point x="271" y="367"/>
      <point x="255" y="463"/>
      <point x="161" y="463" type="curve"/>
      <point x="66" y="463"/>
      <point x="50" y="366"/>
      <point x="50" y="255" type="curve"/>
      <point x="59" y="255"/>
      <point x="64" y="255"/>
    </contour>
  </outline>
</glyph>
<glyph name="quoteright" format="1">
  <advance width="199"/>
  <unicode hex="2019"/>
  <outline>
    <contour>
      <point x="100" y="594" type="line"/>
      <point x="122" y="618"/>
      <point x="140" y="644"/>
      <point x="140" y="690" type="curve"/>
      <point x="140" y="710"/>
      <point x="137" y="726"/>
      <point x="119" y="726" type="curve"/>
      <point x="106" y="726"/>
      <point x="99" y="720"/>
      <point x="99" y="708" type="curve"/>
      <point x="99" y="698"/>
      <point x="103" y="692"/>
      <point x="114" y="687" type="curve"/>
      <point x="114" y="667"/>
      <point x="105" y="633"/>
      <point x="83" y="611" type="curve"/>
    </contour>
  </outline>
</glyph>
<glyph name="dagger" format="1">
  <advance width="528"/>
  <unicode hex="2020"/>
  <outline>
    <contour>
      <point x="34" y="419" type="curve"/>
      <point x="494" y="419" type="line"/>
      <point x="494" y="443"/>
      <point x="494" y="419"/>
      <point x="494" y="443" type="curve"/>
      <point x="34" y="443" type="line"/>
      <point x="34" y="419"/>
      <point x="34" y="443"/>
    </contour>
    <contour>
      <point x="277" y="-299" type="curve"/>
      <point x="277" y="710" type="line"/>
      <point x="253" y="710"/>
      <point x="277" y="710"/>
      <point x="253" y="710" type="curve"/>
      <point x="253" y="-299" type="line"/>
      <point x="277" y="-299"/>
      <point x="253" y="-299"/>
    </contour>
  </outline>
</glyph>
<glyph name="foursuperior" format="1">
  <advance width="370"/>
  <unicode hex="2074"/>
  <outline>
    <contour>
      <point x="188" y="698" type="move" name="_top"/>
    </contour>
    <contour>
      <point x="189" y="275" type="move" name="_bottom"/>
    </contour>
    <contour>
      <point x="303" y="414" type="line"/>
      <point x="53" y="414" type="line"/>
      <point x="53" y="394" type="line"/>
      <point x="303" y="394" type="line"/>
    </contour>
    <contour>
      <point x="67" y="394" type="line"/>
      <point x="222" y="700" type="line"/>
      <point x="199" y="709" type="line"/>
      <point x="53" y="414" type="line"/>
    </contour>
    <contour>
      <point x="222" y="277" type="line"/>
      <point x="222" y="709" type="line"/>
      <point x="199" y="709" type="line"/>
      <point x="199" y="277" type="line"/>
    </contour>
    <contour>
      <point x="210" y="297" type="line"/>
      <point x="141" y="297" type="line"/>
      <point x="141" y="276" type="line"/>
      <point x="210" y="276" type="line"/>
    </contour>
    <contour>
      <point x="210" y="276" type="line"/>
      <point x="285" y="276" type="line"/>
      <point x="285" y="297" type="line"/>
      <point x="210" y="297" type="line"/>
    </contour>
  </outline>
</glyph>
<glyph name="estimated" format="1">
  <advance width="575"/>
  <unicode hex="212E"/>
  <outline>
    <contour>
      <point x="490" y="118" type="curve"/>
      <point x="448" y="49"/>
      <point x="402" y="17"/>
      <point x="320" y="17" type="curve"/>
      <point x="147" y="17"/>
      <point x="93" y="182"/>
      <point x="93" y="381" type="curve"/>
      <point x="93" y="558"/>
      <point x="141" y="704"/>
      <point x="294" y="704" type="curve"/>
      <point x="436" y="704"/>
      <point x="483" y="570"/>
      <point x="483" y="405" type="curve"/>
      <point x="483" y="394"/>
      <point x="483" y="387"/>
      <point x="483" y="376" type="curve"/>
      <point x="486" y="379"/>
      <point x="489" y="381"/>
      <point x="492" y="385" type="curve"/>
      <point x="495" y="389"/>
      <point x="498" y="391"/>
      <point x="501" y="395" type="curve"/>
      <point x="341" y="395"/>
      <point x="241" y="395"/>
      <point x="81" y="395" type="curve"/>
      <point x="81" y="389"/>
      <point x="81" y="379"/>
      <point x="81" y="373" type="curve"/>
      <point x="241" y="373"/>
      <point x="341" y="373"/>
      <point x="501" y="373" type="curve"/>
      <point x="503" y="373"/>
      <point x="504" y="373"/>
      <point x="506" y="373" type="curve"/>
      <point x="506" y="374"/>
      <point x="506" y="375"/>
      <point x="506" y="376" type="curve"/>
      <point x="506" y="386"/>
      <point x="506" y="393"/>
      <point x="506" y="403" type="curve"/>
      <point x="506" y="582"/>
      <point x="451" y="726"/>
      <point x="296" y="726" type="curve"/>
      <point x="129" y="726"/>
      <point x="68" y="572"/>
      <point x="68" y="381" type="curve"/>
      <point x="68" y="168"/>
      <point x="133" y="-5"/>
      <point x="320" y="-5" type="curve"/>
      <point x="408" y="-5"/>
      <point x="461" y="29"/>
      <point x="508" y="104" type="curve"/>
      <point x="502" y="108"/>
      <point x="495" y="115"/>
    </contour>
    <contour>
      <point x="119" y="146" type="line"/>
      <point x="119" y="608" type="line"/>
      <point x="82" y="508" type="line"/>
      <point x="90" y="354" type="line"/>
      <point x="86" y="241" type="line"/>
    </contour>
    <contour>
      <point x="497" y="375" type="line"/>
      <point x="481" y="545" type="line"/>
      <point x="459" y="617" type="line"/>
      <point x="459" y="380" type="line"/>
    </contour>
  </outline>
</glyph>
<glyph name="summation" format="1">
  <advance width="362"/>
  <unicode hex="2211"/>
  <outline>
    <contour>
      <point x="270" y="700" type="line"/>
      <point x="270" y="607" type="line"/>
      <point x="292" y="607" type="line"/>
      <point x="292" y="722" type="line"/>
    </contour>
    <contour>
      <point x="293" y="0" type="line"/>
      <point x="293" y="116" type="line"/>
      <point x="270" y="116" type="line"/>
      <point x="270" y="21" type="line"/>
    </contour>
    <contour>
      <point x="292" y="722" type="line"/>
      <point x="48" y="722" type="line"/>
      <point x="48" y="700" type="line"/>
      <point x="270" y="700" type="line"/>
    </contour>
    <contour>
      <point x="47" y="0" type="line"/>
      <point x="293" y="0" type="line"/>
      <point x="270" y="21" type="line"/>
      <point x="47" y="21" type="line"/>
    </contour>
    <contour>
      <point x="243" y="386" type="line"/>
      <point x="47" y="21" type="line"/>
      <point x="60" y="0" type="line"/>
      <point x="270" y="386" type="line"/>
    </contour>
    <contour>
      <point x="270" y="386" type="line"/>
      <point x="62" y="717" type="line"/>
      <point x="48" y="700" type="line"/>
      <point x="243" y="386" type="line"/>
    </contour>
  </outline>
</glyph>
<glyph name="integral" format="1">
  <advance width="270"/>
  <unicode hex="222B"/>
  <outline>
    <contour>
      <point x="259" y="828" type="curve"/>
      <point x="200" y="846"/>
      <point x="171" y="786"/>
      <point x="161" y="709" type="curve"/>
      <point x="136" y="493"/>
      <point x="111" y="277"/>
      <point x="86" y="61" type="curve"/>
      <point x="79" y="-4"/>
      <point x="59" y="-56"/>
      <point x="15" y="-44" type="curve"/>
      <point x="11" y="-66"/>
      <point x="15" y="-44"/>
      <point x="11" y="-66" type="curve"/>
      <point x="71" y="-84"/>
      <point x="101" y="-22"/>
      <point x="110" y="58" type="curve"/>
      <point x="136" y="274"/>
      <point x="161" y="491"/>
      <point x="187" y="708" type="curve"/>
      <point x="193" y="769"/>
      <point x="217" y="820"/>
      <point x="254" y="806" type="curve"/>
      <point x="259" y="828"/>
      <point x="254" y="806"/>
    </contour>
  </outline>
</glyph>
<glyph name="approxequal" format="1">
  <advance width="490"/>
  <unicode hex="2248"/>
  <outline>
    <contour>
      <point x="382" y="344" type="curve"/>
      <point x="373" y="301"/>
      <point x="372" y="241"/>
      <point x="324" y="241" type="curve"/>
      <point x="293" y="241"/>
      <point x="276" y="262"/>
      <point x="258" y="290" type="curve"/>
      <point x="236" y="322"/>
      <point x="216" y="345"/>
      <point x="180" y="345" type="curve"/>
      <point x="116" y="345"/>
      <point x="104" y="290"/>
      <point x="95" y="224" type="curve"/>
      <point x="115" y="219"/>
      <point x="95" y="224"/>
      <point x="115" y="219" type="curve"/>
      <point x="123" y="269"/>
      <point x="127" y="323"/>
      <point x="178" y="323" type="curve"/>
      <point x="206" y="323"/>
      <point x="220" y="303"/>
      <point x="236" y="279" type="curve"/>
      <point x="260" y="244"/>
      <point x="282" y="220"/>
      <point x="322" y="220" type="curve"/>
      <point x="385" y="220"/>
      <point x="392" y="279"/>
      <point x="403" y="340" type="curve"/>
      <point x="382" y="344"/>
      <point x="403" y="340"/>
    </contour>
    <contour>
      <point x="378" y="487" type="curve"/>
      <point x="369" y="443"/>
      <point x="368" y="384"/>
      <point x="320" y="384" type="curve"/>
      <point x="288" y="384"/>
      <point x="272" y="405"/>
      <point x="254" y="433" type="curve"/>
      <point x="232" y="464"/>
      <point x="212" y="488"/>
      <point x="176" y="488" type="curve"/>
      <point x="112" y="488"/>
      <point x="100" y="432"/>
      <point x="91" y="366" type="curve"/>
      <point x="111" y="362"/>
      <point x="91" y="366"/>
      <point x="111" y="362" type="curve"/>
      <point x="119" y="412"/>
      <point x="123" y="466"/>
      <point x="174" y="466" type="curve"/>
      <point x="202" y="466"/>
      <point x="216" y="446"/>
      <point x="232" y="422" type="curve"/>
      <point x="256" y="387"/>
      <point x="277" y="363"/>
      <point x="318" y="363" type="curve"/>
      <point x="381" y="363"/>
      <point x="388" y="421"/>
      <point x="399" y="483" type="curve"/>
      <point x="378" y="487"/>
      <point x="399" y="483"/>
    </contour>
  </outline>
</glyph>
<glyph name="fi" format="1">
  <advance width="497"/>
  <unicode hex="FB01"/>
  <outline>
    <contour>
      <point x="373" y="778" type="curve"/>
      <point x="373" y="658"/>
      <point x="373" y="789"/>
      <point x="373" y="669" type="curve"/>
      <point x="394" y="669"/>
      <point x="373" y="669"/>
      <point x="394" y="669" type="curve"/>
      <point x="394" y="789"/>
      <point x="394" y="658"/>
      <point x="394" y="778" type="curve"/>
      <point x="373" y="778"/>
      <point x="394" y="778"/>
    </contour>
    <contour>
      <point x="140" y="0" type="curve"/>
      <point x="177" y="0"/>
      <point x="206" y="0"/>
      <point x="243" y="0" type="curve"/>
      <point x="243" y="22"/>
      <point x="243" y="0"/>
      <point x="243" y="22" type="curve"/>
      <point x="130" y="22"/>
      <point x="254" y="22"/>
      <point x="140" y="22" type="curve"/>
      <point x="140" y="0"/>
      <point x="140" y="22"/>
    </contour>
    <contour>
      <point x="140" y="22" type="curve"/>
      <point x="26" y="22"/>
      <point x="150" y="22"/>
      <point x="36" y="22" type="curve"/>
      <point x="36" y="0"/>
      <point x="36" y="22"/>
      <point x="36" y="0" type="curve"/>
      <point x="74" y="0"/>
      <point x="102" y="0"/>
      <point x="140" y="0" type="curve"/>
      <point x="140" y="22"/>
      <point x="140" y="0"/>
    </contour>
    <contour>
      <point x="28" y="511" type="curve"/>
      <point x="283" y="511" type="line"/>
      <point x="283" y="533"/>
      <point x="283" y="511"/>
      <point x="283" y="533" type="curve"/>
      <point x="28" y="533" type="line"/>
      <point x="28" y="511"/>
      <point x="28" y="533"/>
    </contour>
    <contour>
      <point x="152" y="0" type="curve"/>
      <point x="152" y="642" type="line"/>
      <point x="152" y="716"/>
      <point x="182" y="784"/>
      <point x="301" y="784" type="curve"/>
      <point x="335" y="784"/>
      <point x="363" y="777"/>
      <point x="385" y="761" type="curve"/>
      <point x="394" y="778"/>
      <point x="385" y="761"/>
      <point x="394" y="778" type="curve"/>
      <point x="372" y="797"/>
      <point x="336" y="805"/>
      <point x="301" y="805" type="curve"/>
      <point x="168" y="805"/>
      <point x="127" y="726"/>
      <point x="128" y="642" type="curve"/>
      <point x="128" y="0" type="line"/>
      <point x="152" y="0"/>
      <point x="128" y="0"/>
    </contour>
    <contour>
      <point x="383" y="22" type="curve"/>
      <point x="269" y="22"/>
      <point x="393" y="22"/>
      <point x="279" y="22" type="curve"/>
      <point x="279" y="0"/>
      <point x="279" y="22"/>
      <point x="279" y="0" type="curve"/>
      <point x="317" y="0"/>
      <point x="345" y="0"/>
      <point x="383" y="0" type="curve"/>
      <point x="383" y="22"/>
      <point x="383" y="0"/>
    </contour>
    <contour>
      <point x="383" y="0" type="curve"/>
      <point x="417" y="0"/>
      <point x="444" y="0"/>
      <point x="480" y="0" type="curve"/>
      <point x="480" y="22"/>
      <point x="480" y="0"/>
      <point x="480" y="22" type="curve"/>
      <point x="372" y="22"/>
      <point x="490" y="22"/>
      <point x="383" y="22" type="curve"/>
      <point x="383" y="0"/>
      <point x="383" y="22"/>
    </contour>
    <contour>
      <point x="383" y="533" type="curve"/>
      <point x="345" y="533"/>
      <point x="317" y="533"/>
      <point x="279" y="533" type="curve"/>
      <point x="279" y="511"/>
      <point x="279" y="533"/>
      <point x="279" y="511" type="curve"/>
      <point x="393" y="511"/>
      <point x="269" y="511"/>
      <point x="383" y="511" type="curve"/>
      <point x="383" y="533"/>
      <point x="383" y="511"/>
    </contour>
    <contour>
      <point x="396" y="0" type="curve"/>
      <point x="396" y="178"/>
      <point x="396" y="355"/>
      <point x="396" y="533" type="curve"/>
      <point x="370" y="533"/>
      <point x="396" y="533"/>
      <point x="370" y="533" type="curve"/>
      <point x="370" y="355"/>
      <point x="370" y="178"/>
      <point x="370" y="0" type="curve"/>
      <point x="396" y="0"/>
      <point x="370" y="0"/>
    </contour>
  </outline>
</glyph>
<glyph name="Tcedilla" format="1">
  <advance width="469"/>
  <outline>
    <contour>
      <point x="48" y="710" type="curve"/>
      <point x="48" y="590"/>
      <point x="48" y="723"/>
      <point x="48" y="603" type="curve"/>
      <point x="70" y="603"/>
      <point x="48" y="603"/>
      <point x="70" y="603" type="curve"/>
      <point x="70" y="723"/>
      <point x="70" y="590"/>
      <point x="70" y="710" type="curve"/>
      <point x="48" y="710"/>
      <point x="70" y="710"/>
    </contour>
    <contour>
      <point x="399" y="710" type="curve"/>
      <point x="399" y="590"/>
      <point x="399" y="723"/>
      <point x="399" y="603" type="curve"/>
      <point x="421" y="603"/>
      <point x="399" y="603"/>
      <point x="421" y="603" type="curve"/>
      <point x="421" y="723"/>
      <point x="421" y="590"/>
      <point x="421" y="710" type="curve"/>
      <point x="399" y="710"/>
      <point x="421" y="710"/>
    </contour>
    <contour>
      <point x="235" y="0" type="curve"/>
      <point x="273" y="0"/>
      <point x="300" y="0"/>
      <point x="338" y="0" type="curve"/>
      <point x="338" y="22"/>
      <point x="338" y="0"/>
      <point x="338" y="22" type="curve"/>
      <point x="224" y="22"/>
      <point x="348" y="22"/>
      <point x="235" y="22" type="curve"/>
      <point x="235" y="0"/>
      <point x="235" y="22"/>
    </contour>
    <contour>
      <point x="235" y="22" type="curve"/>
      <point x="120" y="22"/>
      <point x="245" y="22"/>
      <point x="130" y="22" type="curve"/>
      <point x="130" y="0"/>
      <point x="130" y="22"/>
      <point x="130" y="0" type="curve"/>
      <point x="169" y="0"/>
      <point x="196" y="0"/>
      <point x="235" y="0" type="curve"/>
      <point x="235" y="22"/>
      <point x="235" y="0"/>
    </contour>
    <contour>
      <point x="246" y="0" type="curve"/>
      <point x="246" y="237"/>
      <point x="246" y="473"/>
      <point x="246" y="710" type="curve"/>
      <point x="222" y="710"/>
      <point x="246" y="710"/>
      <point x="222" y="710" type="curve"/>
      <point x="222" y="473"/>
      <point x="222" y="237"/>
      <point x="222" y="0" type="curve"/>
      <point x="246" y="0"/>
      <point x="222" y="0"/>
    </contour>
    <contour>
      <point x="48" y="698" type="curve"/>
      <point x="172" y="698"/>
      <point x="297" y="698"/>
      <point x="421" y="698" type="curve"/>
      <point x="421" y="722"/>
      <point x="421" y="698"/>
      <point x="421" y="722" type="curve"/>
      <point x="297" y="722"/>
      <point x="172" y="722"/>
      <point x="48" y="722" type="curve"/>
      <point x="48" y="698"/>
      <point x="48" y="722"/>
    </contour>
    <contour>
      <point x="228" y="16" type="curve"/>
      <point x="218" y="-11"/>
      <point x="210" y="-38"/>
      <point x="201" y="-64" type="curve"/>
      <point x="218" y="-82"/>
      <point x="201" y="-64"/>
      <point x="218" y="-82" type="curve"/>
      <point x="227" y="-54"/>
      <point x="237" y="-26"/>
      <point x="246" y="1" type="curve"/>
      <point x="228" y="16"/>
      <point x="246" y="1"/>
    </contour>
    <contour>
      <point x="218" y="-82" type="curve"/>
      <point x="225" y="-73"/>
      <point x="231" y="-69"/>
      <point x="242" y="-69" type="curve"/>
      <point x="266" y="-69"/>
      <point x="268" y="-96"/>
      <point x="268" y="-126" type="curve"/>
      <point x="268" y="-156"/>
      <point x="260" y="-181"/>
      <point x="234" y="-181" type="curve"/>
      <point x="218" y="-181"/>
      <point x="206" y="-177"/>
      <point x="194" y="-164" type="curve"/>
      <point x="184" y="-181"/>
      <point x="194" y="-164"/>
      <point x="184" y="-181" type="curve"/>
      <point x="198" y="-196"/>
      <point x="213" y="-203"/>
      <point x="233" y="-203" type="curve"/>
      <point x="274" y="-203"/>
      <point x="294" y="-169"/>
      <point x="294" y="-126" type="curve"/>
      <point x="294" y="-83"/>
      <point x="280" y="-47"/>
      <point x="244" y="-47" type="curve"/>
      <point x="227" y="-47"/>
      <point x="215" y="-53"/>
      <point x="201" y="-64" type="curve"/>
      <point x="218" y="-82"/>
      <point x="201" y="-64"/>
    </contour>
  </outline>
</glyph>
<glyph name="dvA_base" format="1">
  <advance width="500"/>
  <outline>
    <contour>
      <point x="82" y="641" type="curve"/>
      <point x="109" y="678"/>
      <point x="131" y="705"/>
      <point x="175" y="705" type="curve"/>
      <point x="250" y="705"/>
      <point x="273" y="638"/>
      <point x="272" y="564" type="curve"/>
      <point x="272" y="480"/>
      <point x="226" y="421"/>
      <point x="144" y="421" type="curve"/>
      <point x="144" y="399"/>
      <point x="144" y="422"/>
      <point x="144" y="400" type="curve"/>
      <point x="241" y="400"/>
      <point x="297" y="469"/>
      <point x="297" y="567" type="curve"/>
      <point x="296" y="653"/>
      <point x="266" y="727"/>
      <point x="178" y="727" type="curve"/>
      <point x="128" y="727"/>
      <point x="98" y="702"/>
      <point x="68" y="659" type="curve"/>
      <point x="84" y="639"/>
      <point x="67" y="661"/>
    </contour>
    <contour>
      <point x="55" y="163" type="curve"/>
      <point x="78" y="114"/>
      <point x="121" y="73"/>
      <point x="171" y="73" type="curve"/>
      <point x="264" y="67"/>
      <point x="313" y="143"/>
      <point x="311" y="247" type="curve"/>
      <point x="310" y="349"/>
      <point x="244" y="416"/>
      <point x="144" y="416" type="curve"/>
      <point x="144" y="396"/>
      <point x="144" y="417"/>
      <point x="144" y="397" type="curve"/>
      <point x="232" y="397"/>
      <point x="286" y="336"/>
      <point x="287" y="245" type="curve"/>
      <point x="287" y="159"/>
      <point x="251" y="90"/>
      <point x="173" y="94" type="curve"/>
      <point x="127" y="94"/>
      <point x="93" y="133"/>
      <point x="72" y="177" type="curve"/>
      <point x="53" y="162"/>
      <point x="73" y="178"/>
    </contour>
  </outline>
</glyph>
<glyph name="dvC_CH_VA" format="1">
  <advance width="793"/>
  <outline>
    <contour>
      <point x="647" y="-355" type="move" name="blwm.virama"/>
    </contour>
    <contour>
      <point x="652" y="718" type="move" name="abvm.e"/>
    </contour>
    <contour>
      <point x="648" y="-361" type="move" name="blwm.u"/>
    </contour>
    <component base="dvStroke_down" yScale="1.56117666506" xOffset="334" yOffset="-363"/>
    <component base="dvC_CHA"/>
    <component base="dvVA_open" xOffset="287" yOffset="-455"/>
  </outline>
</glyph>
<glyph name="dvConnector" format="1">
  <advance width="500"/>
  <outline>
    <contour>
      <point x="384" y="435" type="line"/>
      <point x="355" y="403"/>
      <point x="326" y="388"/>
      <point x="284" y="388" type="curve" smooth="yes"/>
      <point x="244" y="389"/>
      <point x="214" y="396"/>
      <point x="178" y="419" type="curve"/>
      <point x="170" y="405" type="line"/>
      <point x="206" y="380"/>
      <point x="240" y="369"/>
      <point x="283" y="369" type="curve" smooth="yes"/>
      <point x="333" y="368"/>
      <point x="370" y="386"/>
      <point x="400" y="426" type="curve"/>
    </contour>
  </outline>
</glyph>
<glyph name="dvConnector_short" format="1">
  <advance width="500"/>
  <outline>
    <contour>
      <point x="443" y="384" type="line"/>
      <point x="429" y="361"/>
      <point x="405" y="339"/>
      <point x="375" y="339" type="curve" smooth="yes"/>
      <point x="343" y="339"/>
      <point x="318" y="351"/>
      <point x="291" y="368" type="curve"/>
      <point x="283" y="354" type="line"/>
      <point x="312" y="334"/>
      <point x="339" y="319"/>
      <point x="374" y="319" type="curve" smooth="yes"/>
      <point x="412" y="319"/>
      <point x="442" y="345"/>
      <point x="459" y="376" type="curve"/>
    </contour>
  </outline>
</glyph>
<glyph name="dvDDHA_base" format="1">
  <advance width="500"/>
  <outline>
    <contour>
      <point x="274" y="533" type="line"/>
      <point x="263" y="533"/>
      <point x="254" y="533"/>
      <point x="242" y="533" type="curve"/>
      <point x="113" y="533"/>
      <point x="36" y="425"/>
      <point x="36" y="289" type="curve"/>
      <point x="36" y="148"/>
      <point x="104" y="32"/>
      <point x="233" y="32" type="curve"/>
      <point x="319" y="32"/>
      <point x="368" y="108"/>
      <point x="368" y="200" type="curve"/>
      <point x="368" y="279"/>
      <point x="343" y="351"/>
      <point x="275" y="351" type="curve"/>
      <point x="204" y="351"/>
      <point x="171" y="281"/>
      <point x="171" y="202" type="curve"/>
      <point x="171" y="123"/>
      <point x="207" y="58"/>
      <point x="281" y="40" type="curve"/>
      <point x="284" y="45"/>
      <point x="288" y="49"/>
      <point x="291" y="54" type="curve"/>
      <point x="224" y="74"/>
      <point x="195" y="132"/>
      <point x="195" y="202" type="curve"/>
      <point x="195" y="268"/>
      <point x="216" y="329"/>
      <point x="274" y="329" type="curve"/>
      <point x="329" y="329"/>
      <point x="344" y="266"/>
      <point x="344" y="200" type="curve"/>
      <point x="344" y="122"/>
      <point x="306" y="54"/>
      <point x="234" y="54" type="curve"/>
      <point x="118" y="54"/>
      <point x="60" y="163"/>
      <point x="60" y="291" type="curve"/>
      <point x="60" y="413"/>
      <point x="127" y="511"/>
      <point x="242" y="511" type="curve"/>
      <point x="262" y="511"/>
      <point x="279" y="511"/>
      <point x="299" y="511" type="curve"/>
    </contour>
    <contour>
      <point x="299" y="511" type="line"/>
      <point x="299" y="582"/>
      <point x="299" y="640"/>
      <point x="299" y="710" type="curve"/>
      <point x="290" y="710"/>
      <point x="283" y="710"/>
      <point x="274" y="710" type="curve"/>
      <point x="274" y="646"/>
      <point x="274" y="596"/>
      <point x="274" y="533" type="curve"/>
    </contour>
  </outline>
</glyph>
<glyph name="dvDDH_DDHA" format="1">
  <advance width="385"/>
  <outline>
    <contour>
      <point x="204" y="-337" type="move" name="blwm.virama"/>
    </contour>
    <contour>
      <point x="260" y="724" type="move" name="abvm.e"/>
    </contour>
    <contour>
      <point x="267" y="-409" type="move" name="blwm.u"/>
    </contour>
    <component base="dvDDHA_short" xOffset="-3" yOffset="-437"/>
    <component base="dvTopbar" xScale="0.616842480498" xOffset="-15"/>
    <component base="dvDDHA_open" xOffset="-3"/>
    <component base="dvStem_short" yScale="0.654665403621" xOffset="-48" yOffset="245"/>
  </outline>
</glyph>
<glyph name="dvDH_close" format="1">
  <advance width="500"/>
  <outline>
    <contour>
      <point x="325" y="287" type="curve"/>
      <point x="308" y="206"/>
      <point x="279" y="140"/>
      <point x="208" y="140" type="curve"/>
      <point x="135" y="140"/>
      <point x="91" y="201"/>
      <point x="92" y="277" type="curve"/>
      <point x="92" y="352"/>
      <point x="136" y="416"/>
      <point x="209" y="416" type="curve"/>
      <point x="209" y="422"/>
      <point x="209" y="428"/>
      <point x="209" y="434" type="curve"/>
      <point x="121" y="434"/>
      <point x="67" y="362"/>
      <point x="67" y="276" type="curve"/>
      <point x="67" y="188"/>
      <point x="120" y="119"/>
      <point x="206" y="119" type="curve"/>
      <point x="286" y="119"/>
      <point x="326" y="188"/>
      <point x="343" y="278" type="curve"/>
      <point x="336" y="281"/>
      <point x="332" y="284"/>
    </contour>
    <contour>
      <point x="332" y="647" type="line"/>
      <point x="307" y="687"/>
      <point x="257" y="716"/>
      <point x="200" y="716" type="curve"/>
      <point x="117" y="716"/>
      <point x="61" y="656"/>
      <point x="61" y="574" type="curve"/>
      <point x="61" y="486"/>
      <point x="119" y="416"/>
      <point x="209" y="416" type="curve"/>
      <point x="209" y="422"/>
      <point x="209" y="428"/>
      <point x="209" y="434" type="curve"/>
      <point x="131" y="434"/>
      <point x="84" y="498"/>
      <point x="86" y="576" type="curve"/>
      <point x="87" y="644"/>
      <point x="131" y="693"/>
      <point x="198" y="693" type="curve"/>
      <point x="246" y="693"/>
      <point x="291" y="673"/>
      <point x="314" y="641" type="curve"/>
    </contour>
  </outline>
</glyph>
<glyph name="dvD_B_RA" format="1">
  <advance width="384"/>
  <outline>
    <contour>
      <point x="310" y="-210" type="move" name="blwm.virama"/>
    </contour>
    <contour>
      <point x="284" y="720" type="move" name="abvm.e"/>
    </contour>
    <contour>
      <point x="310" y="-273" type="move" name="blwm.u"/>
    </contour>
    <component base="dvD_BA" xOffset="25"/>
    <component base="dvRaker" xOffset="6" yOffset="-272"/>
  </outline>
</glyph>
<glyph name="dvD_G_RA" format="1">
  <advance width="378"/>
  <outline>
    <contour>
      <point x="323" y="-166" type="move" name="blwm.virama"/>
    </contour>
    <contour>
      <point x="289" y="720" type="move" name="abvm.e"/>
    </contour>
    <contour>
      <point x="326" y="-233" type="move" name="blwm.u"/>
    </contour>
    <component base="dvGA_low" xOffset="-174" yOffset="-160"/>
    <component base="dvDA_short" xOffset="2" yOffset="34"/>
    <component base="dvStroke_down" yScale="1.84948826413" xOffset="3" yOffset="-149"/>
    <component base="dvTopbar" xScale="0.595605835825" xOffset="-3"/>
    <component base="dvRaker" xOffset="9" yOffset="-144"/>
  </outline>
</glyph>
<glyph name="dvD_MA" format="1">
  <advance width="506"/>
  <outline>
    <contour>
      <point x="437" y="-154" type="move" name="blwm.virama"/>
    </contour>
    <contour>
      <point x="436" y="722" type="move" name="abvm.e"/>
    </contour>
    <contour>
      <point x="437" y="-122" type="move" name="blwm.u"/>
    </contour>
    <component base="dvMA_base" xOffset="54" yOffset="-322"/>
    <component base="dvDA_short" xOffset="-17" yOffset="31"/>
    <component base="dvTopbar" xScale="0.761451543241" xOffset="6"/>
    <component base="dvStem_short" yScale="3.7376573837" xOffset="138" yOffset="-1938"/>
  </outline>
</glyph>
<glyph name="dvD_YA" format="1">
  <advance width="442"/>
  <outline>
    <contour>
      <point x="318" y="170" type="curve"/>
      <point x="298" y="123"/>
      <point x="258" y="64"/>
      <point x="195" y="64" type="curve"/>
      <point x="112" y="64"/>
      <point x="61" y="119"/>
      <point x="61" y="199" type="curve"/>
      <point x="61" y="267"/>
      <point x="91" y="323"/>
      <point x="152" y="323" type="curve"/>
      <point x="170" y="323"/>
      <point x="189" y="323"/>
      <point x="208" y="323" type="curve"/>
      <point x="208" y="347"/>
      <point x="208" y="321"/>
      <point x="208" y="345" type="curve"/>
      <point x="189" y="345"/>
      <point x="170" y="345"/>
      <point x="152" y="345" type="curve"/>
      <point x="76" y="345"/>
      <point x="36" y="279"/>
      <point x="36" y="197" type="curve"/>
      <point x="36" y="105"/>
      <point x="98" y="42"/>
      <point x="194" y="42" type="curve"/>
      <point x="266" y="42"/>
      <point x="313" y="99"/>
      <point x="337" y="158" type="curve"/>
      <point x="316" y="172"/>
      <point x="339" y="157"/>
    </contour>
    <contour>
      <point x="208" y="345" type="curve"/>
      <point x="189" y="345"/>
      <point x="170" y="345"/>
      <point x="152" y="345" type="curve"/>
      <point x="93" y="345"/>
      <point x="61" y="395"/>
      <point x="61" y="456" type="curve"/>
      <point x="61" y="508"/>
      <point x="83" y="552"/>
      <point x="130" y="552" type="curve"/>
      <point x="161" y="552"/>
      <point x="192" y="552"/>
      <point x="224" y="552" type="curve"/>
      <point x="197" y="575"/>
      <point x="226" y="550"/>
      <point x="199" y="573" type="curve"/>
      <point x="176" y="573"/>
      <point x="152" y="573"/>
      <point x="129" y="573" type="curve"/>
      <point x="69" y="573"/>
      <point x="37" y="521"/>
      <point x="37" y="456" type="curve"/>
      <point x="37" y="380"/>
      <point x="80" y="323"/>
      <point x="152" y="323" type="curve"/>
      <point x="170" y="323"/>
      <point x="189" y="323"/>
      <point x="208" y="323" type="curve"/>
      <point x="208" y="347"/>
      <point x="208" y="321"/>
    </contour>
    <contour>
      <point x="200" y="716" type="curve"/>
      <point x="200" y="670"/>
      <point x="200" y="621"/>
      <point x="200" y="573" type="curve"/>
      <point x="226" y="550"/>
      <point x="197" y="575"/>
      <point x="224" y="552" type="curve"/>
      <point x="224" y="607"/>
      <point x="224" y="662"/>
      <point x="224" y="716" type="curve"/>
      <point x="197" y="716"/>
      <point x="226" y="716"/>
    </contour>
    <component base="dvTopbar" xScale="0.595201333467" xOffset="-17"/>
    <component base="dvStemright" xOffset="226"/>
  </outline>
</glyph>
<glyph name="dvDiagonal" format="1">
  <advance width="500"/>
  <outline>
    <contour>
      <point x="307" y="175" type="line"/>
      <point x="105" y="492" type="line"/>
      <point x="83" y="483" type="line"/>
      <point x="291" y="162" type="line"/>
    </contour>
  </outline>
</glyph>
<glyph name="dvDoublevirama" format="1">
  <advance width="500"/>
  <outline>
    <contour>
      <point x="76" y="-238" type="line"/>
      <point x="201" y="-81" type="line"/>
      <point x="171" y="-81" type="line"/>
      <point x="42" y="-238" type="line"/>
    </contour>
    <contour>
      <point x="337" y="-238" type="line"/>
      <point x="207" y="-81" type="line"/>
      <point x="179" y="-81" type="line"/>
      <point x="304" y="-238" type="line"/>
    </contour>
  </outline>
</glyph>
<glyph name="dvG_DA" format="1">
  <advance width="617"/>
  <outline>
    <contour>
      <point x="562" y="1" type="move" name="blwm.virama"/>
    </contour>
    <contour>
      <point x="530" y="719" type="move" name="abvm.e"/>
    </contour>
    <contour>
      <point x="562" y="-81" type="move" name="blwm.u"/>
    </contour>
    <component base="dvG"/>
    <component base="dvDA" xOffset="242"/>
  </outline>
</glyph>
<glyph name="dvJ_BA" format="1">
  <advance width="784"/>
  <outline>
    <contour>
      <point x="29" y="489" type="line"/>
      <point x="38" y="321"/>
      <point x="20" y="119"/>
      <point x="168" y="119" type="curve"/>
      <point x="250" y="119"/>
      <point x="292" y="212"/>
      <point x="292" y="305" type="curve"/>
      <point x="292" y="404"/>
      <point x="263" y="507"/>
      <point x="180" y="507" type="curve"/>
      <point x="180" y="500"/>
      <point x="180" y="492"/>
      <point x="180" y="485" type="curve"/>
      <point x="252" y="485"/>
      <point x="268" y="390"/>
      <point x="268" y="303" type="curve"/>
      <point x="268" y="223"/>
      <point x="232" y="140"/>
      <point x="169" y="140" type="curve"/>
      <point x="36" y="140"/>
      <point x="62" y="337"/>
      <point x="49" y="494" type="curve"/>
    </contour>
    <contour>
      <point x="424" y="507" type="curve"/>
      <point x="345" y="507"/>
      <point x="259" y="507"/>
      <point x="180" y="507" type="curve"/>
      <point x="180" y="483"/>
      <point x="180" y="509"/>
      <point x="180" y="485" type="curve"/>
      <point x="259" y="485"/>
      <point x="345" y="485"/>
      <point x="424" y="485" type="curve"/>
      <point x="424" y="509"/>
      <point x="424" y="483"/>
    </contour>
    <contour>
      <point x="-20" y="700" type="line"/>
      <point x="431" y="700" type="line"/>
      <point x="431" y="722" type="line"/>
      <point x="-20" y="722" type="line"/>
    </contour>
    <component base="dvBA" xOffset="328"/>
  </outline>
</glyph>
<glyph name="dvJ_DDA" format="1">
  <advance width="689"/>
  <outline>
    <contour>
      <point x="602" y="-9" type="move" name="blwm.virama"/>
    </contour>
    <contour>
      <point x="622" y="720" type="move" name="abvm.e"/>
    </contour>
    <contour>
      <point x="621" y="-97" type="move" name="blwm.u"/>
    </contour>
    <component base="dvI_base" xOffset="335"/>
    <component base="dvTopbar" xScale="1.06073199533" xOffset="-14"/>
    <component base="dvJ_base" xOffset="-30"/>
  </outline>
</glyph>
<glyph name="dvJ_J_VA" format="1">
  <advance width="1131"/>
  <outline>
    <contour>
      <point x="-20" y="700" type="line"/>
      <point x="451" y="700" type="line"/>
      <point x="451" y="722" type="line"/>
      <point x="-20" y="722" type="line"/>
    </contour>
    <contour>
      <point x="449" y="507" type="curve"/>
      <point x="369" y="507"/>
      <point x="281" y="507"/>
      <point x="200" y="507" type="curve"/>
      <point x="200" y="483"/>
      <point x="200" y="509"/>
      <point x="200" y="485" type="curve"/>
      <point x="281" y="485"/>
      <point x="369" y="485"/>
      <point x="449" y="485" type="curve"/>
      <point x="449" y="509"/>
      <point x="449" y="483"/>
    </contour>
    <contour>
      <point x="49" y="489" type="line"/>
      <point x="58" y="321"/>
      <point x="39" y="119"/>
      <point x="186" y="119" type="curve"/>
      <point x="269" y="119"/>
      <point x="312" y="212"/>
      <point x="312" y="305" type="curve"/>
      <point x="312" y="404"/>
      <point x="283" y="507"/>
      <point x="200" y="507" type="curve"/>
      <point x="200" y="500"/>
      <point x="200" y="492"/>
      <point x="200" y="485" type="curve"/>
      <point x="272" y="485"/>
      <point x="288" y="390"/>
      <point x="288" y="303" type="curve"/>
      <point x="288" y="223"/>
      <point x="252" y="140"/>
      <point x="187" y="140" type="curve"/>
      <point x="56" y="140"/>
      <point x="82" y="337"/>
      <point x="69" y="494" type="curve"/>
    </contour>
    <contour>
      <point x="379" y="700" type="line"/>
      <point x="831" y="700" type="line"/>
      <point x="831" y="722" type="line"/>
      <point x="379" y="722" type="line"/>
    </contour>
    <contour>
      <point x="823" y="507" type="curve"/>
      <point x="744" y="507"/>
      <point x="658" y="507"/>
      <point x="579" y="507" type="curve"/>
      <point x="579" y="483"/>
      <point x="579" y="509"/>
      <point x="579" y="485" type="curve"/>
      <point x="658" y="485"/>
      <point x="744" y="485"/>
      <point x="823" y="485" type="curve"/>
      <point x="823" y="509"/>
      <point x="823" y="483"/>
    </contour>
    <contour>
      <point x="428" y="489" type="line"/>
      <point x="437" y="321"/>
      <point x="418" y="119"/>
      <point x="566" y="119" type="curve"/>
      <point x="649" y="119"/>
      <point x="691" y="212"/>
      <point x="691" y="305" type="curve"/>
      <point x="691" y="404"/>
      <point x="662" y="507"/>
      <point x="579" y="507" type="curve"/>
      <point x="579" y="500"/>
      <point x="579" y="492"/>
      <point x="579" y="485" type="curve"/>
      <point x="651" y="485"/>
      <point x="667" y="390"/>
      <point x="667" y="303" type="curve"/>
      <point x="667" y="223"/>
      <point x="631" y="140"/>
      <point x="567" y="140" type="curve"/>
      <point x="435" y="140"/>
      <point x="461" y="337"/>
      <point x="448" y="494" type="curve"/>
    </contour>
    <component base="dvVA" xOffset="708"/>
  </outline>
</glyph>
<glyph name="dvJ_J_YA" format="1">
  <advance width="1164"/>
  <outline>
    <contour>
      <point x="49" y="492" type="line"/>
      <point x="59" y="322"/>
      <point x="39" y="119"/>
      <point x="186" y="119" type="curve"/>
      <point x="270" y="119"/>
      <point x="313" y="213"/>
      <point x="313" y="306" type="curve"/>
      <point x="313" y="406"/>
      <point x="284" y="510"/>
      <point x="200" y="510" type="curve"/>
      <point x="200" y="503"/>
      <point x="200" y="495"/>
      <point x="200" y="488" type="curve"/>
      <point x="273" y="488"/>
      <point x="289" y="392"/>
      <point x="289" y="304" type="curve"/>
      <point x="289" y="223"/>
      <point x="253" y="140"/>
      <point x="187" y="140" type="curve"/>
      <point x="56" y="140"/>
      <point x="82" y="338"/>
      <point x="69" y="497" type="curve"/>
    </contour>
    <contour>
      <point x="393" y="492" type="line"/>
      <point x="402" y="322"/>
      <point x="383" y="119"/>
      <point x="530" y="119" type="curve"/>
      <point x="614" y="119"/>
      <point x="657" y="213"/>
      <point x="657" y="306" type="curve"/>
      <point x="657" y="406"/>
      <point x="627" y="510"/>
      <point x="543" y="510" type="curve"/>
      <point x="543" y="503"/>
      <point x="543" y="495"/>
      <point x="543" y="488" type="curve"/>
      <point x="617" y="488"/>
      <point x="633" y="392"/>
      <point x="633" y="304" type="curve"/>
      <point x="633" y="223"/>
      <point x="596" y="140"/>
      <point x="531" y="140" type="curve"/>
      <point x="399" y="140"/>
      <point x="425" y="338"/>
      <point x="413" y="497" type="curve"/>
    </contour>
    <contour>
      <point x="757" y="489" type="curve"/>
      <point x="825" y="499"/>
      <point x="871" y="540"/>
      <point x="871" y="605" type="curve"/>
      <point x="871" y="651"/>
      <point x="849" y="680"/>
      <point x="825" y="719" type="curve"/>
      <point x="819" y="714"/>
      <point x="813" y="710"/>
      <point x="807" y="705" type="curve"/>
      <point x="830" y="671"/>
      <point x="847" y="643"/>
      <point x="847" y="602" type="curve"/>
      <point x="847" y="548"/>
      <point x="798" y="510"/>
      <point x="733" y="510" type="curve"/>
      <point x="742" y="502"/>
      <point x="748" y="497"/>
    </contour>
    <contour>
      <point x="733" y="510" type="curve"/>
      <point x="733" y="311"/>
      <point x="751" y="129"/>
      <point x="883" y="129" type="curve"/>
      <point x="982" y="129"/>
      <point x="1035" y="202"/>
      <point x="1058" y="311" type="curve"/>
      <point x="1056" y="314"/>
      <point x="1049" y="321"/>
      <point x="1046" y="325" type="curve"/>
      <point x="1022" y="224"/>
      <point x="971" y="151"/>
      <point x="883" y="151" type="curve"/>
      <point x="778" y="151"/>
      <point x="757" y="307"/>
      <point x="757" y="489" type="curve"/>
      <point x="750" y="495"/>
      <point x="740" y="504"/>
    </contour>
    <contour>
      <point x="414" y="510" type="curve"/>
      <point x="345" y="510"/>
      <point x="270" y="510"/>
      <point x="200" y="510" type="curve"/>
      <point x="200" y="486"/>
      <point x="200" y="512"/>
      <point x="200" y="488" type="curve"/>
      <point x="270" y="488"/>
      <point x="345" y="488"/>
      <point x="414" y="488" type="curve"/>
      <point x="414" y="512"/>
      <point x="414" y="486"/>
    </contour>
    <contour>
      <point x="753" y="510" type="curve"/>
      <point x="685" y="510"/>
      <point x="612" y="510"/>
      <point x="543" y="510" type="curve"/>
      <point x="543" y="486"/>
      <point x="543" y="512"/>
      <point x="543" y="488" type="curve"/>
      <point x="612" y="488"/>
      <point x="685" y="488"/>
      <point x="753" y="488" type="curve"/>
      <point x="753" y="512"/>
      <point x="753" y="486"/>
    </contour>
    <contour>
      <point x="1059" y="0" type="curve"/>
      <point x="1059" y="241"/>
      <point x="1059" y="481"/>
      <point x="1059" y="722" type="curve"/>
      <point x="1035" y="722"/>
      <point x="1059" y="722"/>
      <point x="1035" y="722" type="curve"/>
      <point x="1035" y="481"/>
      <point x="1035" y="241"/>
      <point x="1035" y="0" type="curve"/>
      <point x="1059" y="0"/>
      <point x="1035" y="0"/>
    </contour>
    <contour>
      <point x="1048" y="0" type="curve"/>
      <point x="1084" y="0"/>
      <point x="1097" y="0"/>
      <point x="1135" y="0" type="curve"/>
      <point x="1135" y="22"/>
      <point x="1135" y="0"/>
      <point x="1135" y="22" type="curve"/>
      <point x="1025" y="22"/>
      <point x="1158" y="22"/>
      <point x="1048" y="22" type="curve"/>
      <point x="1048" y="0"/>
      <point x="1048" y="22"/>
    </contour>
    <contour>
      <point x="1039" y="700" type="curve"/>
      <point x="1092" y="700"/>
      <point x="1131" y="700"/>
      <point x="1184" y="700" type="curve"/>
      <point x="1184" y="722"/>
      <point x="1184" y="700"/>
      <point x="1184" y="722" type="curve"/>
      <point x="1131" y="722"/>
      <point x="1092" y="722"/>
      <point x="1039" y="722" type="curve"/>
      <point x="1039" y="700"/>
      <point x="1039" y="722"/>
    </contour>
    <contour>
      <point x="-20" y="700" type="line"/>
      <point x="416" y="700" type="line"/>
      <point x="416" y="722" type="line"/>
      <point x="-20" y="722" type="line"/>
    </contour>
    <contour>
      <point x="390" y="700" type="line"/>
      <point x="792" y="700" type="line"/>
      <point x="792" y="722" type="line"/>
      <point x="390" y="722" type="line"/>
    </contour>
    <contour>
      <point x="671" y="700" type="line"/>
      <point x="1142" y="700" type="line"/>
      <point x="1142" y="722" type="line"/>
      <point x="671" y="722" type="line"/>
    </contour>
  </outline>
</glyph>
<glyph name="dvKA_right" format="1">
  <advance width="500"/>
  <outline>
    <contour>
      <point x="318" y="402" type="curve"/>
      <point x="328" y="466"/>
      <point x="363" y="525"/>
      <point x="415" y="525" type="curve"/>
      <point x="493" y="525"/>
      <point x="506" y="443"/>
      <point x="506" y="358" type="curve"/>
      <point x="506" y="287"/>
      <point x="500" y="235"/>
      <point x="450" y="169" type="curve"/>
      <point x="449" y="170"/>
      <point x="466" y="148"/>
      <point x="465" y="149" type="curve"/>
      <point x="512" y="206"/>
      <point x="531" y="276"/>
      <point x="531" y="357" type="curve"/>
      <point x="531" y="454"/>
      <point x="506" y="546"/>
      <point x="415" y="546" type="curve"/>
      <point x="346" y="546"/>
      <point x="314" y="480"/>
      <point x="303" y="406" type="curve"/>
      <point x="308" y="405"/>
      <point x="313" y="403"/>
    </contour>
  </outline>
</glyph>
<glyph name="dvKH_close" format="1">
  <advance width="500"/>
  <outline>
    <contour>
      <point x="492" y="359" type="curve"/>
      <point x="492" y="457"/>
      <point x="460" y="541"/>
      <point x="374" y="541" type="curve"/>
      <point x="289" y="541"/>
      <point x="257" y="460"/>
      <point x="257" y="363" type="curve"/>
      <point x="257" y="258"/>
      <point x="285" y="168"/>
      <point x="374" y="168" type="curve"/>
      <point x="459" y="168"/>
      <point x="492" y="254"/>
      <point x="492" y="359" type="curve"/>
      <point x="483" y="359"/>
      <point x="477" y="359"/>
      <point x="468" y="359" type="curve"/>
      <point x="468" y="268"/>
      <point x="445" y="191"/>
      <point x="374" y="191" type="curve"/>
      <point x="298" y="191"/>
      <point x="281" y="273"/>
      <point x="281" y="363" type="curve"/>
      <point x="281" y="446"/>
      <point x="302" y="518"/>
      <point x="374" y="518" type="curve"/>
      <point x="446" y="518"/>
      <point x="468" y="443"/>
      <point x="468" y="359" type="curve"/>
      <point x="477" y="359"/>
      <point x="483" y="359"/>
    </contour>
  </outline>
</glyph>
<glyph name="dvK_DA" format="1">
  <advance width="841"/>
  <outline>
    <contour>
      <point x="784" y="-47" type="move" name="blwm.virama"/>
    </contour>
    <contour>
      <point x="753" y="720" type="move" name="abvm.e"/>
    </contour>
    <contour>
      <point x="786" y="-107" type="move" name="blwm.u"/>
    </contour>
    <component base="dvDA" xOffset="465"/>
    <component base="dvK" xOffset="-20"/>
  </outline>
</glyph>
